<svg width="48" height="48" viewBox="0 0 48 48" fill="none" xmlns="http://www.w3.org/2000/svg">
<path d="M24.4597 22.0944C21.7839 21.3406 20.9234 20.5611 20.9234 19.3472C20.9234 17.9544 22.1139 16.9833 24.1061 16.9833C25.7586 16.9833 26.5922 17.657 26.9063 18.7234C27.0575 19.2367 27.4747 19.6667 28.0097 19.6667H28.6199C29.1869 19.6667 29.6496 19.1919 29.5311 18.6375C29.1984 17.0815 28.2319 15.7253 26.6035 15.0448C26.1848 14.8698 25.8743 14.4823 25.8743 14.0285V13C25.8743 12.4477 25.4265 12 24.8743 12H23.3379C22.7856 12 22.3379 12.4477 22.3379 13V13.9675C22.3379 14.4318 22.015 14.8273 21.578 14.9841C19.6571 15.6735 18.2122 17.1868 18.2122 19.3728C18.2122 22.3244 20.4637 23.7939 23.7525 24.65C26.6994 25.4167 27.2888 26.5411 27.2888 27.7294C27.2888 28.6111 26.7112 30.0167 24.1061 30.0167C22.1852 30.0167 21.1863 29.281 20.7886 28.2272C20.6053 27.7416 20.1947 27.3333 19.6756 27.3333H19.0518C18.4797 27.3333 18.0135 27.8174 18.1454 28.3741C18.5883 30.2428 19.9401 31.4277 21.5748 32.0055C22.0136 32.1606 22.3379 32.5568 22.3379 33.0222V34C22.3379 34.5523 22.7856 35 23.3379 35H24.8743C25.4265 35 25.8743 34.5523 25.8743 34V33.068C25.8743 32.5934 26.2111 32.1921 26.6625 32.0457C28.5769 31.4246 30 30.0284 30 27.7167C30 24.0878 27.1356 22.8483 24.4597 22.0944Z" fill="white"/>
<path d="M24.4597 22.0944C21.7839 21.3406 20.9234 20.5611 20.9234 19.3472C20.9234 17.9544 22.1139 16.9833 24.1061 16.9833C25.7586 16.9833 26.5922 17.657 26.9063 18.7234C27.0575 19.2367 27.4747 19.6667 28.0097 19.6667H28.6199C29.1869 19.6667 29.6496 19.1919 29.5311 18.6375C29.1984 17.0815 28.2319 15.7253 26.6035 15.0448C26.1848 14.8698 25.8743 14.4823 25.8743 14.0285V13C25.8743 12.4477 25.4265 12 24.8743 12H23.3379C22.7856 12 22.3379 12.4477 22.3379 13V13.9675C22.3379 14.4318 22.015 14.8273 21.578 14.9841C19.6571 15.6735 18.2122 17.1868 18.2122 19.3728C18.2122 22.3244 20.4637 23.7939 23.7525 24.65C26.6994 25.4167 27.2888 26.5411 27.2888 27.7294C27.2888 28.6111 26.7112 30.0167 24.1061 30.0167C22.1852 30.0167 21.1863 29.281 20.7886 28.2272C20.6053 27.7416 20.1947 27.3333 19.6756 27.3333H19.0518C18.4797 27.3333 18.0135 27.8174 18.1454 28.3741C18.5883 30.2428 19.9401 31.4277 21.5748 32.0055C22.0136 32.1606 22.3379 32.5568 22.3379 33.0222V34C22.3379 34.5523 22.7856 35 23.3379 35H24.8743C25.4265 35 25.8743 34.5523 25.8743 34V33.068C25.8743 32.5934 26.2111 32.1921 26.6625 32.0457C28.5769 31.4246 30 30.0284 30 27.7167C30 24.0878 27.1356 22.8483 24.4597 22.0944Z" stroke="#40447A"/>
<circle cx="24" cy="24" r="16.5" stroke="white" stroke-width="3"/>
</svg>
