<svg width="40" height="40" viewBox="0 0 40 40" fill="none" xmlns="http://www.w3.org/2000/svg">
<path d="M27.4155 10.2512C28.1015 10.9372 29.0299 11.3259 30 11.3333H37.6659V27C37.6659 29.7567 35.4625 32 32.7534 32H28.3325V20.6783C28.3357 19.7743 27.9813 18.9056 27.3467 18.2617L18.25 9.01167C17.9353 8.69283 17.5607 8.43932 17.1476 8.2657C16.7346 8.09209 16.2914 8.00179 15.8434 8H12.3334V5C12.3349 3.67439 12.8622 2.40352 13.7995 1.46617C14.7369 0.528824 16.0078 0.00154384 17.3334 0H26.3334V7.66667C26.3408 8.63684 26.7295 9.56517 27.4155 10.2512Z" fill="#4662B7"/>
<path d="M30 8.66686H35.8658C35.9315 8.66692 35.9957 8.64758 36.0504 8.61127C36.1052 8.57496 36.1479 8.52329 36.1734 8.46276C36.1988 8.40223 36.2059 8.33553 36.1935 8.27102C36.1812 8.20652 36.1501 8.14709 36.1042 8.1002L29.5708 1.45686C29.5244 1.40972 29.465 1.37746 29.4002 1.36419C29.3353 1.35092 29.268 1.35725 29.2068 1.38236C29.1456 1.40747 29.0932 1.45024 29.0564 1.50521C29.0196 1.56018 28.9999 1.62486 29 1.69103V7.66686C29 7.93208 29.1054 8.18643 29.2929 8.37397C29.4804 8.56151 29.7348 8.66686 30 8.66686Z" fill="#4662B7"/>
<path d="M14.6165 19.7334C14.8024 20.1768 15.0744 20.5789 15.4167 20.9166C15.7542 21.2591 16.1563 21.5312 16.5998 21.7172C17.0432 21.9032 17.5191 21.9993 18 22H25.6667V34.6666C25.6667 36.0811 25.1048 37.4377 24.1046 38.4379C23.1044 39.4381 21.7478 40 20.3333 40H8.33333C6.91885 40 5.56229 39.4381 4.5621 38.4379C3.5619 37.4377 3 36.0811 3 34.6666V16C3.00418 14.5868 3.56742 13.2326 4.56671 12.2333C5.566 11.234 6.92013 10.6708 8.33333 10.6666H14.3333V18.3333C14.3343 18.8141 14.4305 19.29 14.6165 19.7334Z" fill="#4662B7"/>
<path d="M24.0504 19.2779C23.9957 19.3142 23.9315 19.3335 23.8658 19.3335H18C17.7348 19.3335 17.4804 19.2281 17.2929 19.0406C17.1054 18.8531 17 18.5987 17 18.3335V12.3577C16.9999 12.2915 17.0196 12.2268 17.0564 12.1718C17.0932 12.1169 17.1456 12.0741 17.2068 12.049C17.268 12.0239 17.3353 12.0175 17.4002 12.0308C17.465 12.0441 17.5244 12.0763 17.5708 12.1235L24.1042 18.7668C24.1501 18.8137 24.1812 18.8731 24.1935 18.9377C24.2059 19.0022 24.1988 19.0689 24.1734 19.1294C24.1479 19.1899 24.1052 19.2416 24.0504 19.2779Z" fill="#4662B7"/>
</svg>
