<svg width="48" height="48" viewBox="0 0 48 48" fill="none" xmlns="http://www.w3.org/2000/svg">
<path d="M40.25 17.7235C40.25 14.7616 39.2967 12.2654 37.6145 10.508C35.9314 8.74965 33.5367 7.75 30.6925 7.75H16.3075C13.4633 7.75 11.0686 8.74965 9.38554 10.508C7.70334 12.2654 6.75 14.7616 6.75 17.7235V31.2765C6.75 34.2384 7.70334 36.7346 9.38554 38.492C11.0686 40.2504 13.4633 41.25 16.3075 41.25H30.6925C33.5367 41.25 35.9314 40.2504 37.6145 38.492C39.2967 36.7346 40.25 34.2384 40.25 31.2765V17.7235ZM16.3075 10.5523H30.6925C32.7614 10.5523 34.4435 11.2585 35.6094 12.4935C36.7766 13.7299 37.4477 15.5194 37.4477 17.7235V31.2765C37.4477 33.4806 36.7766 35.2701 35.6094 36.5065C34.4435 37.7415 32.7614 38.4477 30.6925 38.4477H16.3075C14.2394 38.4477 12.5572 37.7416 11.3912 36.5065C10.2238 35.27 9.55233 33.4805 9.55233 31.2765V17.7235C9.55233 15.5195 10.2238 13.73 11.3912 12.4935C12.5572 11.2584 14.2394 10.5523 16.3075 10.5523ZM17.7963 21.741C17.7963 20.9675 17.1687 20.3399 16.3952 20.3399C15.6217 20.3399 14.994 20.9675 14.994 21.741V32.2703C14.994 33.0439 15.6217 33.6715 16.3952 33.6715C17.1687 33.6715 17.7963 33.0439 17.7963 32.2703V21.741ZM24.9596 16.7005C24.9596 15.927 24.332 15.2993 23.5585 15.2993C22.785 15.2993 22.1573 15.927 22.1573 16.7005V32.2688C22.1573 33.0423 22.785 33.67 23.5585 33.67C24.332 33.67 24.9596 33.0423 24.9596 32.2688V16.7005ZM32.0052 27.305C32.0052 26.5315 31.3776 25.9038 30.6041 25.9038C29.8305 25.9038 29.2029 26.5315 29.2029 27.305V32.2688C29.2029 33.0423 29.8305 33.67 30.6041 33.67C31.3776 33.67 32.0052 33.0423 32.0052 32.2688V27.305Z" fill="white" stroke="white" stroke-width="0.5"/>
</svg>
