<svg width="28" height="28" viewBox="0 0 28 28" fill="none" xmlns="http://www.w3.org/2000/svg">
<path d="M7.92 2.64511L9.58 2.14511C10.3357 1.91714 11.1484 1.97194 11.8667 2.29931C12.5849 2.62667 13.1594 3.20421 13.483 3.92411L14.516 6.22211C14.7943 6.84117 14.8719 7.53185 14.7377 8.19722C14.6036 8.8626 14.2645 9.46927 13.768 9.93211L11.963 11.6151C11.9407 11.6359 11.9224 11.6607 11.909 11.6881C11.72 12.0741 12.007 13.1051 12.906 14.6631C13.92 16.4191 14.703 17.1131 15.066 17.0061L17.435 16.2811C18.0838 16.083 18.7783 16.0929 19.4212 16.3093C20.0641 16.5258 20.6231 16.938 21.02 17.4881L22.488 19.5211C22.9489 20.1594 23.1624 20.9434 23.0888 21.7273C23.0152 22.5112 22.6596 23.2417 22.088 23.7831L20.825 24.9781C20.3858 25.3941 19.8525 25.6977 19.2705 25.863C18.6886 26.0282 18.0753 26.0502 17.483 25.9271C13.966 25.1951 10.815 22.3631 8.003 17.4931C5.19 12.6201 4.313 8.47011 5.443 5.05711C5.63215 4.48572 5.95607 3.96825 6.38738 3.54843C6.81868 3.12861 7.3447 2.81878 7.921 2.64511H7.92ZM8.354 4.08111C8.00821 4.18526 7.69257 4.37112 7.43375 4.62298C7.17493 4.87483 6.98054 5.18529 6.867 5.52811C5.893 8.46911 6.682 12.2051 9.302 16.7431C11.92 21.2781 14.758 23.8281 17.788 24.4581C18.1435 24.532 18.5117 24.5188 18.861 24.4195C19.2103 24.3203 19.5304 24.138 19.794 23.8881L21.056 22.6941C21.3639 22.4026 21.5555 22.0093 21.5952 21.5872C21.635 21.1651 21.5201 20.7429 21.272 20.3991L19.804 18.3651C19.5903 18.0689 19.2894 17.847 18.9433 17.7305C18.5972 17.6139 18.2233 17.6085 17.874 17.7151L15.499 18.4421C14.185 18.8331 12.949 17.7381 11.607 15.4121C10.47 13.4441 10.076 12.0221 10.562 11.0291C10.656 10.8371 10.784 10.6641 10.94 10.5181L12.745 8.83511C13.0124 8.58589 13.1951 8.25918 13.2674 7.90084C13.3397 7.5425 13.2979 7.17051 13.148 6.83711L12.115 4.54011C11.9408 4.15237 11.6313 3.84131 11.2445 3.66502C10.8577 3.48873 10.4199 3.45926 10.013 3.58211L8.353 4.08211L8.354 4.08111Z" fill="black"/>
</svg>
