<svg width="71" height="111" viewBox="0 0 71 111" fill="none" xmlns="http://www.w3.org/2000/svg">
<path d="M13.2363 98.8553C13.9507 99.0594 14.5007 99.4223 14.8863 99.9439C15.2718 100.454 15.4646 101.078 15.4646 101.815C15.4646 102.484 15.2888 103.068 14.9373 103.567C14.5857 104.066 14.0811 104.451 13.4234 104.724C12.7771 104.996 12.0116 105.132 11.1271 105.132H5.08868V93.0209H10.974C12.2441 93.0209 13.2533 93.3044 14.0018 93.8714C14.7502 94.4384 15.1244 95.2039 15.1244 96.1677C15.1244 96.7914 14.96 97.3414 14.6311 97.8177C14.3023 98.2939 13.8373 98.6398 13.2363 98.8553ZM8.20145 97.7666H10.4297C11.0194 97.7666 11.4503 97.6759 11.7225 97.4945C11.9946 97.3131 12.1307 97.0239 12.1307 96.627C12.1307 96.2188 11.9889 95.9183 11.7054 95.7255C11.4333 95.5327 11.008 95.4363 10.4297 95.4363H8.20145V97.7666ZM10.7529 102.716C11.3653 102.716 11.8018 102.62 12.0626 102.427C12.3348 102.235 12.4709 101.911 12.4709 101.458C12.4709 100.993 12.3405 100.664 12.0797 100.471C11.8188 100.278 11.3766 100.182 10.7529 100.182H8.20145V102.716H10.7529ZM21.3865 105.268C20.4226 105.268 19.5834 105.086 18.869 104.724C18.1546 104.361 17.6047 103.839 17.2191 103.159C16.8336 102.478 16.6408 101.679 16.6408 100.76C16.6408 99.8418 16.8336 99.0424 17.2191 98.362C17.6047 97.6816 18.1546 97.16 18.869 96.7971C19.5834 96.4342 20.4226 96.2528 21.3865 96.2528C22.339 96.2528 23.1668 96.4399 23.8699 96.8141C24.5843 97.177 25.1343 97.6986 25.5198 98.379C25.9054 99.048 26.0982 99.8418 26.0982 100.76C26.0982 101.679 25.9054 102.478 25.5198 103.159C25.1343 103.828 24.5843 104.349 23.8699 104.724C23.1668 105.086 22.339 105.268 21.3865 105.268ZM21.3865 102.972C22.4978 102.972 23.0534 102.235 23.0534 100.76C23.0534 100.012 22.9117 99.4619 22.6282 99.1104C22.356 98.7475 21.9421 98.5661 21.3865 98.5661C20.8195 98.5661 20.3942 98.7475 20.1107 99.1104C19.8273 99.4619 19.6855 100.012 19.6855 100.76C19.6855 101.52 19.8273 102.081 20.1107 102.444C20.3942 102.796 20.8195 102.972 21.3865 102.972ZM32.0713 105.268C31.1075 105.268 30.2683 105.086 29.5539 104.724C28.8395 104.361 28.2895 103.839 27.904 103.159C27.5184 102.478 27.3256 101.679 27.3256 100.76C27.3256 99.8418 27.5184 99.0424 27.904 98.362C28.2895 97.6816 28.8395 97.16 29.5539 96.7971C30.2683 96.4342 31.1075 96.2528 32.0713 96.2528C33.0239 96.2528 33.8517 96.4399 34.5548 96.8141C35.2692 97.177 35.8191 97.6986 36.2047 98.379C36.5902 99.048 36.783 99.8418 36.783 100.76C36.783 101.679 36.5902 102.478 36.2047 103.159C35.8191 103.828 35.2692 104.349 34.5548 104.724C33.8517 105.086 33.0239 105.268 32.0713 105.268ZM32.0713 102.972C33.1826 102.972 33.7383 102.235 33.7383 100.76C33.7383 100.012 33.5965 99.4619 33.313 99.1104C33.0409 98.7475 32.627 98.5661 32.0713 98.5661C31.5044 98.5661 31.0791 98.7475 30.7956 99.1104C30.5121 99.4619 30.3704 100.012 30.3704 100.76C30.3704 101.52 30.5121 102.081 30.7956 102.444C31.0791 102.796 31.5044 102.972 32.0713 102.972ZM44.4232 105.132L41.4805 101.407V105.132H38.4017V92.6127H41.4805V100.097L44.3721 96.5079H48.0122L44.6103 100.641L48.1483 105.132H44.4232Z" fill="white"/>
<path d="M35.5454 63.3907C41.0111 63.3907 45.442 58.9599 45.442 53.4942C45.442 48.0285 41.0111 43.5977 35.5454 43.5977C30.0797 43.5977 25.6489 48.0285 25.6489 53.4942C25.6489 58.9599 30.0797 63.3907 35.5454 63.3907Z" fill="#FF0066"/>
<path d="M9.41217 12.8253C12.4012 12.8253 14.8243 10.4022 14.8243 7.41315C14.8243 4.42409 12.4012 2.00098 9.41217 2.00098C6.42311 2.00098 4 4.42409 4 7.41315C4 10.4022 6.42311 12.8253 9.41217 12.8253Z" fill="white"/>
<path d="M15.845 78.1271C15.7986 78.0962 15.7523 78.0653 15.7213 78.0189C15.6749 77.988 15.6286 77.9416 15.5976 77.9106C15.6595 77.988 15.7523 78.0498 15.845 78.1271Z" fill="url(#paint0_linear)"/>
<path d="M15.3348 77.71C15.4585 77.8182 15.5822 77.911 15.7059 78.0192C15.7523 78.0502 15.7987 78.0965 15.8297 78.1275C15.876 78.1739 15.9379 78.2048 15.9843 78.2512C16.0616 78.313 16.1544 78.3749 16.2317 78.4367C16.0925 78.3285 15.9534 78.2203 15.8142 78.112C15.7369 78.0502 15.6441 77.9883 15.5668 77.911C15.4895 77.8491 15.4121 77.7718 15.3348 77.71Z" fill="#FF0000"/>
<path d="M16.247 78.4363C16.2625 78.4363 16.2625 78.4517 16.278 78.4517C16.2625 78.4517 16.247 78.4517 16.247 78.4363ZM16.2625 78.4517C16.2934 78.4672 16.3089 78.4981 16.3398 78.5136C16.3707 78.5445 16.4171 78.5755 16.448 78.6064C16.3862 78.56 16.3243 78.4981 16.2625 78.4517ZM16.4635 78.6064C20.4221 81.6217 25.1075 83.7247 30.2259 84.5907C30.2877 84.6062 30.3496 84.6062 30.4114 84.6216C31.4166 84.7917 32.4526 84.9 33.4886 84.9618C33.4732 84.9618 33.4577 84.9618 33.4577 84.9618C33.3186 84.9463 33.1794 84.9463 33.0402 84.9309C32.8701 84.9154 32.7 84.9 32.5299 84.8845C32.3289 84.869 32.1433 84.8381 31.9578 84.8226C31.8341 84.8072 31.7258 84.7917 31.6176 84.7762C31.4784 84.7608 31.3392 84.7453 31.2001 84.7144C31.1228 84.6989 31.0454 84.6989 30.9836 84.6835C30.798 84.6525 30.6279 84.6371 30.4578 84.6062C30.396 84.5907 30.3341 84.5907 30.2723 84.5752C30.1795 84.5598 30.0867 84.5443 29.9939 84.5288C29.9012 84.5134 29.8084 84.4979 29.7156 84.4825C29.53 84.4515 29.3445 84.4051 29.1744 84.3742C29.0197 84.3433 28.8496 84.3124 28.695 84.266C28.494 84.2196 28.293 84.1732 28.0919 84.1268C27.9064 84.0804 27.7208 84.034 27.5353 83.9876C27.3806 83.9412 27.226 83.9103 27.0868 83.8639C27.0404 83.8485 26.9786 83.833 26.9322 83.8175C26.793 83.7711 26.6539 83.7402 26.4992 83.6938C26.4064 83.6629 26.3137 83.6474 26.2209 83.6165C26.0972 83.5856 25.9735 83.5392 25.8652 83.5083C25.7261 83.4619 25.6023 83.4155 25.4632 83.3691C25.324 83.3227 25.2003 83.2763 25.0611 83.2299C24.6591 83.0907 24.2725 82.9361 23.8705 82.7815C23.7622 82.7351 23.6385 82.6887 23.5303 82.6423C23.3138 82.5495 23.0818 82.4568 22.8653 82.364C22.7107 82.3021 22.5561 82.2248 22.4169 82.1629C22.2623 82.0856 22.1076 82.0238 21.953 81.9465C21.8138 81.8846 21.6747 81.8073 21.5355 81.7454C20.9479 81.4516 20.3603 81.1424 19.8036 80.8176C19.6799 80.7403 19.5407 80.663 19.417 80.5857C19.1232 80.4156 18.8294 80.23 18.5356 80.0445C18.4119 79.9672 18.2882 79.8898 18.1799 79.8125C17.5769 79.4259 17.0047 79.0239 16.4635 78.6064ZM33.4886 84.9618C33.5814 84.9618 33.6587 84.9773 33.7515 84.9773C33.6587 84.9773 33.5814 84.9773 33.4886 84.9618Z" fill="#FF0000"/>
<path d="M33.7517 84.9775C33.9063 84.993 34.0455 84.993 34.1846 84.993C34.03 84.993 33.8908 84.993 33.7517 84.9775ZM34.1692 85.0085C34.2774 85.0085 34.3702 85.0239 34.4784 85.0239C34.3857 85.0085 34.2774 85.0085 34.1692 85.0085Z" fill="#FF0000"/>
<path d="M40.6946 84.6218C39.1483 84.8847 37.571 85.0239 35.9628 85.0393C35.8237 85.0393 35.6845 85.0393 35.5608 85.0393C35.4525 85.0393 35.3443 85.0393 35.2361 85.0393C35.1124 85.0393 34.9886 85.0393 34.8649 85.0393C34.7412 85.0393 34.6175 85.0393 34.5093 85.0239C34.2619 85.0239 34.0145 85.0084 33.767 84.9929C33.6743 84.9929 33.566 84.9775 33.4732 84.9775C33.3341 84.962 33.1949 84.962 33.0557 84.9466C32.8856 84.9311 32.7155 84.9156 32.5454 84.9002C32.3444 84.8847 32.1589 84.8538 31.9733 84.8383C31.8496 84.8228 31.7413 84.8074 31.6331 84.7919C31.4939 84.7765 31.3548 84.761 31.2156 84.7301C31.1383 84.7146 31.061 84.7146 30.9991 84.6991C30.8135 84.6682 30.6434 84.6527 30.4733 84.6218C30.4115 84.6064 30.3496 84.6064 30.2878 84.5909C30.195 84.5754 30.1022 84.56 30.0094 84.5445C29.9167 84.529 29.8239 84.5136 29.7311 84.4981C29.5455 84.4672 29.36 84.4363 29.1899 84.3899C29.0353 84.3589 28.8652 84.328 28.7105 84.2816C28.5095 84.2352 28.3085 84.1888 28.1075 84.1425C27.9219 84.0961 27.7363 84.0497 27.5508 84.0033C27.3961 83.9569 27.2415 83.926 27.1023 83.8796C27.0559 83.8641 26.9941 83.8487 26.9477 83.8332C26.8085 83.7868 26.6694 83.7559 26.5147 83.7095C26.422 83.6786 26.3292 83.6631 26.2364 83.6322C26.1127 83.6012 25.989 83.5549 25.8807 83.5239C25.7416 83.4775 25.6179 83.4311 25.4787 83.4002C25.3395 83.3538 25.2158 83.3074 25.0766 83.261C24.6746 83.1219 24.288 82.9672 23.886 82.8126C23.7777 82.7662 23.654 82.7198 23.5458 82.6734C23.3293 82.5807 23.0973 82.4879 22.8808 82.3951C22.7262 82.3332 22.5716 82.2559 22.4324 82.1941C22.2778 82.1168 22.1231 82.0549 21.9685 81.9776C21.8293 81.9157 21.6902 81.8384 21.551 81.7766C20.9634 81.4828 20.3758 81.1735 19.8191 80.8488C19.6954 80.7714 19.5562 80.6941 19.4325 80.6168C19.1387 80.4467 18.8449 80.2612 18.5511 80.0756C18.4274 79.9983 18.3037 79.921 18.18 79.8436C17.8707 79.6426 17.5615 79.4261 17.2677 79.2096C17.1285 79.1014 16.9893 79.0086 16.8347 78.9004C16.8192 78.8849 16.8038 78.8695 16.7728 78.854C16.6646 78.7767 16.5718 78.6994 16.4636 78.622C16.4326 78.5911 16.3862 78.5602 16.3553 78.5447C16.3244 78.5138 16.2935 78.4983 16.2471 78.4674C16.1079 78.3592 15.9687 78.2509 15.8296 78.1427C15.7522 78.0808 15.6595 78.019 15.5822 77.9417C15.5048 77.8798 15.4275 77.8179 15.3502 77.7406C15.2729 77.6788 15.1801 77.6015 15.1028 77.5396C15.0409 77.4932 14.9945 77.4468 14.9327 77.4004C14.9172 77.4004 14.9172 77.385 14.9018 77.3695C14.8399 77.3077 14.7626 77.2458 14.7007 77.1994C14.4688 76.9984 14.2523 76.7974 14.0204 76.5809C13.943 76.519 13.8657 76.4417 13.8039 76.3799C9.04116 71.8336 5.70108 65.8184 4.5104 59.0609C4.18567 57.2672 4.03104 55.427 4.03104 53.5405V18.4387H14.8554V51.3911C14.809 52.1333 14.7781 52.8756 14.7781 53.6178C14.7781 59.4939 16.3862 64.9988 19.1851 69.6997C22.8808 75.9314 28.6641 80.7714 35.5763 83.2765C37.1999 83.8332 38.9318 84.2971 40.6946 84.6218Z" fill="white"/>
<path d="M66.673 48.3449C66.3638 50.0923 65.8999 51.7778 65.3123 53.4169C62.8381 60.2981 58.029 66.0813 51.8437 69.808C47.9315 72.1584 43.4626 73.6893 38.6844 74.1532C47.715 72.8234 54.8436 65.6793 56.1889 56.6642C56.3126 55.8446 56.3899 55.0096 56.4054 54.1746C56.4054 54.0818 56.4054 54.0045 56.4054 53.9117C56.4054 53.8035 56.4054 53.6952 56.4054 53.587V53.4942C56.4054 53.4323 56.4054 53.3705 56.4054 53.3086C56.3899 52.3654 56.3126 51.4221 56.1889 50.5098C55.7095 45.5306 54.0704 40.8916 51.5499 36.8556C47.8387 30.9332 42.21 26.3251 35.5453 23.8974C33.7516 23.2479 31.8805 22.7531 29.9631 22.4438C30.0404 22.4283 30.1332 22.4129 30.226 22.3974C31.9578 22.1036 33.7361 21.949 35.5608 21.949C37.3855 21.949 39.1638 22.1036 40.8957 22.3974C40.9884 22.4129 41.0658 22.4283 41.1585 22.4438C49.3232 23.9128 56.4054 28.5209 61.0908 34.9691C63.7041 38.5721 65.5751 42.7317 66.472 47.247C66.5493 47.6181 66.6112 47.9738 66.673 48.3449Z" fill="white"/>
<path d="M56.2044 50.5097C54.72 40.474 46.076 32.7733 35.6227 32.7733C32.0043 32.7733 28.6178 33.7011 25.6489 35.3247V23.5417C27.0406 23.0778 28.4787 22.7221 29.9632 22.4592C31.8961 22.784 33.7517 23.2633 35.5454 23.9128C42.2256 26.3251 47.8388 30.9331 51.55 36.8711C54.086 40.8915 55.7251 45.5305 56.2044 50.5097Z" fill="white"/>
<path d="M67.0905 53.4167V53.494C67.0905 53.6332 67.0905 53.7724 67.0905 53.8961C67.075 55.4733 66.9359 57.0351 66.6885 58.5505C64.5391 71.8335 54.1168 82.3331 40.8801 84.5908C40.8183 84.6063 40.7564 84.6063 40.6946 84.6217C38.9318 84.3125 37.1999 83.8486 35.5453 83.2455C28.6332 80.7404 22.8499 75.9004 19.1542 69.6687C16.3553 64.9678 14.7471 59.4629 14.7471 53.5868C14.7471 52.8446 14.778 52.1023 14.8244 51.3601V53.5868C14.8244 64.04 22.5252 72.684 32.5609 74.153C33.4732 74.2922 34.401 74.3695 35.3597 74.3695C35.3752 74.3695 35.3907 74.3695 35.4061 74.3695C35.4834 74.3695 35.5453 74.3695 35.6226 74.3695C36.1793 74.3695 36.7205 74.3541 37.2617 74.3077C37.7411 74.2767 38.2205 74.2149 38.6844 74.153C43.4625 73.6891 47.9314 72.1583 51.8437 69.8078C58.029 66.0966 62.8381 60.3133 65.3122 53.4167C65.8998 51.7776 66.3483 50.0921 66.673 48.3447C66.905 49.7364 67.0441 51.1745 67.075 52.6126C67.075 52.7672 67.0905 52.9219 67.0905 53.0765C67.0905 53.2002 67.0905 53.3085 67.0905 53.4167Z" fill="white"/>
<path d="M13.2363 98.8553C13.9507 99.0594 14.5007 99.4223 14.8863 99.9439C15.2718 100.454 15.4646 101.078 15.4646 101.815C15.4646 102.484 15.2888 103.068 14.9373 103.567C14.5857 104.066 14.0811 104.451 13.4234 104.724C12.7771 104.996 12.0116 105.132 11.1271 105.132H5.08868V93.0209H10.974C12.2441 93.0209 13.2533 93.3044 14.0018 93.8714C14.7502 94.4384 15.1244 95.2039 15.1244 96.1677C15.1244 96.7914 14.96 97.3414 14.6311 97.8177C14.3023 98.2939 13.8373 98.6398 13.2363 98.8553ZM8.20145 97.7666H10.4297C11.0194 97.7666 11.4503 97.6759 11.7225 97.4945C11.9946 97.3131 12.1307 97.0239 12.1307 96.627C12.1307 96.2188 11.9889 95.9183 11.7054 95.7255C11.4333 95.5327 11.008 95.4363 10.4297 95.4363H8.20145V97.7666ZM10.7529 102.716C11.3653 102.716 11.8018 102.62 12.0626 102.427C12.3348 102.235 12.4709 101.911 12.4709 101.458C12.4709 100.993 12.3405 100.664 12.0797 100.471C11.8188 100.278 11.3766 100.182 10.7529 100.182H8.20145V102.716H10.7529ZM21.3865 105.268C20.4226 105.268 19.5834 105.086 18.869 104.724C18.1546 104.361 17.6047 103.839 17.2191 103.159C16.8336 102.478 16.6408 101.679 16.6408 100.76C16.6408 99.8418 16.8336 99.0424 17.2191 98.362C17.6047 97.6816 18.1546 97.16 18.869 96.7971C19.5834 96.4342 20.4226 96.2528 21.3865 96.2528C22.339 96.2528 23.1668 96.4399 23.8699 96.8141C24.5843 97.177 25.1343 97.6986 25.5198 98.379C25.9054 99.048 26.0982 99.8418 26.0982 100.76C26.0982 101.679 25.9054 102.478 25.5198 103.159C25.1343 103.828 24.5843 104.349 23.8699 104.724C23.1668 105.086 22.339 105.268 21.3865 105.268ZM21.3865 102.972C22.4978 102.972 23.0534 102.235 23.0534 100.76C23.0534 100.012 22.9117 99.4619 22.6282 99.1104C22.356 98.7475 21.9421 98.5661 21.3865 98.5661C20.8195 98.5661 20.3942 98.7475 20.1107 99.1104C19.8273 99.4619 19.6855 100.012 19.6855 100.76C19.6855 101.52 19.8273 102.081 20.1107 102.444C20.3942 102.796 20.8195 102.972 21.3865 102.972ZM32.0713 105.268C31.1075 105.268 30.2683 105.086 29.5539 104.724C28.8395 104.361 28.2895 103.839 27.904 103.159C27.5184 102.478 27.3256 101.679 27.3256 100.76C27.3256 99.8418 27.5184 99.0424 27.904 98.362C28.2895 97.6816 28.8395 97.16 29.5539 96.7971C30.2683 96.4342 31.1075 96.2528 32.0713 96.2528C33.0239 96.2528 33.8517 96.4399 34.5548 96.8141C35.2692 97.177 35.8191 97.6986 36.2047 98.379C36.5902 99.048 36.783 99.8418 36.783 100.76C36.783 101.679 36.5902 102.478 36.2047 103.159C35.8191 103.828 35.2692 104.349 34.5548 104.724C33.8517 105.086 33.0239 105.268 32.0713 105.268ZM32.0713 102.972C33.1826 102.972 33.7383 102.235 33.7383 100.76C33.7383 100.012 33.5965 99.4619 33.313 99.1104C33.0409 98.7475 32.627 98.5661 32.0713 98.5661C31.5044 98.5661 31.0791 98.7475 30.7956 99.1104C30.5121 99.4619 30.3704 100.012 30.3704 100.76C30.3704 101.52 30.5121 102.081 30.7956 102.444C31.0791 102.796 31.5044 102.972 32.0713 102.972ZM44.4232 105.132L41.4805 101.407V105.132H38.4017V92.6127H41.4805V100.097L44.3721 96.5079H48.0122L44.6103 100.641L48.1483 105.132H44.4232Z" fill="white"/>
<path d="M55.0353 93.0209H58.2332V105.132H55.0353V93.0209ZM65.5202 102.785C65.7243 102.785 65.9965 102.75 66.3367 102.682V105.013C65.9171 105.183 65.3841 105.268 64.7378 105.268C63.5698 105.268 62.6796 104.939 62.0672 104.281C61.4662 103.624 61.1657 102.711 61.1657 101.543V98.7532H59.5498V96.4909H61.1657V94.5348L64.2445 93.5482V96.4909H66.3197V98.7532H64.2445V101.543C64.2445 101.951 64.3635 102.263 64.6017 102.478C64.8512 102.682 65.1573 102.785 65.5202 102.785Z" fill="#FF0066"/>
<defs>
<linearGradient id="paint0_linear" x1="15.5753" y1="78.015" x2="15.8382" y2="78.015" gradientUnits="userSpaceOnUse">
<stop stop-color="white"/>
<stop offset="1"/>
</linearGradient>
</defs>
</svg>
