<svg width="56" height="65" viewBox="0 0 56 65" fill="none" xmlns="http://www.w3.org/2000/svg">
<path d="M27.9166 47.5436C32.0605 47.5436 35.4198 44.1843 35.4198 40.0403C35.4198 35.8964 32.0605 32.5371 27.9166 32.5371C23.7727 32.5371 20.4134 35.8964 20.4134 40.0403C20.4134 44.1843 23.7727 47.5436 27.9166 47.5436Z" fill="#FF0066"/>
<path d="M8.10344 9.20666C10.3696 9.20666 12.2068 7.36953 12.2068 5.10333C12.2068 2.83712 10.3696 1 8.10344 1C5.83723 1 4.00011 2.83712 4.00011 5.10333C4.00011 7.36953 5.83723 9.20666 8.10344 9.20666Z" fill="url(#paint0_linear)"/>
<path d="M12.9804 58.7164C12.9452 58.6929 12.9101 58.6695 12.8866 58.6343C12.8515 58.6109 12.8163 58.5757 12.7928 58.5522C12.8397 58.6109 12.9101 58.6578 12.9804 58.7164Z" fill="url(#paint1_linear)"/>
<path d="M12.5937 58.3997C12.6874 58.4817 12.7812 58.5521 12.875 58.6341C12.9102 58.6576 12.9454 58.6928 12.9688 58.7162C13.004 58.7514 13.0509 58.7748 13.0861 58.81C13.1447 58.8569 13.215 58.9038 13.2736 58.9507C13.1681 58.8686 13.0626 58.7865 12.9571 58.7045C12.8985 58.6576 12.8281 58.6107 12.7695 58.5521C12.7109 58.5052 12.6523 58.4466 12.5937 58.3997Z" fill="#FF0000"/>
<path d="M13.2853 58.9509C13.2971 58.9509 13.2971 58.9627 13.3088 58.9627C13.2971 58.9627 13.2853 58.9627 13.2853 58.9509ZM13.2971 58.9627C13.3205 58.9744 13.3322 58.9978 13.3557 59.0095C13.3791 59.033 13.4143 59.0564 13.4377 59.0799C13.3909 59.0447 13.344 58.9978 13.2971 58.9627ZM13.4495 59.0799C16.4508 61.366 20.0031 62.9605 23.8837 63.617C23.9305 63.6287 23.9774 63.6287 24.0243 63.6404C24.7864 63.7694 25.5719 63.8515 26.3574 63.8984C26.3456 63.8984 26.3339 63.8984 26.3339 63.8984C26.2284 63.8866 26.1229 63.8866 26.0174 63.8749C25.8884 63.8632 25.7595 63.8515 25.6305 63.8398C25.4781 63.828 25.3374 63.8046 25.1967 63.7929C25.1029 63.7811 25.0209 63.7694 24.9388 63.7577C24.8333 63.746 24.7278 63.7342 24.6223 63.7108C24.5636 63.6991 24.505 63.6991 24.4581 63.6873C24.3174 63.6639 24.1885 63.6522 24.0595 63.6287C24.0126 63.617 23.9657 63.617 23.9188 63.6053C23.8485 63.5936 23.7781 63.5818 23.7078 63.5701C23.6375 63.5584 23.5671 63.5467 23.4968 63.5349C23.3561 63.5115 23.2154 63.4763 23.0864 63.4529C22.9692 63.4294 22.8402 63.406 22.723 63.3708C22.5706 63.3356 22.4182 63.3005 22.2658 63.2653C22.1251 63.2301 21.9844 63.1949 21.8437 63.1598C21.7265 63.1246 21.6092 63.1012 21.5037 63.066C21.4686 63.0543 21.4217 63.0425 21.3865 63.0308C21.281 62.9956 21.1755 62.9722 21.0582 62.937C20.9879 62.9136 20.9175 62.9018 20.8472 62.8784C20.7534 62.855 20.6596 62.8198 20.5775 62.7963C20.472 62.7612 20.3782 62.726 20.2727 62.6908C20.1672 62.6557 20.0734 62.6205 19.9679 62.5853C19.6631 62.4798 19.37 62.3626 19.0652 62.2453C18.9831 62.2101 18.8893 62.175 18.8072 62.1398C18.6431 62.0695 18.4673 61.9991 18.3031 61.9288C18.1859 61.8819 18.0686 61.8233 17.9631 61.7764C17.8459 61.7177 17.7287 61.6709 17.6114 61.6122C17.5059 61.5653 17.4004 61.5067 17.2949 61.4598C16.8494 61.2371 16.4039 61.0026 15.9818 60.7564C15.888 60.6978 15.7825 60.6392 15.6887 60.5805C15.466 60.4516 15.2432 60.3109 15.0205 60.1702C14.9267 60.1116 14.8329 60.053 14.7508 59.9943C14.2936 59.7013 13.8598 59.3964 13.4495 59.0799ZM26.3574 63.8984C26.4277 63.8984 26.4863 63.9101 26.5567 63.9101C26.4863 63.9101 26.4277 63.9101 26.3574 63.8984Z" fill="#FF0000"/>
<path d="M26.5567 63.9099C26.6739 63.9216 26.7794 63.9216 26.8849 63.9216C26.7677 63.9216 26.6622 63.9216 26.5567 63.9099ZM26.8732 63.9334C26.9553 63.9334 27.0256 63.9451 27.1077 63.9451C27.0373 63.9334 26.9553 63.9334 26.8732 63.9334Z" fill="#FF0000"/>
<path d="M31.8206 63.6403C30.6482 63.8396 29.4524 63.9451 28.2331 63.9568C28.1276 63.9568 28.0221 63.9568 27.9283 63.9568C27.8462 63.9568 27.7642 63.9568 27.6821 63.9568C27.5883 63.9568 27.4945 63.9568 27.4007 63.9568C27.3069 63.9568 27.2131 63.9568 27.1311 63.9451C26.9435 63.9451 26.7559 63.9333 26.5683 63.9216C26.498 63.9216 26.4159 63.9099 26.3456 63.9099C26.2401 63.8982 26.1345 63.8982 26.029 63.8865C25.9001 63.8747 25.7711 63.863 25.6422 63.8513C25.4897 63.8396 25.3491 63.8161 25.2084 63.8044C25.1146 63.7927 25.0325 63.7809 24.9504 63.7692C24.8449 63.7575 24.7394 63.7458 24.6339 63.7223C24.5753 63.7106 24.5167 63.7106 24.4698 63.6989C24.3291 63.6754 24.2001 63.6637 24.0712 63.6403C24.0243 63.6285 23.9774 63.6285 23.9305 63.6168C23.8601 63.6051 23.7898 63.5934 23.7194 63.5816C23.6491 63.5699 23.5788 63.5582 23.5084 63.5465C23.3677 63.523 23.227 63.4996 23.0981 63.4644C22.9808 63.4409 22.8519 63.4175 22.7346 63.3823C22.5822 63.3472 22.4298 63.312 22.2774 63.2768C22.1367 63.2416 21.996 63.2065 21.8554 63.1713C21.7381 63.1361 21.6209 63.1127 21.5154 63.0775C21.4802 63.0658 21.4333 63.0541 21.3981 63.0423C21.2926 63.0072 21.1871 62.9837 21.0699 62.9486C20.9995 62.9251 20.9292 62.9134 20.8588 62.8899C20.7651 62.8665 20.6713 62.8313 20.5892 62.8079C20.4837 62.7727 20.3899 62.7375 20.2844 62.7141C20.1789 62.6789 20.0851 62.6437 19.9796 62.6086C19.6747 62.503 19.3816 62.3858 19.0768 62.2686C18.9948 62.2334 18.901 62.1982 18.8189 62.1631C18.6548 62.0927 18.4789 62.0224 18.3148 61.952C18.1975 61.9051 18.0803 61.8465 17.9748 61.7996C17.8575 61.741 17.7403 61.6941 17.6231 61.6355C17.5176 61.5886 17.412 61.53 17.3065 61.4831C16.861 61.2603 16.4155 61.0258 15.9935 60.7796C15.8997 60.721 15.7942 60.6624 15.7004 60.6038C15.4776 60.4748 15.2549 60.3341 15.0321 60.1935C14.9383 60.1348 14.8445 60.0762 14.7507 60.0176C14.5163 59.8652 14.2818 59.7011 14.059 59.5369C13.9535 59.4549 13.848 59.3845 13.7308 59.3024C13.719 59.2907 13.7073 59.279 13.6839 59.2673C13.6018 59.2087 13.5315 59.15 13.4494 59.0914C13.426 59.068 13.3908 59.0445 13.3673 59.0328C13.3439 59.0094 13.3204 58.9976 13.2853 58.9742C13.1798 58.8921 13.0742 58.81 12.9687 58.728C12.9101 58.6811 12.8398 58.6342 12.7811 58.5756C12.7225 58.5287 12.6639 58.4818 12.6053 58.4232C12.5467 58.3763 12.4763 58.3176 12.4177 58.2708C12.3708 58.2356 12.3356 58.2004 12.2887 58.1652C12.277 58.1652 12.277 58.1535 12.2653 58.1418C12.2184 58.0949 12.1598 58.048 12.1129 58.0128C11.937 57.8604 11.7729 57.708 11.597 57.5439C11.5384 57.497 11.4798 57.4384 11.4329 57.3915C7.82198 53.9447 5.28964 49.3841 4.38691 44.2608C4.14071 42.9009 4.02347 41.5057 4.02347 40.0754V13.4624H12.2301V38.4458C12.195 39.0086 12.1715 39.5713 12.1715 40.134C12.1715 44.5891 13.3908 48.7628 15.5128 52.3268C18.3148 57.0515 22.6995 60.721 27.94 62.6203C29.171 63.0423 30.4841 63.3941 31.8206 63.6403Z" fill="url(#paint2_linear)"/>
<path d="M51.5166 36.1363C51.2821 37.4611 50.9304 38.739 50.4849 39.9817C48.6091 45.1988 44.963 49.5835 40.2734 52.4089C37.3073 54.1909 33.9191 55.3516 30.2965 55.7033C37.1432 54.6951 42.5479 49.2787 43.5678 42.4437C43.6616 41.8223 43.7202 41.1893 43.732 40.5562C43.732 40.4858 43.732 40.4272 43.732 40.3569C43.732 40.2748 43.732 40.1927 43.732 40.1107V40.0403C43.732 39.9934 43.732 39.9465 43.732 39.8996C43.7202 39.1845 43.6616 38.4693 43.5678 37.7776C43.2044 34.0026 41.9617 30.4854 40.0507 27.4255C37.237 22.9353 32.9695 19.4416 27.9166 17.601C26.5566 17.1086 25.138 16.7334 23.6843 16.4989C23.7429 16.4872 23.8132 16.4755 23.8836 16.4638C25.1966 16.241 26.5449 16.1238 27.9283 16.1238C29.3117 16.1238 30.6599 16.241 31.973 16.4638C32.0433 16.4755 32.102 16.4872 32.1723 16.4989C38.3625 17.6127 43.732 21.1064 47.2843 25.9952C49.2656 28.7269 50.6842 31.8806 51.3642 35.3039C51.4228 35.5853 51.4697 35.8549 51.5166 36.1363Z" fill="url(#paint3_linear)"/>
<path d="M43.5796 37.7777C42.4541 30.169 35.9005 24.3305 27.9752 24.3305C25.2319 24.3305 22.6643 25.0339 20.4134 26.2649V17.3314C21.4685 16.9797 22.5588 16.71 23.6843 16.5107C25.1498 16.7569 26.5566 17.1204 27.9166 17.6128C32.9813 19.4417 37.237 22.9354 40.0507 27.4373C41.9734 30.4855 43.2162 34.0026 43.5796 37.7777Z" fill="url(#paint4_linear)"/>
<path d="M51.8331 39.9816V40.0403C51.8331 40.1458 51.8331 40.2513 51.8331 40.3451C51.8214 41.5409 51.7159 42.725 51.5283 43.8739C49.8987 53.9447 41.9968 61.9051 31.9613 63.6168C31.9144 63.6285 31.8675 63.6285 31.8206 63.6403C30.4841 63.4058 29.171 63.0541 27.9165 62.5968C22.676 60.6976 18.2913 57.028 15.4893 52.3033C13.3673 48.7393 12.148 44.5656 12.148 40.1106C12.148 39.5479 12.1715 38.9851 12.2067 38.4224V40.1106C12.2067 48.0359 18.0451 54.5895 25.6539 55.7032C26.3456 55.8088 27.049 55.8674 27.7759 55.8674C27.7876 55.8674 27.7993 55.8674 27.811 55.8674C27.8697 55.8674 27.9165 55.8674 27.9752 55.8674C28.3972 55.8674 28.8076 55.8557 29.2179 55.8205C29.5813 55.797 29.9448 55.7501 30.2965 55.7032C33.9191 55.3515 37.3073 54.1909 40.2734 52.4089C44.9629 49.5951 48.609 45.2104 50.4849 39.9816C50.9304 38.7389 51.2703 37.461 51.5165 36.1362C51.6924 37.1914 51.7979 38.2817 51.8214 39.372C51.8214 39.4892 51.8331 39.6065 51.8331 39.7237C51.8331 39.8175 51.8331 39.8996 51.8331 39.9816Z" fill="url(#paint5_linear)"/>
<defs>
<linearGradient id="paint0_linear" x1="2.93172" y1="1.18744" x2="4.12301" y2="11.3024" gradientUnits="userSpaceOnUse">
<stop stop-color="#6F0DBC"/>
<stop offset="0.479167" stop-color="#4A7ADA"/>
<stop offset="1" stop-color="#74A2FF"/>
</linearGradient>
<linearGradient id="paint1_linear" x1="12.7759" y1="58.6314" x2="12.9752" y2="58.6314" gradientUnits="userSpaceOnUse">
<stop stop-color="white"/>
<stop offset="1"/>
</linearGradient>
<linearGradient id="paint2_linear" x1="0.404676" y1="14.6157" x2="13.3134" y2="74.9534" gradientUnits="userSpaceOnUse">
<stop stop-color="#6F0DBC"/>
<stop offset="0.608987" stop-color="#4A7ADA"/>
<stop offset="1" stop-color="#74A2FF"/>
</linearGradient>
<linearGradient id="paint3_linear" x1="31.5509" y1="16.1238" x2="38.2921" y2="55.7502" gradientUnits="userSpaceOnUse">
<stop stop-color="#6F0DBC"/>
<stop offset="0.479167" stop-color="#4A7ADA"/>
<stop offset="1" stop-color="#74A2FF"/>
</linearGradient>
<linearGradient id="paint4_linear" x1="20.4134" y1="27.1504" x2="43.5796" y2="27.1504" gradientUnits="userSpaceOnUse">
<stop stop-color="#6F0DBC"/>
<stop offset="0.479167" stop-color="#4A7ADA"/>
<stop offset="1" stop-color="#74A2FF"/>
</linearGradient>
<linearGradient id="paint5_linear" x1="17.541" y1="59.4431" x2="53.5917" y2="37.6955" gradientUnits="userSpaceOnUse">
<stop stop-color="#6F0DBC"/>
<stop offset="0.479167" stop-color="#4A7ADA"/>
<stop offset="1" stop-color="#74A2FF"/>
</linearGradient>
</defs>
</svg>
