<svg width="114" height="193" viewBox="0 0 114 193" fill="none" xmlns="http://www.w3.org/2000/svg">
<path d="M56.8352 110.246C66.6507 110.246 74.6078 102.289 74.6078 92.4733C74.6078 82.6578 66.6507 74.7007 56.8352 74.7007C47.0196 74.7007 39.0625 82.6578 39.0625 92.4733C39.0625 102.289 47.0196 110.246 56.8352 110.246Z" fill="#FF0066"/>
<path d="M9.90497 19.4388C15.2729 19.4388 19.6244 15.0873 19.6244 9.71942C19.6244 4.35153 15.2729 0 9.90497 0C4.53708 0 0.185547 4.35153 0.185547 9.71942C0.185547 15.0873 4.53708 19.4388 9.90497 19.4388Z" fill="url(#paint0_linear)"/>
<path d="M21.457 136.711C21.3737 136.655 21.2904 136.6 21.2349 136.516C21.1515 136.461 21.0682 136.378 21.0127 136.322C21.1238 136.461 21.2904 136.572 21.457 136.711Z" fill="url(#paint1_linear)"/>
<path d="M20.541 135.961C20.7632 136.155 20.9853 136.322 21.2075 136.516C21.2908 136.572 21.3741 136.655 21.4296 136.711C21.513 136.794 21.624 136.85 21.7073 136.933C21.8462 137.044 22.0128 137.155 22.1517 137.266C21.9017 137.072 21.6518 136.877 21.4019 136.683C21.263 136.572 21.0964 136.461 20.9576 136.322C20.8187 136.211 20.6799 136.072 20.541 135.961Z" fill="#FF0000"/>
<path d="M22.1787 137.266C22.2065 137.266 22.2065 137.294 22.2343 137.294C22.2065 137.294 22.1787 137.294 22.1787 137.266ZM22.2065 137.294C22.262 137.322 22.2898 137.377 22.3453 137.405C22.4009 137.461 22.4842 137.516 22.5397 137.572C22.4286 137.488 22.3176 137.377 22.2065 137.294ZM22.5675 137.572C29.6766 142.987 38.0908 146.763 47.2826 148.318C47.3937 148.346 47.5048 148.346 47.6158 148.374C49.4209 148.679 51.2814 148.874 53.142 148.985C53.1143 148.985 53.0865 148.985 53.0865 148.985C52.8366 148.957 52.5866 148.957 52.3367 148.929C52.0312 148.902 51.7258 148.874 51.4203 148.846C51.0593 148.818 50.7261 148.763 50.3928 148.735C50.1707 148.707 49.9763 148.679 49.7819 148.652C49.532 148.624 49.282 148.596 49.0321 148.541C48.8932 148.513 48.7544 148.513 48.6433 148.485C48.3101 148.43 48.0046 148.402 47.6991 148.346C47.5881 148.318 47.477 148.318 47.3659 148.291C47.1993 148.263 47.0327 148.235 46.8661 148.207C46.6994 148.18 46.5328 148.152 46.3662 148.124C46.033 148.069 45.6997 147.985 45.3943 147.93C45.1166 147.874 44.8111 147.819 44.5334 147.735C44.1724 147.652 43.8114 147.569 43.4504 147.485C43.1171 147.402 42.7839 147.319 42.4507 147.235C42.173 147.152 41.8953 147.097 41.6453 147.013C41.562 146.986 41.4509 146.958 41.3676 146.93C41.1177 146.847 40.8678 146.791 40.5901 146.708C40.4235 146.652 40.2568 146.625 40.0902 146.569C39.8681 146.513 39.6459 146.43 39.4515 146.375C39.2016 146.291 38.9794 146.208 38.7295 146.125C38.4796 146.041 38.2574 145.958 38.0075 145.875C37.2855 145.625 36.5912 145.347 35.8692 145.069C35.6748 144.986 35.4527 144.903 35.2583 144.819C34.8695 144.653 34.453 144.486 34.0642 144.32C33.7865 144.209 33.5088 144.07 33.2589 143.959C32.9812 143.82 32.7035 143.709 32.4258 143.57C32.1758 143.459 31.9259 143.32 31.676 143.209C30.6207 142.681 29.5655 142.126 28.5658 141.543C28.3436 141.404 28.0937 141.265 27.8715 141.126C27.3439 140.821 26.8163 140.487 26.2886 140.154C26.0665 140.015 25.8443 139.876 25.6499 139.738C24.5669 139.043 23.5394 138.321 22.5675 137.572ZM53.142 148.985C53.3086 148.985 53.4475 149.013 53.6141 149.013C53.4475 149.013 53.3086 149.013 53.142 148.985Z" fill="#FF0000"/>
<path d="M53.6143 149.013C53.892 149.04 54.1419 149.04 54.3918 149.04C54.1141 149.04 53.8642 149.04 53.6143 149.013ZM54.364 149.068C54.5584 149.068 54.7251 149.096 54.9194 149.096C54.7528 149.068 54.5584 149.068 54.364 149.068Z" fill="#FF0000"/>
<path d="M66.0824 148.374C63.3054 148.846 60.4729 149.096 57.5848 149.124C57.3349 149.124 57.085 149.124 56.8628 149.124C56.6684 149.124 56.4741 149.124 56.2797 149.124C56.0575 149.124 55.8354 149.124 55.6132 149.124C55.391 149.124 55.1689 149.124 54.9745 149.096C54.5302 149.096 54.0858 149.068 53.6415 149.041C53.4749 149.041 53.2805 149.013 53.1139 149.013C52.864 148.985 52.6141 148.985 52.3641 148.957C52.0587 148.93 51.7532 148.902 51.4477 148.874C51.0867 148.846 50.7535 148.791 50.4202 148.763C50.1981 148.735 50.0037 148.707 49.8093 148.68C49.5594 148.652 49.3094 148.624 49.0595 148.569C48.9207 148.541 48.7818 148.541 48.6707 148.513C48.3375 148.458 48.032 148.43 47.7266 148.374C47.6155 148.346 47.5044 148.346 47.3933 148.319C47.2267 148.291 47.0601 148.263 46.8935 148.235C46.7269 148.208 46.5602 148.18 46.3936 148.152C46.0604 148.097 45.7271 148.041 45.4217 147.958C45.144 147.902 44.8385 147.847 44.5608 147.763C44.1998 147.68 43.8388 147.597 43.4778 147.513C43.1446 147.43 42.8113 147.347 42.4781 147.263C42.2004 147.18 41.9227 147.125 41.6728 147.041C41.5894 147.013 41.4784 146.986 41.3951 146.958C41.1451 146.875 40.8952 146.819 40.6175 146.736C40.4509 146.68 40.2843 146.652 40.1176 146.597C39.8955 146.541 39.6733 146.458 39.4789 146.403C39.229 146.319 39.0069 146.236 38.7569 146.18C38.507 146.097 38.2848 146.014 38.0349 145.93C37.3129 145.681 36.6187 145.403 35.8966 145.125C35.7023 145.042 35.4801 144.959 35.2857 144.875C34.8969 144.709 34.4804 144.542 34.0916 144.375C33.8139 144.264 33.5362 144.125 33.2863 144.014C33.0086 143.876 32.7309 143.764 32.4532 143.626C32.2033 143.515 31.9533 143.376 31.7034 143.265C30.6482 142.737 29.5929 142.182 28.5932 141.598C28.371 141.46 28.1211 141.321 27.8989 141.182C27.3713 140.876 26.8437 140.543 26.3161 140.21C26.0939 140.071 25.8717 139.932 25.6496 139.793C25.0942 139.432 24.5388 139.044 24.0112 138.655C23.7612 138.46 23.5113 138.294 23.2336 138.099C23.2058 138.072 23.1781 138.044 23.1225 138.016C22.9282 137.877 22.7615 137.738 22.5671 137.6C22.5116 137.544 22.4283 137.488 22.3728 137.461C22.3172 137.405 22.2617 137.377 22.1784 137.322C21.9284 137.127 21.6785 136.933 21.4286 136.739C21.2897 136.628 21.1231 136.517 20.9843 136.378C20.8454 136.267 20.7066 136.156 20.5677 136.017C20.4289 135.906 20.2623 135.767 20.1234 135.656C20.0123 135.572 19.929 135.489 19.8179 135.406C19.7902 135.406 19.7902 135.378 19.7624 135.35C19.6513 135.239 19.5125 135.128 19.4014 135.045C18.9848 134.684 18.5961 134.323 18.1795 133.934C18.0407 133.823 17.9018 133.684 17.7907 133.573C9.23765 125.409 3.23937 114.606 1.1011 102.471C0.517932 99.2495 0.240234 95.9449 0.240234 92.5569V29.5195H19.6791V88.6969C19.5958 90.0299 19.5402 91.3628 19.5402 92.6958C19.5402 103.248 22.4283 113.134 27.4546 121.576C34.0916 132.768 44.4775 141.46 56.8906 145.958C59.8064 146.958 62.9166 147.791 66.0824 148.374Z" fill="url(#paint2_linear)"/>
<path d="M112.736 83.2263C112.181 86.3643 111.348 89.3912 110.292 92.3348C105.849 104.692 97.2127 115.078 86.1048 121.771C79.079 125.992 71.0536 128.741 62.4727 129.574C78.6903 127.186 91.4921 114.356 93.9081 98.1664C94.1303 96.6946 94.2691 95.195 94.2969 93.6955C94.2969 93.5289 94.2969 93.39 94.2969 93.2234C94.2969 93.029 94.2969 92.8346 94.2969 92.6402V92.4736C94.2969 92.3625 94.2969 92.2514 94.2969 92.1404C94.2691 90.4464 94.1303 88.7525 93.9081 87.114C93.0472 78.1722 90.1036 69.8412 85.5772 62.5933C78.9124 51.9575 68.8042 43.6821 56.8354 39.3222C53.6141 38.1559 50.254 37.2673 46.8105 36.7119C46.9494 36.6841 47.116 36.6563 47.2826 36.6286C50.3929 36.1009 53.5864 35.8232 56.8632 35.8232C60.14 35.8232 63.3336 36.1009 66.4438 36.6286C66.6104 36.6563 66.7493 36.6841 66.9159 36.7119C81.5783 39.35 94.2969 47.6254 102.711 59.2054C107.404 65.6758 110.764 73.1458 112.375 81.2546C112.514 81.9211 112.625 82.5598 112.736 83.2263Z" fill="url(#paint3_linear)"/>
<path d="M93.9356 87.1139C91.2697 69.0913 75.7464 55.2619 56.974 55.2619C50.4759 55.2619 44.3943 56.9281 39.0625 59.844V38.6834C41.5618 37.8503 44.1444 37.2116 46.8103 36.7395C50.2815 37.3227 53.6139 38.1835 56.8352 39.3499C68.8317 43.6819 78.9121 51.9573 85.5769 62.6209C90.1311 69.8411 93.0747 78.172 93.9356 87.1139Z" fill="url(#paint4_linear)"/>
<path d="M113.486 92.3343V92.4732C113.486 92.7231 113.486 92.973 113.486 93.1952C113.458 96.0277 113.208 98.8324 112.764 101.554C108.904 125.408 90.1872 144.264 66.4163 148.318C66.3052 148.346 66.1941 148.346 66.0831 148.374C62.9173 147.818 59.8071 146.985 56.8357 145.902C44.4226 141.404 34.0367 132.712 27.3997 121.52C22.3734 113.078 19.4854 103.192 19.4854 92.6398C19.4854 91.3068 19.5409 89.9739 19.6242 88.6409V92.6398C19.6242 111.412 33.4536 126.935 51.4761 129.574C53.1146 129.824 54.7808 129.962 56.5025 129.962C56.5302 129.962 56.558 129.962 56.5858 129.962C56.7246 129.962 56.8357 129.962 56.9746 129.962C57.9743 129.962 58.9462 129.935 59.9182 129.851C60.779 129.796 61.6399 129.685 62.473 129.574C71.0538 128.741 79.0793 125.991 86.1051 121.77C97.213 115.106 105.849 104.72 110.293 92.3343C111.348 89.3907 112.153 86.3638 112.736 83.2258C113.153 85.7251 113.403 88.3077 113.458 90.8903C113.458 91.168 113.486 91.4457 113.486 91.7234C113.486 91.9455 113.486 92.1399 113.486 92.3343Z" fill="url(#paint5_linear)"/>
<path d="M16.7715 174.406C18.0544 174.773 19.0421 175.424 19.7345 176.361C20.4269 177.277 20.7731 178.397 20.7731 179.721C20.7731 180.923 20.4574 181.971 19.8261 182.867C19.1948 183.763 18.2886 184.456 17.1075 184.945C15.9467 185.433 14.5721 185.678 12.9837 185.678H2.13956V163.928H12.7087C14.9896 163.928 16.802 164.438 18.1461 165.456C19.4901 166.474 20.1622 167.849 20.1622 169.58C20.1622 170.7 19.8669 171.687 19.2763 172.543C18.6857 173.398 17.8508 174.019 16.7715 174.406ZM7.72962 172.451H11.7312C12.7902 172.451 13.5641 172.288 14.0528 171.962C14.5415 171.636 14.7859 171.117 14.7859 170.404C14.7859 169.671 14.5314 169.132 14.0223 168.785C13.5335 168.439 12.7698 168.266 11.7312 168.266H7.72962V172.451ZM12.3116 181.34C13.4113 181.34 14.1954 181.167 14.6637 180.821C15.1525 180.475 15.3969 179.894 15.3969 179.08C15.3969 178.245 15.1627 177.654 14.6943 177.308C14.2259 176.962 13.4317 176.789 12.3116 176.789H7.72962V181.34H12.3116ZM31.4079 185.922C29.6769 185.922 28.1699 185.596 26.887 184.945C25.604 184.293 24.6163 183.356 23.9239 182.134C23.2315 180.912 22.8853 179.477 22.8853 177.827C22.8853 176.178 23.2315 174.742 23.9239 173.52C24.6163 172.298 25.604 171.361 26.887 170.71C28.1699 170.058 29.6769 169.732 31.4079 169.732C33.1185 169.732 34.6051 170.068 35.8677 170.74C37.1507 171.392 38.1384 172.329 38.8308 173.551C39.5232 174.752 39.8694 176.178 39.8694 177.827C39.8694 179.477 39.5232 180.912 38.8308 182.134C38.1384 183.336 37.1507 184.273 35.8677 184.945C34.6051 185.596 33.1185 185.922 31.4079 185.922ZM31.4079 181.798C33.4036 181.798 34.4015 180.475 34.4015 177.827C34.4015 176.483 34.1469 175.495 33.6378 174.864C33.1491 174.213 32.4058 173.887 31.4079 173.887C30.3897 173.887 29.626 174.213 29.1169 174.864C28.6078 175.495 28.3532 176.483 28.3532 177.827C28.3532 179.192 28.6078 180.2 29.1169 180.851C29.626 181.483 30.3897 181.798 31.4079 181.798ZM50.5963 185.922C48.8653 185.922 47.3583 185.596 46.0754 184.945C44.7924 184.293 43.8047 183.356 43.1123 182.134C42.4199 180.912 42.0737 179.477 42.0737 177.827C42.0737 176.178 42.4199 174.742 43.1123 173.52C43.8047 172.298 44.7924 171.361 46.0754 170.71C47.3583 170.058 48.8653 169.732 50.5963 169.732C52.3069 169.732 53.7935 170.068 55.0561 170.74C56.3391 171.392 57.3267 172.329 58.0191 173.551C58.7115 174.752 59.0577 176.178 59.0577 177.827C59.0577 179.477 58.7115 180.912 58.0191 182.134C57.3267 183.336 56.3391 184.273 55.0561 184.945C53.7935 185.596 52.3069 185.922 50.5963 185.922ZM50.5963 181.798C52.592 181.798 53.5899 180.475 53.5899 177.827C53.5899 176.483 53.3353 175.495 52.8262 174.864C52.3374 174.213 51.5941 173.887 50.5963 173.887C49.5781 173.887 48.8144 174.213 48.3053 174.864C47.7962 175.495 47.5416 176.483 47.5416 177.827C47.5416 179.192 47.7962 180.2 48.3053 180.851C48.8144 181.483 49.5781 181.798 50.5963 181.798ZM72.7782 185.678L67.4936 178.988V185.678H61.9647V163.195H67.4936V176.636L72.6866 170.191H79.2236L73.1143 177.613L79.468 185.678H72.7782Z" fill="url(#paint6_linear)"/>
<path d="M16.7715 174.406C18.0544 174.773 19.0421 175.424 19.7345 176.361C20.4269 177.277 20.7731 178.397 20.7731 179.721C20.7731 180.923 20.4574 181.971 19.8261 182.867C19.1948 183.763 18.2886 184.456 17.1075 184.945C15.9467 185.433 14.5721 185.678 12.9837 185.678H2.13956V163.928H12.7087C14.9896 163.928 16.802 164.438 18.1461 165.456C19.4901 166.474 20.1622 167.849 20.1622 169.58C20.1622 170.7 19.8669 171.687 19.2763 172.543C18.6857 173.398 17.8508 174.019 16.7715 174.406ZM7.72962 172.451H11.7312C12.7902 172.451 13.5641 172.288 14.0528 171.962C14.5415 171.636 14.7859 171.117 14.7859 170.404C14.7859 169.671 14.5314 169.132 14.0223 168.785C13.5335 168.439 12.7698 168.266 11.7312 168.266H7.72962V172.451ZM12.3116 181.34C13.4113 181.34 14.1954 181.167 14.6637 180.821C15.1525 180.475 15.3969 179.894 15.3969 179.08C15.3969 178.245 15.1627 177.654 14.6943 177.308C14.2259 176.962 13.4317 176.789 12.3116 176.789H7.72962V181.34H12.3116ZM31.4079 185.922C29.6769 185.922 28.1699 185.596 26.887 184.945C25.604 184.293 24.6163 183.356 23.9239 182.134C23.2315 180.912 22.8853 179.477 22.8853 177.827C22.8853 176.178 23.2315 174.742 23.9239 173.52C24.6163 172.298 25.604 171.361 26.887 170.71C28.1699 170.058 29.6769 169.732 31.4079 169.732C33.1185 169.732 34.6051 170.068 35.8677 170.74C37.1507 171.392 38.1384 172.329 38.8308 173.551C39.5232 174.752 39.8694 176.178 39.8694 177.827C39.8694 179.477 39.5232 180.912 38.8308 182.134C38.1384 183.336 37.1507 184.273 35.8677 184.945C34.6051 185.596 33.1185 185.922 31.4079 185.922ZM31.4079 181.798C33.4036 181.798 34.4015 180.475 34.4015 177.827C34.4015 176.483 34.1469 175.495 33.6378 174.864C33.1491 174.213 32.4058 173.887 31.4079 173.887C30.3897 173.887 29.626 174.213 29.1169 174.864C28.6078 175.495 28.3532 176.483 28.3532 177.827C28.3532 179.192 28.6078 180.2 29.1169 180.851C29.626 181.483 30.3897 181.798 31.4079 181.798ZM50.5963 185.922C48.8653 185.922 47.3583 185.596 46.0754 184.945C44.7924 184.293 43.8047 183.356 43.1123 182.134C42.4199 180.912 42.0737 179.477 42.0737 177.827C42.0737 176.178 42.4199 174.742 43.1123 173.52C43.8047 172.298 44.7924 171.361 46.0754 170.71C47.3583 170.058 48.8653 169.732 50.5963 169.732C52.3069 169.732 53.7935 170.068 55.0561 170.74C56.3391 171.392 57.3267 172.329 58.0191 173.551C58.7115 174.752 59.0577 176.178 59.0577 177.827C59.0577 179.477 58.7115 180.912 58.0191 182.134C57.3267 183.336 56.3391 184.273 55.0561 184.945C53.7935 185.596 52.3069 185.922 50.5963 185.922ZM50.5963 181.798C52.592 181.798 53.5899 180.475 53.5899 177.827C53.5899 176.483 53.3353 175.495 52.8262 174.864C52.3374 174.213 51.5941 173.887 50.5963 173.887C49.5781 173.887 48.8144 174.213 48.3053 174.864C47.7962 175.495 47.5416 176.483 47.5416 177.827C47.5416 179.192 47.7962 180.2 48.3053 180.851C48.8144 181.483 49.5781 181.798 50.5963 181.798ZM72.7782 185.678L67.4936 178.988V185.678H61.9647V163.195H67.4936V176.636L72.6866 170.191H79.2236L73.1143 177.613L79.468 185.678H72.7782Z" fill="#3B3E6F" fill-opacity="0.3"/>
<path d="M91.8359 163.928H97.5786V185.678H91.8359V163.928ZM110.665 181.462C111.032 181.462 111.52 181.401 112.131 181.279V185.464C111.378 185.769 110.421 185.922 109.26 185.922C107.162 185.922 105.564 185.332 104.464 184.15C103.385 182.969 102.845 181.33 102.845 179.232V174.223H99.9432V170.16H102.845V166.647L108.374 164.875V170.16H112.101V174.223H108.374V179.232C108.374 179.965 108.588 180.526 109.016 180.912C109.464 181.279 110.013 181.462 110.665 181.462Z" fill="#FF0066"/>
<defs>
<linearGradient id="paint0_linear" x1="-2.34512" y1="0.443979" x2="0.476652" y2="24.4031" gradientUnits="userSpaceOnUse">
<stop stop-color="#6F0DBC"/>
<stop offset="0.479167" stop-color="#4A7ADA"/>
<stop offset="1" stop-color="#74A2FF"/>
</linearGradient>
<linearGradient id="paint1_linear" x1="20.9727" y1="136.509" x2="21.4447" y2="136.509" gradientUnits="userSpaceOnUse">
<stop stop-color="white"/>
<stop offset="1"/>
</linearGradient>
<linearGradient id="paint2_linear" x1="-8.33148" y1="32.2513" x2="22.245" y2="175.171" gradientUnits="userSpaceOnUse">
<stop stop-color="#6F0DBC"/>
<stop offset="0.608987" stop-color="#4A7ADA"/>
<stop offset="1" stop-color="#74A2FF"/>
</linearGradient>
<linearGradient id="paint3_linear" x1="65.4441" y1="35.8232" x2="81.4117" y2="129.685" gradientUnits="userSpaceOnUse">
<stop stop-color="#6F0DBC"/>
<stop offset="0.479167" stop-color="#4A7ADA"/>
<stop offset="1" stop-color="#74A2FF"/>
</linearGradient>
<linearGradient id="paint4_linear" x1="39.0625" y1="61.9413" x2="93.9356" y2="61.9413" gradientUnits="userSpaceOnUse">
<stop stop-color="#6F0DBC"/>
<stop offset="0.479167" stop-color="#4A7ADA"/>
<stop offset="1" stop-color="#74A2FF"/>
</linearGradient>
<linearGradient id="paint5_linear" x1="32.2595" y1="138.432" x2="117.652" y2="86.9192" gradientUnits="userSpaceOnUse">
<stop stop-color="#6F0DBC"/>
<stop offset="0.479167" stop-color="#4A7ADA"/>
<stop offset="1" stop-color="#74A2FF"/>
</linearGradient>
<linearGradient id="paint6_linear" x1="0.18457" y1="173.85" x2="78.7731" y2="173.85" gradientUnits="userSpaceOnUse">
<stop stop-color="#6F0DBC"/>
<stop offset="0.479167" stop-color="#4A7ADA"/>
<stop offset="1" stop-color="#74A2FF"/>
</linearGradient>
</defs>
</svg>
