<svg width="24" height="24" viewBox="0 0 24 24" fill="none" xmlns="http://www.w3.org/2000/svg">
<path d="M12.0037 1C10.0953 0.999358 8.21955 1.49523 6.56078 2.43889C4.902 3.38255 3.51728 4.74153 2.54265 6.3823C1.56803 8.02307 1.03704 9.88918 1.00187 11.7973C0.966696 13.7053 1.42855 15.5898 2.34204 17.2653L1.04037 21.8303C0.994569 21.9906 0.993348 22.1604 1.03684 22.3213C1.08033 22.4823 1.16689 22.6283 1.2872 22.7437C1.40751 22.8591 1.55701 22.9395 1.71962 22.9763C1.88223 23.013 2.05178 23.0048 2.21004 22.9523L6.49637 21.5242C7.95728 22.3684 9.59281 22.8652 11.2764 22.9762C12.9601 23.0872 14.6467 22.8094 16.2058 22.1642C17.7649 21.5191 19.1546 20.524 20.2676 19.2558C21.3806 17.9877 22.1869 16.4805 22.6242 14.8508C23.0615 13.2212 23.118 11.5128 22.7894 9.85781C22.4608 8.20283 21.7559 6.64562 20.7292 5.30665C19.7025 3.96768 18.3816 2.88284 16.8686 2.13606C15.3555 1.38927 13.691 1.00056 12.0037 1V1ZM8.33704 10.1667C8.33704 9.92355 8.43361 9.69039 8.60552 9.51849C8.77743 9.34658 9.01059 9.25 9.2537 9.25H14.7537C14.9968 9.25 15.23 9.34658 15.4019 9.51849C15.5738 9.69039 15.6704 9.92355 15.6704 10.1667C15.6704 10.4098 15.5738 10.6429 15.4019 10.8148C15.23 10.9868 14.9968 11.0833 14.7537 11.0833H9.2537C9.01059 11.0833 8.77743 10.9868 8.60552 10.8148C8.43361 10.6429 8.33704 10.4098 8.33704 10.1667ZM9.2537 12.9167H12.9204C13.1635 12.9167 13.3966 13.0132 13.5686 13.1852C13.7405 13.3571 13.837 13.5902 13.837 13.8333C13.837 14.0764 13.7405 14.3096 13.5686 14.4815C13.3966 14.6534 13.1635 14.75 12.9204 14.75H9.2537C9.01059 14.75 8.77743 14.6534 8.60552 14.4815C8.43361 14.3096 8.33704 14.0764 8.33704 13.8333C8.33704 13.5902 8.43361 13.3571 8.60552 13.1852C8.77743 13.0132 9.01059 12.9167 9.2537 12.9167V12.9167Z" fill="url(#paint0_linear)"/>
<defs>
<linearGradient id="paint0_linear" x1="-1.66065" y1="1" x2="24.8649" y2="2.67809" gradientUnits="userSpaceOnUse">
<stop stop-color="#FF0066"/>
<stop offset="1" stop-color="#FF1585"/>
</linearGradient>
</defs>
</svg>
