<svg width="48" height="48" viewBox="0 0 48 48" fill="none" xmlns="http://www.w3.org/2000/svg">
<path fill-rule="evenodd" clip-rule="evenodd" d="M23.7732 27.828L23.999 27.8281L24.5042 27.8298C28.3654 27.8552 37.1892 28.2453 37.1892 34.226C37.1892 40.1675 28.673 40.555 24.5644 40.5802L23.0422 40.5802C19.1808 40.5548 10.3552 40.1653 10.3552 34.192C10.3552 28.243 19.1808 27.8551 23.0422 27.8298L23.5474 27.8281C23.6257 27.828 23.7011 27.828 23.7732 27.828ZM23.7732 30.828C19.0212 30.828 13.3552 31.412 13.3552 34.192C13.3552 36.9091 18.683 37.5443 23.3389 37.5803L23.7732 37.582C28.5252 37.582 34.1892 37 34.1892 34.226C34.1892 31.418 28.5252 30.828 23.7732 30.828ZM39.6804 27.0164C44.5264 27.7424 45.5444 30.0184 45.5444 31.8004C45.5444 32.8884 45.1164 34.8744 42.2564 35.9644C42.0804 36.0304 41.9004 36.0624 41.7224 36.0624C41.1184 36.0624 40.5484 35.6944 40.3204 35.0964C40.0244 34.3224 40.4144 33.4544 41.1884 33.1604C42.5444 32.6444 42.5444 32.0744 42.5444 31.8004C42.5444 30.9244 41.4304 30.3124 39.2344 29.9844C38.4164 29.8604 37.8504 29.0984 37.9724 28.2764C38.0944 27.4564 38.8544 26.9104 39.6804 27.0164ZM9.572 28.2764C9.694 29.0984 9.128 29.8604 8.31 29.9844C6.114 30.3124 5 30.9244 5 31.8004C5 32.0744 5 32.6424 6.358 33.1604C7.132 33.4544 7.522 34.3224 7.226 35.0964C6.998 35.6944 6.428 36.0624 5.824 36.0624C5.646 36.0624 5.466 36.0304 5.29 35.9644C2.428 34.8724 2 32.8864 2 31.8004C2 30.0204 3.018 27.7424 7.866 27.0164C8.692 26.9124 9.448 27.4564 9.572 28.2764ZM23.7732 7C28.8132 7 32.9112 11.1 32.9112 16.138C32.9112 21.176 28.8132 25.276 23.7732 25.276H23.7192C21.2792 25.268 18.9932 24.312 17.2812 22.584C15.5652 20.858 14.6272 18.566 14.6371 16.132C14.6371 11.1 18.7352 7 23.7732 7ZM23.7732 10C20.3892 10 17.6372 12.754 17.6372 16.138C17.6312 17.778 18.2592 19.312 19.4092 20.47C20.5592 21.628 22.0912 22.27 23.7232 22.276L23.7732 23.776V22.276C27.1572 22.276 29.9112 19.524 29.9112 16.138C29.9112 12.754 27.1572 10 23.7732 10ZM36.1512 8.959C39.6672 9.537 42.2212 12.545 42.2212 16.111C42.2132 19.701 39.5312 22.781 35.9812 23.279C35.9112 23.289 35.8412 23.293 35.7732 23.293C35.0372 23.293 34.3952 22.751 34.2892 22.001C34.1752 21.179 34.7452 20.421 35.5672 20.307C37.6472 20.015 39.2172 18.211 39.2212 16.107C39.2212 14.021 37.7252 12.257 35.6632 11.919C34.8472 11.785 34.2932 11.013 34.4272 10.195C34.5632 9.377 35.3292 8.829 36.1512 8.959ZM13.1192 10.195C13.2532 11.013 12.6992 11.785 11.8832 11.919C9.8212 12.257 8.3252 14.021 8.3252 16.111C8.3292 18.211 9.8992 20.017 11.9772 20.307C12.7992 20.421 13.3692 21.179 13.2552 22.001C13.1492 22.751 12.5072 23.293 11.7712 23.293C11.7032 23.293 11.6332 23.289 11.5632 23.279C8.0132 22.781 5.3332 19.701 5.3252 16.115C5.3252 12.545 7.8792 9.537 11.3952 8.959C12.2372 8.827 12.9832 9.381 13.1192 10.195Z" fill="white"/>
</svg>
