<svg width="48" height="48" viewBox="0 0 48 48" fill="none" xmlns="http://www.w3.org/2000/svg">
<path d="M16.075 19.1276C16.6475 18.4973 17.5847 17.9 18.9625 17.9C20.8633 17.9 22.0876 19.2068 22.5182 20.6407C22.9357 22.0382 22.6832 23.7674 21.4952 24.9604C21.0832 25.3565 20.6462 25.7258 20.1868 26.0659L20.1208 26.117C19.6588 26.4734 19.2463 26.7968 18.8833 27.1565C18.4625 27.5789 18.1177 28.0393 17.918 28.625H21.4375C21.7657 28.625 22.0805 28.7554 22.3125 28.9875C22.5446 29.2196 22.675 29.5343 22.675 29.8625C22.675 30.1907 22.5446 30.5055 22.3125 30.7376C22.0805 30.9696 21.7657 31.1 21.4375 31.1H16.4875C16.1593 31.1 15.8445 30.9696 15.6125 30.7376C15.3804 30.5055 15.25 30.1907 15.25 29.8625C15.25 27.805 16.1146 26.4256 17.1376 25.4059C17.626 24.9175 18.1573 24.5066 18.6061 24.1585L18.611 24.1552C19.0829 23.7905 19.4492 23.5067 19.7413 23.2147C20.1901 22.7626 20.3468 22.0184 20.1472 21.3502C19.9574 20.7215 19.5367 20.375 18.9625 20.375C18.38 20.375 18.0797 20.6011 17.9065 20.7925C17.8051 20.9043 17.7227 21.032 17.6623 21.1703V21.1753C17.5612 21.4877 17.3401 21.7472 17.0477 21.8967C16.7553 22.0461 16.4155 22.0733 16.103 21.9722C15.7906 21.8711 15.5311 21.6501 15.3816 21.3577C15.2322 21.0652 15.205 20.7254 15.3061 20.413L15.3638 20.2546C15.5334 19.8407 15.7734 19.4594 16.0733 19.1276H16.075Z" fill="white"/>
<path d="M25.5625 17.9C25.8907 17.9 26.2054 18.0304 26.4375 18.2625C26.6696 18.4946 26.8 18.8093 26.8 19.1375V23.675H29.275V19.1375C29.275 18.8093 29.4053 18.4946 29.6374 18.2625C29.8695 18.0304 30.1842 17.9 30.5125 17.9C30.8407 17.9 31.1554 18.0304 31.3875 18.2625C31.6196 18.4946 31.75 18.8093 31.75 19.1375V29.813C31.75 30.1412 31.6196 30.456 31.3875 30.6881C31.1554 30.9201 30.8407 31.0505 30.5125 31.0505C30.1842 31.0505 29.8695 30.9201 29.6374 30.6881C29.4053 30.456 29.275 30.1412 29.275 29.813V26.15H25.5625C25.2342 26.15 24.9195 26.0196 24.6874 25.7876C24.4553 25.5555 24.325 25.2407 24.325 24.9125V19.1375C24.325 18.8093 24.4553 18.4946 24.6874 18.2625C24.9195 18.0304 25.2342 17.9 25.5625 17.9Z" fill="white"/>
<path d="M40 24.5C40 15.3871 32.6129 8 23.5 8C14.3871 8 7 15.3871 7 24.5C7 33.6129 14.3871 41 23.5 41C32.6129 41 40 33.6129 40 24.5ZM9.475 24.5C9.475 20.7803 10.9526 17.213 13.5828 14.5828C16.213 11.9526 19.7803 10.475 23.5 10.475C27.2197 10.475 30.787 11.9526 33.4172 14.5828C36.0474 17.213 37.525 20.7803 37.525 24.5C37.525 28.2197 36.0474 31.787 33.4172 34.4172C30.787 37.0474 27.2197 38.525 23.5 38.525C19.7803 38.525 16.213 37.0474 13.5828 34.4172C10.9526 31.787 9.475 28.2197 9.475 24.5Z" fill="white"/>
</svg>
