<svg width="48" height="48" viewBox="0 0 48 48" fill="none" xmlns="http://www.w3.org/2000/svg">
<path d="M31.1 11.3C30.6624 11.3 30.2427 11.1262 29.9333 10.8167C29.6238 10.5073 29.45 10.0876 29.45 9.65C29.45 9.21239 29.6238 8.79271 29.9333 8.48327C30.2427 8.17384 30.6624 8 31.1 8H37.7C38.1376 8 38.5573 8.17384 38.8667 8.48327C39.1762 8.79271 39.35 9.21239 39.35 9.65V16.25C39.35 16.6876 39.1762 17.1073 38.8667 17.4167C38.5573 17.7262 38.1376 17.9 37.7 17.9C37.2624 17.9 36.8427 17.7262 36.5333 17.4167C36.2238 17.1073 36.05 16.6876 36.05 16.25V13.6331L26.4915 23.1915C26.1821 23.5009 25.7625 23.6746 25.325 23.6746C24.8875 23.6746 24.4679 23.5009 24.1585 23.1915L19.55 18.5831L10.8165 27.3165C10.5054 27.6171 10.0886 27.7834 9.65594 27.7797C9.22331 27.7759 8.80947 27.6024 8.50355 27.2965C8.19763 26.9905 8.0241 26.5767 8.02034 26.1441C8.01658 25.7114 8.18289 25.2946 8.48345 24.9835L18.3835 15.0835C18.6929 14.7741 19.1125 14.6004 19.55 14.6004C19.9875 14.6004 20.4071 14.7741 20.7165 15.0835L25.325 19.6919L33.7169 11.3H31.1ZM11.3 34.4V39.35C11.3 39.7876 11.1262 40.2073 10.8167 40.5167C10.5073 40.8262 10.0876 41 9.65 41C9.21239 41 8.79271 40.8262 8.48327 40.5167C8.17384 40.2073 8 39.7876 8 39.35V34.4C8 33.9624 8.17384 33.5427 8.48327 33.2333C8.79271 32.9238 9.21239 32.75 9.65 32.75C10.0876 32.75 10.5073 32.9238 10.8167 33.2333C11.1262 33.5427 11.3 33.9624 11.3 34.4V34.4ZM19.55 27.8C19.55 27.3624 19.3762 26.9427 19.0667 26.6333C18.7573 26.3238 18.3376 26.15 17.9 26.15C17.4624 26.15 17.0427 26.3238 16.7333 26.6333C16.4238 26.9427 16.25 27.3624 16.25 27.8V39.35C16.25 39.7876 16.4238 40.2073 16.7333 40.5167C17.0427 40.8262 17.4624 41 17.9 41C18.3376 41 18.7573 40.8262 19.0667 40.5167C19.3762 40.2073 19.55 39.7876 19.55 39.35V27.8ZM26.15 29.45C26.5876 29.45 27.0073 29.6238 27.3167 29.9333C27.6262 30.2427 27.8 30.6624 27.8 31.1V39.35C27.8 39.7876 27.6262 40.2073 27.3167 40.5167C27.0073 40.8262 26.5876 41 26.15 41C25.7124 41 25.2927 40.8262 24.9833 40.5167C24.6738 40.2073 24.5 39.7876 24.5 39.35V31.1C24.5 30.6624 24.6738 30.2427 24.9833 29.9333C25.2927 29.6238 25.7124 29.45 26.15 29.45V29.45ZM36.05 22.85C36.05 22.4124 35.8762 21.9927 35.5667 21.6833C35.2573 21.3738 34.8376 21.2 34.4 21.2C33.9624 21.2 33.5427 21.3738 33.2333 21.6833C32.9238 21.9927 32.75 22.4124 32.75 22.85V39.35C32.75 39.7876 32.9238 40.2073 33.2333 40.5167C33.5427 40.8262 33.9624 41 34.4 41C34.8376 41 35.2573 40.8262 35.5667 40.5167C35.8762 40.2073 36.05 39.7876 36.05 39.35V22.85Z" fill="white"/>
</svg>
