<svg width="33" height="33" viewBox="0 0 33 33" fill="none" xmlns="http://www.w3.org/2000/svg">
<path d="M9.075 11.1276C9.64755 10.4973 10.5847 9.9 11.9625 9.9C13.8633 9.9 15.0876 11.2068 15.5182 12.6406C15.9357 14.0382 15.6832 15.7674 14.4952 16.9604C14.0832 17.3565 13.6462 17.7257 13.1868 18.0658L13.1208 18.117C12.6588 18.4734 12.2463 18.7968 11.8833 19.1565C11.4625 19.5789 11.1177 20.0393 10.918 20.625H14.4375C14.7657 20.625 15.0805 20.7554 15.3125 20.9875C15.5446 21.2195 15.675 21.5343 15.675 21.8625C15.675 22.1907 15.5446 22.5055 15.3125 22.7375C15.0805 22.9696 14.7657 23.1 14.4375 23.1H9.4875C9.15929 23.1 8.84453 22.9696 8.61245 22.7375C8.38037 22.5055 8.25 22.1907 8.25 21.8625C8.25 19.8049 9.1146 18.4255 10.1376 17.4058C10.626 16.9174 11.1573 16.5066 11.6061 16.1585L11.611 16.1551C12.0829 15.7905 12.4492 15.5067 12.7413 15.2146C13.1901 14.7625 13.3468 14.0184 13.1472 13.3501C12.9574 12.7215 12.5367 12.375 11.9625 12.375C11.38 12.375 11.0797 12.601 10.9065 12.7924C10.8051 12.9043 10.7227 13.0319 10.6623 13.1703V13.1752C10.5612 13.4877 10.3401 13.7472 10.0477 13.8967C9.75531 14.0461 9.4155 14.0733 9.10305 13.9722C8.79059 13.8711 8.5311 13.65 8.38164 13.3576C8.23218 13.0652 8.20501 12.7254 8.3061 12.4129L8.36384 12.2545C8.53338 11.8407 8.77344 11.4594 9.07335 11.1276H9.075Z" fill="white"/>
<path d="M18.5625 9.9C18.8907 9.9 19.2055 10.0304 19.4375 10.2625C19.6696 10.4945 19.8 10.8093 19.8 11.1375V15.675H22.275V11.1375C22.275 10.8093 22.4054 10.4945 22.6375 10.2625C22.8695 10.0304 23.1843 9.9 23.5125 9.9C23.8407 9.9 24.1555 10.0304 24.3875 10.2625C24.6196 10.4945 24.75 10.8093 24.75 11.1375V21.813C24.75 22.1412 24.6196 22.456 24.3875 22.688C24.1555 22.9201 23.8407 23.0505 23.5125 23.0505C23.1843 23.0505 22.8695 22.9201 22.6375 22.688C22.4054 22.456 22.275 22.1412 22.275 21.813V18.15H18.5625C18.2343 18.15 17.9195 18.0196 17.6875 17.7875C17.4554 17.5555 17.325 17.2407 17.325 16.9125V11.1375C17.325 10.8093 17.4554 10.4945 17.6875 10.2625C17.9195 10.0304 18.2343 9.9 18.5625 9.9Z" fill="white"/>
<path d="M33 16.5C33 7.38705 25.6129 0 16.5 0C7.38705 0 0 7.38705 0 16.5C0 25.6129 7.38705 33 16.5 33C25.6129 33 33 25.6129 33 16.5ZM2.475 16.5C2.475 12.7803 3.95263 9.21303 6.58283 6.58283C9.21303 3.95263 12.7803 2.475 16.5 2.475C20.2197 2.475 23.787 3.95263 26.4172 6.58283C29.0474 9.21303 30.525 12.7803 30.525 16.5C30.525 20.2197 29.0474 23.787 26.4172 26.4172C23.787 29.0474 20.2197 30.525 16.5 30.525C12.7803 30.525 9.21303 29.0474 6.58283 26.4172C3.95263 23.787 2.475 20.2197 2.475 16.5Z" fill="white"/>
</svg>
