<svg width="22" height="22" viewBox="0 0 22 22" fill="none" xmlns="http://www.w3.org/2000/svg">
<path d="M11.0037 6.23522e-07C9.09529 -0.000641851 7.21955 0.495228 5.56078 1.43889C3.902 2.38255 2.51728 3.74153 1.54265 5.3823C0.568027 7.02307 0.0370419 8.88918 0.00186884 10.7973C-0.0333042 12.7053 0.428545 14.5898 1.34204 16.2653L0.0403702 20.8303C-0.00543146 20.9906 -0.00665168 21.1604 0.0368411 21.3213C0.0803338 21.4823 0.166893 21.6283 0.287201 21.7437C0.40751 21.8591 0.557014 21.9395 0.719621 21.9763C0.882229 22.013 1.05178 22.0048 1.21004 21.9523L5.49637 20.5242C6.95728 21.3684 8.59281 21.8652 10.2764 21.9762C11.9601 22.0872 13.6467 21.8094 15.2058 21.1642C16.7649 20.5191 18.1546 19.524 19.2676 18.2558C20.3806 16.9877 21.1869 15.4805 21.6242 13.8508C22.0615 12.2212 22.118 10.5128 21.7894 8.85781C21.4608 7.20283 20.7559 5.64562 19.7292 4.30665C18.7025 2.96768 17.3816 1.88284 15.8686 1.13606C14.3555 0.389274 12.691 0.000564574 11.0037 6.23522e-07ZM7.33704 9.16667C7.33704 8.92355 7.43361 8.69039 7.60552 8.51849C7.77743 8.34658 8.01059 8.25 8.2537 8.25H13.7537C13.9968 8.25 14.23 8.34658 14.4019 8.51849C14.5738 8.69039 14.6704 8.92355 14.6704 9.16667C14.6704 9.40978 14.5738 9.64294 14.4019 9.81485C14.23 9.98676 13.9968 10.0833 13.7537 10.0833H8.2537C8.01059 10.0833 7.77743 9.98676 7.60552 9.81485C7.43361 9.64294 7.33704 9.40978 7.33704 9.16667ZM8.2537 11.9167H11.9204C12.1635 11.9167 12.3966 12.0132 12.5686 12.1852C12.7405 12.3571 12.837 12.5902 12.837 12.8333C12.837 13.0764 12.7405 13.3096 12.5686 13.4815C12.3966 13.6534 12.1635 13.75 11.9204 13.75H8.2537C8.01059 13.75 7.77743 13.6534 7.60552 13.4815C7.43361 13.3096 7.33704 13.0764 7.33704 12.8333C7.33704 12.5902 7.43361 12.3571 7.60552 12.1852C7.77743 12.0132 8.01059 11.9167 8.2537 11.9167Z" fill="url(#paint0_linear)"/>
<defs>
<linearGradient id="paint0_linear" x1="-2.66065" y1="6.13083e-07" x2="23.8649" y2="1.67809" gradientUnits="userSpaceOnUse">
<stop stop-color="#FF0066"/>
<stop offset="1" stop-color="#FF1585"/>
</linearGradient>
</defs>
</svg>
