<svg width="192" height="192" viewBox="0 0 192 192" fill="none" xmlns="http://www.w3.org/2000/svg">
<path d="M96 180C73.7218 180 52.3561 171.15 36.603 155.397C20.85 139.644 12 118.278 12 96C12 73.7218 20.85 52.3561 36.603 36.603C52.3561 20.85 73.7218 12 96 12C118.278 12 139.644 20.85 155.397 36.603C171.15 52.3561 180 73.7218 180 96C180 118.278 171.15 139.644 155.397 155.397C139.644 171.15 118.278 180 96 180ZM96 192C121.461 192 145.879 181.886 163.882 163.882C181.886 145.879 192 121.461 192 96C192 70.5392 181.886 46.1212 163.882 28.1178C145.879 10.1143 121.461 0 96 0C70.5392 0 46.1212 10.1143 28.1178 28.1178C10.1143 46.1212 0 70.5392 0 96C0 121.461 10.1143 145.879 28.1178 163.882C46.1212 181.886 70.5392 192 96 192V192Z" fill="white"/>
<path d="M72 62C72 60.8954 72.8337 60 73.8621 60H86.8966C87.9249 60 88.7586 60.8954 88.7586 62V130C88.7586 131.105 87.9249 132 86.8966 132H73.8621C72.8337 132 72 131.105 72 130V62Z" fill="white"/>
<path d="M109.241 62C109.241 60.8954 110.075 60 111.103 60H124.138C125.166 60 126 60.8954 126 62V130C126 131.105 125.166 132 124.138 132H111.103C110.075 132 109.241 131.105 109.241 130V62Z" fill="white"/>
</svg>
