<svg width="192" height="193" viewBox="0 0 192 193" fill="none" xmlns="http://www.w3.org/2000/svg">
<g clip-path="url(#clip0)">
<path d="M96 180.589C73.7218 180.589 52.3561 171.739 36.603 155.986C20.85 140.233 12 118.868 12 96.5894C12 74.3112 20.85 52.9454 36.603 37.1924C52.3561 21.4393 73.7218 12.5894 96 12.5894C118.278 12.5894 139.644 21.4393 155.397 37.1924C171.15 52.9454 180 74.3112 180 96.5894C180 118.868 171.15 140.233 155.397 155.986C139.644 171.739 118.278 180.589 96 180.589ZM96 192.589C121.461 192.589 145.879 182.475 163.882 164.472C181.886 146.468 192 122.05 192 96.5894C192 71.1286 181.886 46.7106 163.882 28.7071C145.879 10.7036 121.461 0.589355 96 0.589355C70.5392 0.589355 46.1212 10.7036 28.1178 28.7071C10.1143 46.7106 0 71.1286 0 96.5894C0 122.05 10.1143 146.468 28.1178 164.472C46.1212 182.475 70.5392 192.589 96 192.589V192.589Z" fill="white"/>
<path d="M75.252 61.2492C76.2334 60.7438 77.3352 60.519 78.4361 60.5995C79.5371 60.6799 80.5945 61.0625 81.492 61.7052L123.492 91.7052C124.27 92.2602 124.904 92.993 125.341 93.8425C125.779 94.692 126.007 95.6337 126.007 96.5892C126.007 97.5447 125.779 98.4864 125.341 99.3359C124.904 100.185 124.27 100.918 123.492 101.473L81.492 131.473C80.5948 132.115 79.5379 132.498 78.4375 132.578C77.3372 132.659 76.2359 132.434 75.2548 131.929C74.2738 131.424 73.4509 130.659 72.8767 129.717C72.3024 128.775 71.9991 127.693 72 126.589V66.5892C71.9988 65.4862 72.3018 64.4042 72.8755 63.4621C73.4492 62.5201 74.2715 61.7544 75.252 61.2492V61.2492Z" fill="white"/>
</g>
<defs>
<clipPath id="clip0">
<rect width="192" height="192" fill="white" transform="translate(0 0.589355)"/>
</clipPath>
</defs>
</svg>
