<svg width="24" height="24" viewBox="0 0 24 24" fill="none" xmlns="http://www.w3.org/2000/svg">
<path d="M19.5557 3.00184C19.3082 3.01985 19.0653 3.07791 18.8365 3.17376H18.8334C18.6137 3.26087 17.5691 3.70029 15.981 4.36637L10.2901 6.76315C6.2065 8.4823 2.19233 10.1752 2.19233 10.1752L2.24012 10.1567C2.24012 10.1567 1.96336 10.2477 1.67427 10.4458C1.49567 10.5595 1.34198 10.7082 1.22251 10.8829C1.08066 11.0911 0.966566 11.4095 1.00897 11.7387C1.07835 12.2953 1.43914 12.6291 1.69817 12.8133C1.96028 12.9999 2.21006 13.087 2.21006 13.087H2.21622L5.98062 14.3552C6.14945 14.8971 7.12774 18.1134 7.36287 18.8542C7.50164 19.2967 7.63655 19.5735 7.80538 19.7847C7.8871 19.8927 7.98269 19.9829 8.09756 20.0553C8.15727 20.0901 8.22095 20.1175 8.28721 20.137L8.24866 20.1278C8.26022 20.1309 8.26947 20.1401 8.27795 20.1432C8.30879 20.1517 8.32961 20.1548 8.36892 20.1609C8.96484 20.3413 9.44358 19.9713 9.44358 19.9713L9.47057 19.9497L11.6931 17.9261L15.4182 20.7838L15.503 20.8201C16.2793 21.1608 17.0657 20.9712 17.4812 20.6366C17.8998 20.2997 18.0624 19.8688 18.0624 19.8688L18.0894 19.7994L20.968 5.05249C21.0498 4.68861 21.0706 4.34787 20.9804 4.01714C20.8873 3.68243 20.6726 3.39455 20.3783 3.20999C20.1311 3.05975 19.8446 2.98723 19.5557 3.00184V3.00184ZM19.4779 4.58223C19.4748 4.63079 19.484 4.6254 19.4624 4.71868V4.72716L16.6108 19.3206C16.5985 19.3415 16.5777 19.3869 16.5206 19.4324C16.4605 19.4802 16.4127 19.5103 16.1621 19.4108L11.606 15.9178L8.85383 18.4264L9.43202 14.7337L16.876 7.79541C17.1828 7.51017 17.0803 7.45004 17.0803 7.45004C17.1019 7.10004 16.617 7.34751 16.617 7.34751L7.23028 13.1625L7.22719 13.1471L2.72811 11.6323V11.6292L2.71655 11.6269C2.72444 11.6243 2.73216 11.6212 2.73968 11.6176L2.76435 11.6053L2.78825 11.5968C2.78825 11.5968 6.8055 9.90387 10.8891 8.18473C12.9335 7.32361 14.9934 6.45633 16.5777 5.78717C18.1619 5.12187 19.3329 4.63388 19.3992 4.60767C19.4624 4.583 19.4324 4.583 19.4779 4.583V4.58223Z" fill="#4662B7"/>
</svg>
