<svg width="24" height="24" viewBox="0 0 24 24" fill="none" xmlns="http://www.w3.org/2000/svg">
<path d="M22.8976 11.2636L22.8975 11.2612C22.8954 11.1001 22.8915 10.9218 22.8873 10.7316L22.8976 11.2636ZM22.8976 11.2636C22.9 11.3285 22.9 11.3845 22.9 11.4354V11.5646C22.9 11.5887 22.8994 11.6146 22.8988 11.6442C22.8982 11.6732 22.8976 11.705 22.8975 11.7393L22.8976 11.2636ZM22.7776 8.75728L22.7776 8.75719C22.7042 7.92656 22.5969 7.23882 22.452 6.72581C22.3016 6.19926 22.0067 5.7183 21.5959 5.33132C21.1851 4.9443 20.6728 4.66491 20.1101 4.5217C19.4274 4.34934 18.0782 4.24083 16.1608 4.17381L16.1607 4.17381C15.2508 4.14152 14.2768 4.12076 13.3026 4.10923L13.3024 4.10922C12.9983 4.10511 12.7137 4.10283 12.4535 4.10075C12.4222 4.1005 12.3912 4.10025 12.3605 4.1H11.6395C11.6088 4.10025 11.5778 4.1005 11.5465 4.10075C11.2863 4.10283 11.0017 4.10511 10.6976 4.10922L10.6974 4.10923C9.7232 4.12076 8.74924 4.14152 7.83926 4.17381C5.92199 4.24313 4.57024 4.35162 3.88981 4.52172C3.32693 4.66458 2.81452 4.94384 2.40366 5.33089C1.99279 5.71795 1.69796 6.19914 1.54796 6.72591L1.5479 6.72612C1.40074 7.23871 1.29584 7.92614 1.22238 8.75719L1.22237 8.75728C1.16857 9.35969 1.13428 9.99941 1.11469 10.642L1.11468 10.6423C1.10779 10.8517 1.10521 11.0491 1.10289 11.2276L1.10246 11.2606C1.10245 11.295 1.10182 11.3268 1.10121 11.3558L1.10109 11.3615C1.10051 11.3887 1.1 11.4128 1.1 11.4354V11.5646C1.1 11.6155 1.10001 11.6715 1.10239 11.7364L1.10247 11.7388C1.10456 11.8998 1.1085 12.0781 1.11271 12.2681L22.7776 8.75728ZM22.7776 8.75728C22.8314 9.35954 22.8657 9.99909 22.8853 10.6415L22.7776 8.75728ZM1.22237 14.2427L1.22238 14.2428C1.29581 15.0735 1.40315 15.7613 1.54802 16.2743C1.852 17.3435 2.74626 18.191 3.88977 18.4783L3.88996 18.4783C4.57013 18.6507 5.92175 18.7592 7.83921 18.8262L7.83926 18.8262C8.74924 18.8585 9.7232 18.8792 10.6974 18.8908L10.6976 18.8908C11.0017 18.8949 11.2863 18.8972 11.5465 18.8993C11.5778 18.8995 11.6088 18.8998 11.6394 18.9H12.3606C12.3912 18.8998 12.4222 18.8995 12.4535 18.8993C12.7137 18.8972 12.9983 18.8949 13.3024 18.8908L13.3026 18.8908C14.2768 18.8792 15.2508 18.8585 16.1607 18.8262M1.22237 14.2427L16.1643 18.9261M1.22237 14.2427C1.16858 13.6404 1.1343 13.0009 1.1147 12.3584L1.22237 14.2427ZM16.1607 18.8262L16.1643 18.9261M16.1607 18.8262C16.1607 18.8262 16.1607 18.8262 16.1607 18.8262L16.1643 18.9261M16.1607 18.8262C18.078 18.7569 19.4298 18.6484 20.1102 18.4783M16.1643 18.9261C18.0795 18.8569 19.4422 18.7484 20.1346 18.5753C21.3107 18.2798 22.2339 17.4095 22.5482 16.3015C22.698 15.7798 22.8036 15.0849 22.8772 14.2516C22.9312 13.6468 22.9656 13.0051 22.9853 12.361C22.9922 12.1506 22.9948 11.9524 22.9971 11.7741L22.9975 11.7401H22.8975L22.8971 11.772C22.8948 11.9506 22.8922 12.1481 22.8853 12.3577L22.8853 12.358C22.8657 13.0006 22.8314 13.6403 22.7776 14.2427L22.7776 14.2428C22.7042 15.0739 22.5993 15.7613 22.4521 16.2739L22.452 16.2742C22.1481 17.3457 21.2539 18.191 20.1102 18.4783M20.1102 18.4783L20.1346 18.5752L20.1103 18.4782C20.1103 18.4782 20.1103 18.4783 20.1102 18.4783ZM21.3174 12.3148L21.3174 12.3154C21.3001 12.9311 21.2657 13.5472 21.2139 14.1197C21.2139 14.1197 21.2139 14.1198 21.2139 14.1198L21.1143 14.1108L21.3174 12.3148ZM21.3174 12.3148C21.3181 12.2815 21.3189 12.2486 21.3197 12.2161C21.3237 12.0396 21.3276 11.8742 21.3297 11.722C21.3321 11.6583 21.3321 11.6039 21.3321 11.5559V11.5554V11.4446C21.3321 11.4201 21.3315 11.3934 21.3309 11.3665C21.3303 11.3391 21.3297 11.3106 21.3297 11.2807L21.3297 11.2793L21.3292 11.2455C21.3269 11.0764 21.3243 10.8864 21.3174 10.6841M21.3174 12.3148L10.7195 5.57129C11.0562 5.56667 11.3685 5.56436 11.6489 5.56436H12.3511H12.3519L13.28 5.57129L13.2804 5.57129C14.2411 5.58284 15.202 5.60363 16.0991 5.63598L16.0992 5.63599C16.9827 5.66833 17.751 5.70995 18.3632 5.75975C18.9732 5.80936 19.4343 5.86753 19.6999 5.93442L19.7 5.93446C20.297 6.08575 20.7728 6.53072 20.9354 7.10043L20.9355 7.1007C21.0535 7.51834 21.1474 8.13511 21.2139 8.88031M11.6489 17.4356H11.6481L10.72 17.4287L10.7196 17.4287C9.75891 17.4172 8.79804 17.3964 7.90086 17.364L7.90081 17.364C7.01726 17.3317 6.24898 17.29 5.63681 17.2403C5.02684 17.1906 4.56567 17.1325 4.30013 17.0656L4.29999 17.0655C3.703 16.9142 3.2272 16.4693 3.06456 15.8996L3.06448 15.8993C2.94652 15.4817 2.85258 14.8649 2.78611 14.1197C2.78611 14.1197 2.78611 14.1197 2.78611 14.1197L2.88571 14.1108L11.6489 17.4356ZM11.6489 17.4356H12.3511C12.6315 17.4356 12.9437 17.4333 13.2804 17.4287L11.6489 17.4356ZM2.67032 11.7207L2.6703 11.7193C2.67031 11.6894 2.66972 11.6609 2.66911 11.6335L2.66897 11.6271C2.66841 11.6024 2.66786 11.5779 2.66786 11.5554V11.4446V11.4441C2.66786 11.3961 2.66786 11.3418 2.67034 11.2781C2.67242 11.1259 2.67625 10.9606 2.68033 10.7841C2.68109 10.7515 2.68185 10.7185 2.68262 10.6852L2.68263 10.6846C2.69987 10.0688 2.73435 9.45271 2.78612 8.88019L2.88571 8.8892L2.78611 8.88031C2.85257 8.13511 2.94652 7.51834 3.06448 7.1007L3.06456 7.10043C3.22712 6.531 3.70277 6.08339 4.30029 5.93438C4.82827 5.80203 6.13861 5.6982 7.90085 5.63598C7.90088 5.63598 7.90091 5.63598 7.90094 5.63598L7.90446 5.73592L2.67032 11.7207ZM2.67032 11.7207L2.67079 11.7546C2.6731 11.9237 2.67571 12.1137 2.68264 12.3159L2.67032 11.7207ZM21.2139 8.88031L21.1143 8.8892L21.2139 8.88019C21.2139 8.88023 21.2139 8.88027 21.2139 8.88031ZM21.2139 8.88031C21.2657 9.45297 21.2977 10.069 21.3174 10.6841M21.3174 10.6841C21.3174 10.6842 21.3174 10.6842 21.3174 10.6842L21.2174 10.6874L21.3174 10.684C21.3174 10.684 21.3174 10.6841 21.3174 10.6841ZM9.91473 8.57424L15.3016 11.4776L9.91473 14.4246V8.57424Z" fill="#4662B7" stroke="#4662B7" stroke-width="0.2"/>
</svg>
