<svg width="281" height="281" viewBox="0 0 281 281" fill="none" xmlns="http://www.w3.org/2000/svg">
<path d="M151 83.5004C151 83.9787 150.777 84.5895 150.5 84.8672C150.225 85.1411 150 84.9778 150 84.5008L150.009 84.3388C150.05 83.8926 150.255 83.3808 150.5 83.1339L150.559 83.0812C150.808 82.8832 151 83.0567 151 83.5004Z" fill="#E6E8E7"/>
<g filter="url(#filter0_d)">
<rect x="50" y="50" width="161" height="161" rx="15" fill="#3C419E"/>
</g>
<path opacity="0.9" d="M96.2935 157.402H92.1236L91.1871 160H89.8336L93.6343 150.047H94.7828L98.5904 160H97.2437L96.2935 157.402ZM92.5201 156.322H95.9039L94.2086 151.667L92.5201 156.322ZM102.251 158.284L104.083 152.604H105.375L102.722 160H101.758L99.0787 152.604H100.371L102.251 158.284ZM109.985 160.137C108.982 160.137 108.167 159.809 107.538 159.152C106.909 158.492 106.594 157.61 106.594 156.507V156.274C106.594 155.541 106.733 154.887 107.011 154.312C107.294 153.734 107.686 153.283 108.187 152.959C108.693 152.631 109.24 152.467 109.828 152.467C110.789 152.467 111.537 152.784 112.07 153.417C112.603 154.05 112.87 154.957 112.87 156.138V156.664H107.859C107.877 157.393 108.089 157.983 108.495 158.435C108.905 158.881 109.425 159.104 110.053 159.104C110.5 159.104 110.878 159.013 111.188 158.831C111.498 158.649 111.769 158.407 112.002 158.106L112.774 158.708C112.154 159.66 111.225 160.137 109.985 160.137ZM109.828 153.506C109.317 153.506 108.889 153.693 108.543 154.066C108.196 154.436 107.982 154.955 107.9 155.625H111.605V155.529C111.569 154.887 111.396 154.39 111.086 154.039C110.776 153.684 110.356 153.506 109.828 153.506ZM118.335 153.738C118.143 153.706 117.936 153.69 117.713 153.69C116.883 153.69 116.32 154.044 116.024 154.75V160H114.76V152.604H115.99L116.011 153.458C116.425 152.797 117.013 152.467 117.774 152.467C118.02 152.467 118.207 152.499 118.335 152.562V153.738ZM124.217 160C124.144 159.854 124.085 159.594 124.039 159.221C123.451 159.831 122.749 160.137 121.933 160.137C121.204 160.137 120.605 159.932 120.136 159.521C119.671 159.107 119.438 158.583 119.438 157.949C119.438 157.179 119.73 156.582 120.313 156.158C120.901 155.73 121.726 155.516 122.788 155.516H124.018V154.935C124.018 154.493 123.886 154.142 123.622 153.882C123.358 153.618 122.968 153.485 122.453 153.485C122.002 153.485 121.624 153.599 121.318 153.827C121.013 154.055 120.86 154.331 120.86 154.654H119.589C119.589 154.285 119.719 153.93 119.978 153.588C120.243 153.242 120.598 152.968 121.045 152.768C121.496 152.567 121.99 152.467 122.528 152.467C123.38 152.467 124.048 152.681 124.531 153.109C125.014 153.533 125.265 154.119 125.283 154.866V158.271C125.283 158.95 125.37 159.49 125.543 159.891V160H124.217ZM122.118 159.036C122.515 159.036 122.891 158.934 123.246 158.729C123.601 158.523 123.859 158.257 124.018 157.929V156.411H123.027C121.478 156.411 120.703 156.865 120.703 157.771C120.703 158.168 120.835 158.478 121.099 158.701C121.364 158.924 121.703 159.036 122.118 159.036ZM127.385 156.24C127.385 155.087 127.651 154.171 128.185 153.492C128.718 152.809 129.424 152.467 130.304 152.467C131.206 152.467 131.91 152.786 132.416 153.424L132.477 152.604H133.633V159.822C133.633 160.779 133.348 161.534 132.778 162.085C132.213 162.636 131.452 162.912 130.495 162.912C129.962 162.912 129.44 162.798 128.93 162.57C128.419 162.342 128.03 162.03 127.761 161.634L128.417 160.875C128.959 161.545 129.622 161.88 130.406 161.88C131.021 161.88 131.5 161.707 131.842 161.36C132.188 161.014 132.361 160.526 132.361 159.897V159.262C131.855 159.845 131.165 160.137 130.29 160.137C129.424 160.137 128.722 159.788 128.185 159.091C127.651 158.394 127.385 157.443 127.385 156.24ZM128.656 156.384C128.656 157.218 128.827 157.874 129.169 158.353C129.511 158.826 129.989 159.063 130.604 159.063C131.402 159.063 131.988 158.701 132.361 157.977V154.6C131.974 153.893 131.393 153.54 130.618 153.54C130.003 153.54 129.522 153.779 129.176 154.258C128.829 154.736 128.656 155.445 128.656 156.384ZM139.036 160.137C138.034 160.137 137.218 159.809 136.589 159.152C135.96 158.492 135.646 157.61 135.646 156.507V156.274C135.646 155.541 135.785 154.887 136.063 154.312C136.345 153.734 136.737 153.283 137.238 152.959C137.744 152.631 138.291 152.467 138.879 152.467C139.841 152.467 140.588 152.784 141.121 153.417C141.654 154.05 141.921 154.957 141.921 156.138V156.664H136.91C136.928 157.393 137.14 157.983 137.546 158.435C137.956 158.881 138.476 159.104 139.105 159.104C139.551 159.104 139.929 159.013 140.239 158.831C140.549 158.649 140.82 158.407 141.053 158.106L141.825 158.708C141.205 159.66 140.276 160.137 139.036 160.137ZM138.879 153.506C138.369 153.506 137.94 153.693 137.594 154.066C137.247 154.436 137.033 154.955 136.951 155.625H140.656V155.529C140.62 154.887 140.447 154.39 140.137 154.039C139.827 153.684 139.408 153.506 138.879 153.506ZM149.597 150.047L152.851 158.168L156.105 150.047H157.807V160H156.494V156.124L156.617 151.94L153.35 160H152.345L149.084 151.961L149.214 156.124V160H147.902V150.047H149.597ZM161.72 160H160.455V152.604H161.72V160ZM160.353 150.642C160.353 150.437 160.414 150.263 160.537 150.122C160.665 149.981 160.852 149.91 161.098 149.91C161.344 149.91 161.531 149.981 161.658 150.122C161.786 150.263 161.85 150.437 161.85 150.642C161.85 150.847 161.786 151.018 161.658 151.154C161.531 151.291 161.344 151.359 161.098 151.359C160.852 151.359 160.665 151.291 160.537 151.154C160.414 151.018 160.353 150.847 160.353 150.642ZM165.367 152.604L165.408 153.533C165.973 152.822 166.711 152.467 167.622 152.467C169.186 152.467 169.974 153.349 169.988 155.112V160H168.723V155.105C168.718 154.572 168.595 154.178 168.354 153.923C168.117 153.668 167.745 153.54 167.24 153.54C166.829 153.54 166.469 153.649 166.16 153.868C165.85 154.087 165.608 154.374 165.435 154.729V160H164.17V152.604H165.367ZM92.8315 178.437C92.8315 178.017 92.6834 177.664 92.3872 177.377C92.0955 177.09 91.6011 176.83 90.9038 176.598C89.9331 176.301 89.2244 175.916 88.7778 175.442C88.3358 174.964 88.1147 174.358 88.1147 173.624C88.1147 172.877 88.3312 172.264 88.7641 171.785C89.2016 171.307 89.8009 171.022 90.562 170.931V169.434H91.5805V170.938C92.3462 171.042 92.9409 171.364 93.3647 171.901C93.7931 172.439 94.0073 173.175 94.0073 174.109H92.7495C92.7495 173.467 92.5968 172.956 92.2915 172.578C91.9861 172.2 91.5737 172.011 91.0542 172.011C90.5119 172.011 90.0971 172.152 89.81 172.435C89.5229 172.713 89.3794 173.102 89.3794 173.604C89.3794 174.068 89.5298 174.44 89.8305 174.718C90.1359 174.991 90.6349 175.242 91.3276 175.47C92.0249 175.693 92.5672 175.941 92.9546 176.215C93.3465 176.484 93.6336 176.798 93.8159 177.158C94.0027 177.518 94.0962 177.94 94.0962 178.423C94.0962 179.193 93.8638 179.813 93.3989 180.282C92.9386 180.752 92.2915 181.03 91.4575 181.116V182.422H90.4458V181.116C89.5981 181.039 88.9328 180.738 88.4497 180.214C87.9712 179.685 87.7319 178.97 87.7319 178.067H88.9966C88.9966 178.701 89.1629 179.188 89.4956 179.53C89.8283 179.872 90.2999 180.043 90.9106 180.043C91.5076 180.043 91.977 179.899 92.3188 179.612C92.6606 179.325 92.8315 178.933 92.8315 178.437ZM102.61 181H96.0884V180.091L99.5338 176.263C100.044 175.684 100.395 175.215 100.586 174.854C100.782 174.49 100.88 174.114 100.88 173.727C100.88 173.207 100.723 172.781 100.409 172.448C100.094 172.116 99.675 171.949 99.1509 171.949C98.522 171.949 98.0321 172.129 97.6812 172.489C97.3349 172.845 97.1617 173.341 97.1617 173.979H95.897C95.897 173.063 96.191 172.323 96.7789 171.758C97.3713 171.193 98.162 170.91 99.1509 170.91C100.076 170.91 100.808 171.154 101.345 171.642C101.883 172.125 102.152 172.77 102.152 173.576C102.152 174.556 101.528 175.723 100.279 177.076L97.6129 179.968H102.61V181ZM104.527 180.337C104.527 180.118 104.591 179.936 104.718 179.79C104.851 179.644 105.047 179.571 105.306 179.571C105.566 179.571 105.762 179.644 105.894 179.79C106.031 179.936 106.099 180.118 106.099 180.337C106.099 180.547 106.031 180.722 105.894 180.863C105.762 181.005 105.566 181.075 105.306 181.075C105.047 181.075 104.851 181.005 104.718 180.863C104.591 180.722 104.527 180.547 104.527 180.337ZM109.062 176.01L109.568 171.047H114.668V172.216H110.641L110.341 174.93C110.828 174.643 111.382 174.499 112.002 174.499C112.909 174.499 113.629 174.8 114.162 175.401C114.695 175.998 114.962 176.807 114.962 177.828C114.962 178.854 114.684 179.662 114.128 180.255C113.576 180.843 112.804 181.137 111.81 181.137C110.931 181.137 110.213 180.893 109.657 180.405C109.101 179.918 108.784 179.243 108.707 178.382H109.903C109.981 178.951 110.183 179.382 110.511 179.674C110.84 179.961 111.273 180.104 111.81 180.104C112.398 180.104 112.858 179.904 113.191 179.503C113.528 179.102 113.697 178.548 113.697 177.842C113.697 177.176 113.515 176.643 113.15 176.242C112.79 175.837 112.309 175.634 111.708 175.634C111.156 175.634 110.723 175.755 110.409 175.996L110.074 176.27L109.062 176.01ZM122.296 177.104V181H120.983V171.047H124.654C125.743 171.047 126.596 171.325 127.211 171.881C127.831 172.437 128.141 173.173 128.141 174.089C128.141 175.055 127.837 175.8 127.231 176.324C126.63 176.844 125.766 177.104 124.641 177.104H122.296ZM122.296 176.03H124.654C125.356 176.03 125.894 175.866 126.267 175.538C126.641 175.205 126.828 174.727 126.828 174.103C126.828 173.51 126.641 173.036 126.267 172.681C125.894 172.325 125.381 172.141 124.729 172.127H122.296V176.03ZM133.011 181.137C132.008 181.137 131.192 180.809 130.563 180.152C129.935 179.492 129.62 178.61 129.62 177.507V177.274C129.62 176.541 129.759 175.887 130.037 175.312C130.32 174.734 130.712 174.283 131.213 173.959C131.719 173.631 132.266 173.467 132.853 173.467C133.815 173.467 134.562 173.784 135.096 174.417C135.629 175.05 135.895 175.957 135.895 177.138V177.664H130.885C130.903 178.393 131.115 178.983 131.52 179.435C131.931 179.881 132.45 180.104 133.079 180.104C133.526 180.104 133.904 180.013 134.214 179.831C134.524 179.649 134.795 179.407 135.027 179.106L135.8 179.708C135.18 180.66 134.25 181.137 133.011 181.137ZM132.853 174.506C132.343 174.506 131.915 174.693 131.568 175.066C131.222 175.436 131.008 175.955 130.926 176.625H134.631V176.529C134.594 175.887 134.421 175.39 134.111 175.039C133.801 174.684 133.382 174.506 132.853 174.506ZM141.36 174.738C141.169 174.706 140.962 174.69 140.738 174.69C139.909 174.69 139.346 175.044 139.05 175.75V181H137.785V173.604H139.016L139.036 174.458C139.451 173.797 140.039 173.467 140.8 173.467C141.046 173.467 141.233 173.499 141.36 173.562V174.738ZM148.736 171.047L151.989 179.168L155.243 171.047H156.946V181H155.633V177.124L155.756 172.94L152.488 181H151.484L148.223 172.961L148.353 177.124V181H147.04V171.047H148.736ZM160.859 181H159.594V173.604H160.859V181ZM159.491 171.642C159.491 171.437 159.553 171.263 159.676 171.122C159.804 170.981 159.991 170.91 160.237 170.91C160.483 170.91 160.67 170.981 160.797 171.122C160.925 171.263 160.989 171.437 160.989 171.642C160.989 171.847 160.925 172.018 160.797 172.154C160.67 172.291 160.483 172.359 160.237 172.359C159.991 172.359 159.804 172.291 159.676 172.154C159.553 172.018 159.491 171.847 159.491 171.642ZM164.683 181H163.418V170.5H164.683V181ZM170.203 181.137C169.2 181.137 168.384 180.809 167.755 180.152C167.126 179.492 166.812 178.61 166.812 177.507V177.274C166.812 176.541 166.951 175.887 167.229 175.312C167.511 174.734 167.903 174.283 168.405 173.959C168.911 173.631 169.457 173.467 170.045 173.467C171.007 173.467 171.754 173.784 172.288 174.417C172.821 175.05 173.087 175.957 173.087 177.138V177.664H168.077C168.095 178.393 168.307 178.983 168.712 179.435C169.122 179.881 169.642 180.104 170.271 180.104C170.718 180.104 171.096 180.013 171.406 179.831C171.716 179.649 171.987 179.407 172.219 179.106L172.992 179.708C172.372 180.66 171.442 181.137 170.203 181.137ZM170.045 174.506C169.535 174.506 169.107 174.693 168.76 175.066C168.414 175.436 168.2 175.955 168.118 176.625H171.823V176.529C171.786 175.887 171.613 175.39 171.303 175.039C170.993 174.684 170.574 174.506 170.045 174.506Z" fill="white"/>
<path d="M130.46 115.094C127.784 114.341 126.923 113.561 126.923 112.347C126.923 110.954 128.114 109.983 130.106 109.983C131.759 109.983 132.592 110.657 132.906 111.723C133.058 112.237 133.475 112.667 134.01 112.667H134.62C135.187 112.667 135.65 112.192 135.531 111.637C135.198 110.082 134.232 108.725 132.603 108.045C132.185 107.87 131.874 107.482 131.874 107.028V106C131.874 105.448 131.427 105 130.874 105H129.338C128.786 105 128.338 105.448 128.338 106V106.968C128.338 107.432 128.015 107.827 127.578 107.984C125.657 108.673 124.212 110.187 124.212 112.373C124.212 115.324 126.464 116.794 129.752 117.65C132.699 118.417 133.289 119.541 133.289 120.729C133.289 121.611 132.711 123.017 130.106 123.017C128.185 123.017 127.186 122.281 126.789 121.227C126.605 120.742 126.195 120.333 125.676 120.333H125.052C124.48 120.333 124.014 120.817 124.145 121.374C124.588 123.243 125.94 124.428 127.575 125.005C128.014 125.161 128.338 125.557 128.338 126.022V127C128.338 127.552 128.786 128 129.338 128H130.874C131.427 128 131.874 127.552 131.874 127V126.068C131.874 125.593 132.211 125.192 132.663 125.046C134.577 124.425 136 123.028 136 120.717C136 117.088 133.136 115.848 130.46 115.094Z" fill="white"/>
<path d="M130.46 115.094C127.784 114.341 126.923 113.561 126.923 112.347C126.923 110.954 128.114 109.983 130.106 109.983C131.759 109.983 132.592 110.657 132.906 111.723C133.058 112.237 133.475 112.667 134.01 112.667H134.62C135.187 112.667 135.65 112.192 135.531 111.637C135.198 110.082 134.232 108.725 132.603 108.045C132.185 107.87 131.874 107.482 131.874 107.028V106C131.874 105.448 131.427 105 130.874 105H129.338C128.786 105 128.338 105.448 128.338 106V106.968C128.338 107.432 128.015 107.827 127.578 107.984C125.657 108.673 124.212 110.187 124.212 112.373C124.212 115.324 126.464 116.794 129.752 117.65C132.699 118.417 133.289 119.541 133.289 120.729C133.289 121.611 132.711 123.017 130.106 123.017C128.185 123.017 127.186 122.281 126.789 121.227C126.605 120.742 126.195 120.333 125.676 120.333H125.052C124.48 120.333 124.014 120.817 124.145 121.374C124.588 123.243 125.94 124.428 127.575 125.005C128.014 125.161 128.338 125.557 128.338 126.022V127C128.338 127.552 128.786 128 129.338 128H130.874C131.427 128 131.874 127.552 131.874 127V126.068C131.874 125.593 132.211 125.192 132.663 125.046C134.577 124.425 136 123.028 136 120.717C136 117.088 133.136 115.848 130.46 115.094Z" stroke="#40447A"/>
<circle cx="130" cy="117" r="16.5" stroke="white" stroke-width="3"/>
<defs>
<filter id="filter0_d" x="0" y="0" width="281" height="281" filterUnits="userSpaceOnUse" color-interpolation-filters="sRGB">
<feFlood flood-opacity="0" result="BackgroundImageFix"/>
<feColorMatrix in="SourceAlpha" type="matrix" values="0 0 0 0 0 0 0 0 0 0 0 0 0 0 0 0 0 0 127 0"/>
<feOffset dx="10" dy="10"/>
<feGaussianBlur stdDeviation="30"/>
<feColorMatrix type="matrix" values="0 0 0 0 0 0 0 0 0 0 0 0 0 0 0 0 0 0 0.2 0"/>
<feBlend mode="normal" in2="BackgroundImageFix" result="effect1_dropShadow"/>
<feBlend mode="normal" in="SourceGraphic" in2="effect1_dropShadow" result="shape"/>
</filter>
</defs>
</svg>
