<svg width="509" height="670" viewBox="0 0 509 670" fill="none" xmlns="http://www.w3.org/2000/svg">
<g opacity="0.2">
<path d="M254.157 494.609C298.193 494.609 333.892 458.91 333.892 414.874C333.892 370.837 298.193 335.138 254.157 335.138C210.12 335.138 174.421 370.837 174.421 414.874C174.421 458.91 210.12 494.609 254.157 494.609Z" fill="#FF0066"/>
<path d="M43.6053 87.2106C67.6879 87.2106 87.2106 67.6879 87.2106 43.6053C87.2106 19.5228 67.6879 0 43.6053 0C19.5228 0 0 19.5228 0 43.6053C0 67.6879 19.5228 87.2106 43.6053 87.2106Z" fill="url(#paint0_linear)"/>
<path d="M95.4334 613.34C95.0597 613.091 94.6859 612.842 94.4368 612.468C94.063 612.219 93.6892 611.845 93.4401 611.596C93.9384 612.219 94.6859 612.717 95.4334 613.34Z" fill="url(#paint1_linear)"/>
<path d="M91.3221 609.977C92.3188 610.849 93.3155 611.596 94.3122 612.468C94.686 612.717 95.0597 613.091 95.3089 613.34C95.6827 613.714 96.181 613.963 96.5548 614.337C97.1777 614.835 97.9252 615.334 98.5482 615.832C97.4269 614.96 96.3056 614.088 95.1843 613.216C94.5614 612.717 93.8139 612.219 93.1909 611.596C92.568 611.098 91.9451 610.475 91.3221 609.977Z" fill="#FF0000"/>
<path d="M98.6726 615.831C98.7972 615.831 98.7972 615.956 98.9218 615.956C98.7972 615.956 98.6726 615.956 98.6726 615.831ZM98.7972 615.956C99.0464 616.08 99.171 616.329 99.4201 616.454C99.6693 616.703 100.043 616.952 100.292 617.202C99.7939 616.828 99.2955 616.329 98.7972 615.956ZM100.417 617.202C132.311 641.496 170.061 658.44 211.299 665.417C211.797 665.541 212.296 665.541 212.794 665.666C220.892 667.036 229.239 667.908 237.587 668.407C237.462 668.407 237.338 668.407 237.338 668.407C236.216 668.282 235.095 668.282 233.974 668.157C232.603 668.033 231.233 667.908 229.862 667.784C228.243 667.659 226.748 667.41 225.253 667.285C224.256 667.161 223.384 667.036 222.512 666.912C221.39 666.787 220.269 666.662 219.148 666.413C218.525 666.289 217.902 666.289 217.404 666.164C215.909 665.915 214.538 665.79 213.168 665.541C212.669 665.417 212.171 665.417 211.673 665.292C210.925 665.167 210.178 665.043 209.43 664.918C208.683 664.794 207.935 664.669 207.188 664.544C205.693 664.295 204.197 663.922 202.827 663.672C201.581 663.423 200.211 663.174 198.965 662.8C197.345 662.426 195.726 662.053 194.106 661.679C192.611 661.305 191.116 660.931 189.621 660.558C188.375 660.184 187.129 659.935 186.008 659.561C185.634 659.436 185.136 659.312 184.762 659.187C183.641 658.813 182.519 658.564 181.274 658.191C180.526 657.941 179.778 657.817 179.031 657.568C178.034 657.318 177.038 656.945 176.165 656.695C175.044 656.322 174.048 655.948 172.926 655.574C171.805 655.2 170.808 654.827 169.687 654.453C166.448 653.332 163.333 652.086 160.094 650.84C159.222 650.466 158.225 650.092 157.353 649.719C155.609 648.971 153.74 648.224 151.996 647.476C150.75 646.978 149.504 646.355 148.383 645.856C147.137 645.234 145.891 644.735 144.645 644.112C143.524 643.614 142.403 642.991 141.281 642.493C136.547 640.125 131.813 637.634 127.328 635.017C126.331 634.394 125.21 633.772 124.213 633.149C121.846 631.778 119.479 630.283 117.111 628.788C116.115 628.165 115.118 627.542 114.246 626.919C109.387 623.805 104.777 620.565 100.417 617.202ZM237.587 668.407C238.334 668.407 238.957 668.531 239.705 668.531C238.957 668.531 238.334 668.531 237.587 668.407Z" fill="#FF0000"/>
<path d="M239.705 668.532C240.95 668.657 242.072 668.657 243.193 668.657C241.947 668.657 240.826 668.657 239.705 668.532ZM243.068 668.781C243.941 668.781 244.688 668.906 245.56 668.906C244.813 668.781 243.941 668.781 243.068 668.781Z" fill="#FF0000"/>
<path d="M295.644 665.666C283.185 667.784 270.478 668.905 257.521 669.03C256.399 669.03 255.278 669.03 254.281 669.03C253.409 669.03 252.537 669.03 251.665 669.03C250.668 669.03 249.672 669.03 248.675 669.03C247.678 669.03 246.682 669.03 245.809 668.905C243.816 668.905 241.823 668.781 239.829 668.656C239.082 668.656 238.21 668.532 237.462 668.532C236.341 668.407 235.22 668.407 234.098 668.283C232.728 668.158 231.357 668.033 229.987 667.909C228.367 667.784 226.872 667.535 225.377 667.41C224.381 667.286 223.508 667.161 222.636 667.037C221.515 666.912 220.394 666.787 219.273 666.538C218.65 666.414 218.027 666.414 217.528 666.289C216.033 666.04 214.663 665.915 213.292 665.666C212.794 665.542 212.296 665.542 211.797 665.417C211.05 665.292 210.302 665.168 209.555 665.043C208.807 664.919 208.06 664.794 207.312 664.669C205.817 664.42 204.322 664.171 202.952 663.797C201.706 663.548 200.335 663.299 199.09 662.925C197.47 662.552 195.85 662.178 194.231 661.804C192.736 661.43 191.241 661.056 189.746 660.683C188.5 660.309 187.254 660.06 186.132 659.686C185.759 659.561 185.26 659.437 184.887 659.312C183.765 658.939 182.644 658.689 181.398 658.316C180.651 658.066 179.903 657.942 179.156 657.693C178.159 657.443 177.162 657.07 176.29 656.821C175.169 656.447 174.172 656.073 173.051 655.824C171.93 655.45 170.933 655.076 169.812 654.703C166.572 653.581 163.458 652.335 160.218 651.09C159.346 650.716 158.35 650.342 157.478 649.968C155.733 649.221 153.865 648.473 152.12 647.726C150.874 647.227 149.629 646.604 148.507 646.106C147.261 645.483 146.016 644.985 144.77 644.362C143.648 643.864 142.527 643.241 141.406 642.742C136.672 640.375 131.937 637.883 127.452 635.267C126.456 634.644 125.334 634.021 124.338 633.398C121.97 632.028 119.603 630.533 117.236 629.038C116.239 628.415 115.243 627.792 114.246 627.169C111.754 625.549 109.263 623.805 106.895 622.061C105.774 621.189 104.653 620.441 103.407 619.569C103.282 619.445 103.158 619.32 102.909 619.195C102.037 618.572 101.289 617.95 100.417 617.327C100.168 617.077 99.794 616.828 99.5448 616.704C99.2956 616.454 99.0465 616.33 98.6727 616.081C97.5514 615.209 96.4301 614.336 95.3089 613.464C94.6859 612.966 93.9384 612.468 93.3155 611.845C92.6925 611.346 92.0696 610.848 91.4467 610.225C90.8237 609.727 90.0762 609.104 89.4533 608.606C88.9549 608.232 88.5812 607.858 88.0828 607.484C87.9582 607.484 87.9583 607.36 87.8337 607.235C87.3353 606.737 86.7124 606.238 86.214 605.865C84.3452 604.245 82.601 602.625 80.7322 600.881C80.1093 600.383 79.4864 599.76 78.988 599.262C40.6153 562.633 13.7046 514.169 4.11145 459.725C1.49513 445.272 0.249268 430.447 0.249268 415.247V132.436H87.4599V397.93C87.0861 403.91 86.837 409.89 86.837 415.87C86.837 463.213 99.794 507.566 122.344 545.44C152.12 595.648 198.716 634.644 254.406 654.827C267.488 659.312 281.441 663.05 295.644 665.666Z" fill="url(#paint2_linear)"/>
<path d="M504.95 373.387C502.458 387.465 498.72 401.045 493.986 414.251C474.052 469.692 435.306 516.287 385.471 546.313C353.951 565.25 317.945 577.584 279.448 581.322C352.206 570.607 409.641 513.048 420.48 440.414C421.477 433.811 422.1 427.083 422.224 420.356C422.224 419.608 422.224 418.985 422.224 418.238C422.224 417.366 422.224 416.494 422.224 415.621V414.874C422.224 414.376 422.224 413.877 422.224 413.379C422.1 405.779 421.477 398.179 420.48 390.829C416.618 350.712 403.412 313.336 383.104 280.819C353.203 233.102 307.854 195.975 254.157 176.415C239.705 171.183 224.63 167.196 209.181 164.704C209.804 164.579 210.551 164.455 211.299 164.33C225.253 161.963 239.58 160.717 254.281 160.717C268.983 160.717 283.31 161.963 297.264 164.33C298.011 164.455 298.634 164.579 299.382 164.704C365.163 176.54 422.224 213.667 459.974 265.619C481.029 294.648 496.104 328.162 503.33 364.541C503.953 367.531 504.451 370.397 504.95 373.387Z" fill="url(#paint3_linear)"/>
<path d="M420.605 390.828C408.644 309.972 339 247.927 254.78 247.927C225.626 247.927 198.342 255.403 174.421 268.484V173.549C185.634 169.812 197.221 166.946 209.181 164.828C224.754 167.444 239.705 171.307 254.157 176.539C307.978 195.975 353.203 233.102 383.104 280.943C403.536 313.335 416.742 350.711 420.605 390.828Z" fill="url(#paint4_linear)"/>
<path d="M508.314 414.251V414.874C508.314 415.995 508.314 417.116 508.314 418.113C508.189 430.821 507.068 443.404 505.074 455.613C487.757 562.633 403.785 647.228 297.139 665.417C296.641 665.542 296.143 665.542 295.644 665.666C281.441 663.175 267.488 659.437 254.157 654.578C198.467 634.395 151.871 595.4 122.095 545.191C99.5449 507.317 86.5879 462.964 86.5879 415.621C86.5879 409.641 86.8371 403.661 87.2108 397.681V415.621C87.2108 499.842 149.255 569.486 230.112 581.321C237.462 582.443 244.937 583.065 252.662 583.065C252.786 583.065 252.911 583.065 253.036 583.065C253.659 583.065 254.157 583.065 254.78 583.065C259.265 583.065 263.625 582.941 267.986 582.567C271.848 582.318 275.71 581.82 279.448 581.321C317.945 577.584 353.951 565.25 385.471 546.312C435.306 516.412 474.052 469.816 493.986 414.251C498.72 401.044 502.333 387.465 504.95 373.386C506.818 384.599 507.94 396.186 508.189 407.772C508.189 409.018 508.314 410.264 508.314 411.51C508.314 412.506 508.314 413.379 508.314 414.251Z" fill="url(#paint5_linear)"/>
</g>
<defs>
<linearGradient id="paint0_linear" x1="-11.3536" y1="1.99187" x2="1.30602" y2="109.482" gradientUnits="userSpaceOnUse">
<stop stop-color="#6F0DBC"/>
<stop offset="0.479167" stop-color="#4A7ADA"/>
<stop offset="1" stop-color="#74A2FF"/>
</linearGradient>
<linearGradient id="paint1_linear" x1="93.2604" y1="612.437" x2="95.3783" y2="612.437" gradientUnits="userSpaceOnUse">
<stop stop-color="white"/>
<stop offset="1"/>
</linearGradient>
<linearGradient id="paint2_linear" x1="-38.207" y1="144.691" x2="98.9717" y2="785.889" gradientUnits="userSpaceOnUse">
<stop stop-color="#6F0DBC"/>
<stop offset="0.608987" stop-color="#4A7ADA"/>
<stop offset="1" stop-color="#74A2FF"/>
</linearGradient>
<linearGradient id="paint3_linear" x1="292.779" y1="160.717" x2="364.416" y2="581.82" gradientUnits="userSpaceOnUse">
<stop stop-color="#6F0DBC"/>
<stop offset="0.479167" stop-color="#4A7ADA"/>
<stop offset="1" stop-color="#74A2FF"/>
</linearGradient>
<linearGradient id="paint4_linear" x1="174.421" y1="277.894" x2="420.605" y2="277.894" gradientUnits="userSpaceOnUse">
<stop stop-color="#6F0DBC"/>
<stop offset="0.479167" stop-color="#4A7ADA"/>
<stop offset="1" stop-color="#74A2FF"/>
</linearGradient>
<linearGradient id="paint5_linear" x1="143.898" y1="621.064" x2="527.002" y2="389.956" gradientUnits="userSpaceOnUse">
<stop stop-color="#6F0DBC"/>
<stop offset="0.479167" stop-color="#4A7ADA"/>
<stop offset="1" stop-color="#74A2FF"/>
</linearGradient>
</defs>
</svg>
