<svg width="281" height="281" viewBox="0 0 281 281" fill="none" xmlns="http://www.w3.org/2000/svg">
<path d="M151 83.5004C151 83.9787 150.777 84.5895 150.5 84.8672C150.225 85.1411 150 84.9778 150 84.5008L150.009 84.3388C150.05 83.8926 150.255 83.3808 150.5 83.1339L150.559 83.0812C150.808 82.8832 151 83.0567 151 83.5004Z" fill="#E6E8E7"/>
<g filter="url(#filter0_d)">
<rect x="50" y="50" width="161" height="161" rx="15" fill="#3C419E"/>
</g>
<path opacity="0.9" d="M71.1553 157V147.047H73.9648C74.8307 147.047 75.5964 147.238 76.2617 147.621C76.9271 148.004 77.4398 148.549 77.7998 149.255C78.1644 149.961 78.349 150.772 78.3535 151.688V152.324C78.3535 153.263 78.1712 154.086 77.8066 154.792C77.4466 155.498 76.9294 156.041 76.2549 156.419C75.585 156.797 74.8034 156.991 73.9102 157H71.1553ZM72.4678 148.127V155.927H73.8486C74.8604 155.927 75.6465 155.612 76.207 154.983C76.7721 154.354 77.0547 153.459 77.0547 152.297V151.716C77.0547 150.586 76.7881 149.708 76.2549 149.084C75.7262 148.455 74.9743 148.136 73.999 148.127H72.4678ZM85.1309 157C85.058 156.854 84.9988 156.594 84.9532 156.221C84.3653 156.831 83.6635 157.137 82.8477 157.137C82.1186 157.137 81.5193 156.932 81.0499 156.521C80.585 156.107 80.3526 155.583 80.3526 154.949C80.3526 154.179 80.6443 153.582 81.2276 153.158C81.8155 152.73 82.6404 152.516 83.7022 152.516H84.9327V151.935C84.9327 151.493 84.8005 151.142 84.5362 150.882C84.2719 150.618 83.8822 150.485 83.3673 150.485C82.9161 150.485 82.5378 150.599 82.2325 150.827C81.9272 151.055 81.7745 151.331 81.7745 151.654H80.503C80.503 151.285 80.6329 150.93 80.8927 150.588C81.157 150.242 81.5124 149.968 81.9591 149.768C82.4102 149.567 82.9047 149.467 83.4425 149.467C84.2947 149.467 84.9623 149.681 85.4454 150.109C85.9285 150.533 86.1791 151.119 86.1973 151.866V155.271C86.1973 155.95 86.2839 156.49 86.4571 156.891V157H85.1309ZM83.0323 156.036C83.4288 156.036 83.8048 155.934 84.1602 155.729C84.5157 155.523 84.7732 155.257 84.9327 154.929V153.411H83.9415C82.392 153.411 81.6173 153.865 81.6173 154.771C81.6173 155.168 81.7494 155.478 82.0138 155.701C82.2781 155.924 82.6176 156.036 83.0323 156.036ZM90.3156 147.812V149.604H91.6964V150.581H90.3156V155.168C90.3156 155.464 90.3771 155.688 90.5002 155.838C90.6232 155.984 90.8328 156.057 91.1291 156.057C91.2749 156.057 91.4754 156.029 91.7306 155.975V157C91.3979 157.091 91.0744 157.137 90.7599 157.137C90.1948 157.137 89.7687 156.966 89.4816 156.624C89.1945 156.282 89.0509 155.797 89.0509 155.168V150.581H87.7043V149.604H89.0509V147.812H90.3156ZM98.1663 157C98.0933 156.854 98.0341 156.594 97.9885 156.221C97.4006 156.831 96.6988 157.137 95.883 157.137C95.1539 157.137 94.5546 156.932 94.0852 156.521C93.6204 156.107 93.3879 155.583 93.3879 154.949C93.3879 154.179 93.6796 153.582 94.2629 153.158C94.8508 152.73 95.6757 152.516 96.7375 152.516H97.968V151.935C97.968 151.493 97.8358 151.142 97.5715 150.882C97.3072 150.618 96.9176 150.485 96.4026 150.485C95.9514 150.485 95.5732 150.599 95.2678 150.827C94.9625 151.055 94.8098 151.331 94.8098 151.654H93.5383C93.5383 151.285 93.6682 150.93 93.928 150.588C94.1923 150.242 94.5478 149.968 94.9944 149.768C95.4455 149.567 95.94 149.467 96.4778 149.467C97.33 149.467 97.9976 149.681 98.4807 150.109C98.9638 150.533 99.2144 151.119 99.2327 151.866V155.271C99.2327 155.95 99.3192 156.49 99.4924 156.891V157H98.1663ZM96.0676 156.036C96.4641 156.036 96.8401 155.934 97.1955 155.729C97.551 155.523 97.8085 155.257 97.968 154.929V153.411H96.9768C95.4273 153.411 94.6526 153.865 94.6526 154.771C94.6526 155.168 94.7847 155.478 95.0491 155.701C95.3134 155.924 95.6529 156.036 96.0676 156.036ZM107.421 147.047L110.675 155.168L113.929 147.047H115.631V157H114.319V153.124L114.442 148.94L111.174 157H110.169L106.909 148.961L107.038 153.124V157H105.726V147.047H107.421ZM122.737 157C122.664 156.854 122.605 156.594 122.559 156.221C121.971 156.831 121.269 157.137 120.454 157.137C119.724 157.137 119.125 156.932 118.656 156.521C118.191 156.107 117.958 155.583 117.958 154.949C117.958 154.179 118.25 153.582 118.833 153.158C119.421 152.73 120.246 152.516 121.308 152.516H122.539V151.935C122.539 151.493 122.406 151.142 122.142 150.882C121.878 150.618 121.488 150.485 120.973 150.485C120.522 150.485 120.144 150.599 119.838 150.827C119.533 151.055 119.38 151.331 119.38 151.654H118.109C118.109 151.285 118.239 150.93 118.499 150.588C118.763 150.242 119.118 149.968 119.565 149.768C120.016 149.567 120.511 149.467 121.048 149.467C121.901 149.467 122.568 149.681 123.051 150.109C123.534 150.533 123.785 151.119 123.803 151.866V155.271C123.803 155.95 123.89 156.49 124.063 156.891V157H122.737ZM120.638 156.036C121.035 156.036 121.411 155.934 121.766 155.729C122.122 155.523 122.379 155.257 122.539 154.929V153.411H121.547C119.998 153.411 119.223 153.865 119.223 154.771C119.223 155.168 119.355 155.478 119.62 155.701C119.884 155.924 120.223 156.036 120.638 156.036ZM127.402 149.604L127.443 150.533C128.008 149.822 128.746 149.467 129.658 149.467C131.221 149.467 132.009 150.349 132.023 152.112V157H130.758V152.105C130.754 151.572 130.631 151.178 130.389 150.923C130.152 150.668 129.781 150.54 129.275 150.54C128.865 150.54 128.505 150.649 128.195 150.868C127.885 151.087 127.643 151.374 127.47 151.729V157H126.206V149.604H127.402ZM138.917 157C138.844 156.854 138.784 156.594 138.739 156.221C138.151 156.831 137.449 157.137 136.633 157.137C135.904 157.137 135.305 156.932 134.836 156.521C134.371 156.107 134.138 155.583 134.138 154.949C134.138 154.179 134.43 153.582 135.013 153.158C135.601 152.73 136.426 152.516 137.488 152.516H138.718V151.935C138.718 151.493 138.586 151.142 138.322 150.882C138.058 150.618 137.668 150.485 137.153 150.485C136.702 150.485 136.324 150.599 136.018 150.827C135.713 151.055 135.56 151.331 135.56 151.654H134.289C134.289 151.285 134.419 150.93 134.678 150.588C134.943 150.242 135.298 149.968 135.745 149.768C136.196 149.567 136.69 149.467 137.228 149.467C138.08 149.467 138.748 149.681 139.231 150.109C139.714 150.533 139.965 151.119 139.983 151.866V155.271C139.983 155.95 140.07 156.49 140.243 156.891V157H138.917ZM136.818 156.036C137.214 156.036 137.59 155.934 137.946 155.729C138.301 155.523 138.559 155.257 138.718 154.929V153.411H137.727C136.178 153.411 135.403 153.865 135.403 154.771C135.403 155.168 135.535 155.478 135.799 155.701C136.064 155.924 136.403 156.036 136.818 156.036ZM142.085 153.24C142.085 152.087 142.351 151.171 142.884 150.492C143.418 149.809 144.124 149.467 145.004 149.467C145.906 149.467 146.61 149.786 147.116 150.424L147.177 149.604H148.333V156.822C148.333 157.779 148.048 158.534 147.478 159.085C146.913 159.636 146.152 159.912 145.195 159.912C144.662 159.912 144.14 159.798 143.63 159.57C143.119 159.342 142.73 159.03 142.461 158.634L143.117 157.875C143.659 158.545 144.322 158.88 145.106 158.88C145.721 158.88 146.2 158.707 146.542 158.36C146.888 158.014 147.061 157.526 147.061 156.897V156.262C146.555 156.845 145.865 157.137 144.99 157.137C144.124 157.137 143.422 156.788 142.884 156.091C142.351 155.394 142.085 154.443 142.085 153.24ZM143.356 153.384C143.356 154.218 143.527 154.874 143.869 155.353C144.211 155.826 144.689 156.063 145.304 156.063C146.102 156.063 146.688 155.701 147.061 154.977V151.6C146.674 150.893 146.093 150.54 145.318 150.54C144.703 150.54 144.222 150.779 143.876 151.258C143.529 151.736 143.356 152.445 143.356 153.384ZM153.736 157.137C152.734 157.137 151.918 156.809 151.289 156.152C150.66 155.492 150.346 154.61 150.346 153.507V153.274C150.346 152.541 150.485 151.887 150.762 151.312C151.045 150.734 151.437 150.283 151.938 149.959C152.444 149.631 152.991 149.467 153.579 149.467C154.54 149.467 155.288 149.784 155.821 150.417C156.354 151.05 156.621 151.957 156.621 153.138V153.664H151.61C151.628 154.393 151.84 154.983 152.246 155.435C152.656 155.881 153.176 156.104 153.804 156.104C154.251 156.104 154.629 156.013 154.939 155.831C155.249 155.649 155.52 155.407 155.753 155.106L156.525 155.708C155.905 156.66 154.976 157.137 153.736 157.137ZM153.579 150.506C153.068 150.506 152.64 150.693 152.294 151.066C151.947 151.436 151.733 151.955 151.651 152.625H155.356V152.529C155.32 151.887 155.147 151.39 154.837 151.039C154.527 150.684 154.108 150.506 153.579 150.506ZM159.7 149.604L159.734 150.424C160.277 149.786 161.008 149.467 161.929 149.467C162.963 149.467 163.667 149.863 164.041 150.656C164.287 150.301 164.606 150.014 164.998 149.795C165.394 149.576 165.862 149.467 166.399 149.467C168.022 149.467 168.847 150.326 168.874 152.044V157H167.609V152.119C167.609 151.59 167.488 151.196 167.247 150.937C167.005 150.672 166.6 150.54 166.03 150.54C165.561 150.54 165.171 150.681 164.861 150.964C164.551 151.242 164.371 151.618 164.321 152.092V157H163.05V152.153C163.05 151.078 162.523 150.54 161.471 150.54C160.641 150.54 160.074 150.893 159.768 151.6V157H158.504V149.604H159.7ZM174.277 157.137C173.275 157.137 172.459 156.809 171.83 156.152C171.201 155.492 170.887 154.61 170.887 153.507V153.274C170.887 152.541 171.026 151.887 171.304 151.312C171.586 150.734 171.978 150.283 172.479 149.959C172.985 149.631 173.532 149.467 174.12 149.467C175.082 149.467 175.829 149.784 176.362 150.417C176.895 151.05 177.162 151.957 177.162 153.138V153.664H172.151C172.17 154.393 172.381 154.983 172.787 155.435C173.197 155.881 173.717 156.104 174.346 156.104C174.792 156.104 175.171 156.013 175.48 155.831C175.79 155.649 176.061 155.407 176.294 155.106L177.066 155.708C176.447 156.66 175.517 157.137 174.277 157.137ZM174.12 150.506C173.61 150.506 173.181 150.693 172.835 151.066C172.489 151.436 172.274 151.955 172.192 152.625H175.897V152.529C175.861 151.887 175.688 151.39 175.378 151.039C175.068 150.684 174.649 150.506 174.12 150.506ZM180.248 149.604L180.289 150.533C180.854 149.822 181.592 149.467 182.504 149.467C184.067 149.467 184.856 150.349 184.869 152.112V157H183.605V152.105C183.6 151.572 183.477 151.178 183.235 150.923C182.998 150.668 182.627 150.54 182.121 150.54C181.711 150.54 181.351 150.649 181.041 150.868C180.731 151.087 180.49 151.374 180.316 151.729V157H179.052V149.604H180.248ZM188.912 147.812V149.604H190.293V150.581H188.912V155.168C188.912 155.464 188.974 155.688 189.097 155.838C189.22 155.984 189.429 156.057 189.726 156.057C189.872 156.057 190.072 156.029 190.327 155.975V157C189.995 157.091 189.671 157.137 189.357 157.137C188.791 157.137 188.365 156.966 188.078 156.624C187.791 156.282 187.648 155.797 187.648 155.168V150.581H186.301V149.604H187.648V147.812H188.912Z" fill="white"/>
<path d="M147.25 108.723C147.25 105.762 146.297 103.265 144.614 101.508C142.931 99.7496 140.537 98.75 137.692 98.75H123.308C120.463 98.75 118.069 99.7496 116.386 101.508C114.703 103.265 113.75 105.762 113.75 108.723V122.277C113.75 125.238 114.703 127.735 116.386 129.492C118.069 131.25 120.463 132.25 123.308 132.25H137.692C140.537 132.25 142.931 131.25 144.614 129.492C146.297 127.735 147.25 125.238 147.25 122.277V108.723ZM123.308 101.552H137.692C139.761 101.552 141.444 102.258 142.609 103.493C143.777 104.73 144.448 106.519 144.448 108.723V122.277C144.448 124.481 143.777 126.27 142.609 127.507C141.444 128.742 139.761 129.448 137.692 129.448H123.308C121.239 129.448 119.557 128.742 118.391 127.507C117.224 126.27 116.552 124.481 116.552 122.277V108.723C116.552 106.519 117.224 104.73 118.391 103.493C119.557 102.258 121.239 101.552 123.308 101.552ZM124.796 112.741C124.796 111.968 124.169 111.34 123.395 111.34C122.622 111.34 121.994 111.968 121.994 112.741V123.27C121.994 124.044 122.622 124.672 123.395 124.672C124.169 124.672 124.796 124.044 124.796 123.27V112.741ZM131.96 107.7C131.96 106.927 131.332 106.299 130.558 106.299C129.785 106.299 129.157 106.927 129.157 107.7V123.269C129.157 124.042 129.785 124.67 130.558 124.67C131.332 124.67 131.96 124.042 131.96 123.269V107.7ZM139.005 118.305C139.005 117.531 138.378 116.904 137.604 116.904C136.831 116.904 136.203 117.531 136.203 118.305V123.269C136.203 124.042 136.831 124.67 137.604 124.67C138.378 124.67 139.005 124.042 139.005 123.269V118.305Z" fill="white" stroke="white" stroke-width="0.5"/>
<defs>
<filter id="filter0_d" x="0" y="0" width="281" height="281" filterUnits="userSpaceOnUse" color-interpolation-filters="sRGB">
<feFlood flood-opacity="0" result="BackgroundImageFix"/>
<feColorMatrix in="SourceAlpha" type="matrix" values="0 0 0 0 0 0 0 0 0 0 0 0 0 0 0 0 0 0 127 0"/>
<feOffset dx="10" dy="10"/>
<feGaussianBlur stdDeviation="30"/>
<feColorMatrix type="matrix" values="0 0 0 0 0 0 0 0 0 0 0 0 0 0 0 0 0 0 0.2 0"/>
<feBlend mode="normal" in2="BackgroundImageFix" result="effect1_dropShadow"/>
<feBlend mode="normal" in="SourceGraphic" in2="effect1_dropShadow" result="shape"/>
</filter>
</defs>
</svg>
