<svg width="281" height="281" viewBox="0 0 281 281" fill="none" xmlns="http://www.w3.org/2000/svg">
<path d="M151 83.5004C151 83.9787 150.777 84.5895 150.5 84.8672C150.225 85.1411 150 84.9778 150 84.5008L150.009 84.3388C150.05 83.8926 150.255 83.3808 150.5 83.1339L150.559 83.0812C150.808 82.8832 151 83.0567 151 83.5004Z" fill="#E6E8E7"/>
<g filter="url(#filter0_d)">
<rect x="50" y="50" width="161" height="161" rx="15" fill="#3C419E"/>
</g>
<path fill-rule="evenodd" clip-rule="evenodd" d="M129.773 115.828L129.999 115.828L130.504 115.83C134.365 115.855 143.189 116.245 143.189 122.226C143.189 128.167 134.673 128.555 130.564 128.58L129.042 128.58C125.181 128.555 116.355 128.165 116.355 122.192C116.355 116.243 125.181 115.855 129.042 115.83L129.547 115.828C129.626 115.828 129.701 115.828 129.773 115.828ZM129.773 118.828C125.021 118.828 119.355 119.412 119.355 122.192C119.355 124.909 124.683 125.544 129.339 125.58L129.773 125.582C134.525 125.582 140.189 125 140.189 122.226C140.189 119.418 134.525 118.828 129.773 118.828ZM145.68 115.016C150.526 115.742 151.544 118.018 151.544 119.8C151.544 120.888 151.116 122.874 148.256 123.964C148.08 124.03 147.9 124.062 147.722 124.062C147.118 124.062 146.548 123.694 146.32 123.096C146.024 122.322 146.414 121.454 147.188 121.16C148.544 120.644 148.544 120.074 148.544 119.8C148.544 118.924 147.43 118.312 145.234 117.984C144.416 117.86 143.85 117.098 143.972 116.276C144.094 115.456 144.854 114.91 145.68 115.016ZM115.572 116.276C115.694 117.098 115.128 117.86 114.31 117.984C112.114 118.312 111 118.924 111 119.8C111 120.074 111 120.642 112.358 121.16C113.132 121.454 113.522 122.322 113.226 123.096C112.998 123.694 112.428 124.062 111.824 124.062C111.646 124.062 111.466 124.03 111.29 123.964C108.428 122.872 108 120.886 108 119.8C108 118.02 109.018 115.742 113.866 115.016C114.692 114.912 115.448 115.456 115.572 116.276ZM129.773 95C134.813 95 138.911 99.1 138.911 104.138C138.911 109.176 134.813 113.276 129.773 113.276H129.719C127.279 113.268 124.993 112.312 123.281 110.584C121.565 108.858 120.627 106.566 120.637 104.132C120.637 99.1 124.735 95 129.773 95ZM129.773 98C126.389 98 123.637 100.754 123.637 104.138C123.631 105.778 124.259 107.312 125.409 108.47C126.559 109.628 128.091 110.27 129.723 110.276L129.773 111.776V110.276C133.157 110.276 135.911 107.524 135.911 104.138C135.911 100.754 133.157 98 129.773 98ZM142.151 96.959C145.667 97.537 148.221 100.545 148.221 104.111C148.213 107.701 145.531 110.781 141.981 111.279C141.911 111.289 141.841 111.293 141.773 111.293C141.037 111.293 140.395 110.751 140.289 110.001C140.175 109.179 140.745 108.421 141.567 108.307C143.647 108.015 145.217 106.211 145.221 104.107C145.221 102.021 143.725 100.257 141.663 99.919C140.847 99.785 140.293 99.013 140.427 98.195C140.563 97.377 141.329 96.829 142.151 96.959ZM119.119 98.195C119.253 99.013 118.699 99.785 117.883 99.919C115.821 100.257 114.325 102.021 114.325 104.111C114.329 106.211 115.899 108.017 117.977 108.307C118.799 108.421 119.369 109.179 119.255 110.001C119.149 110.751 118.507 111.293 117.771 111.293C117.703 111.293 117.633 111.289 117.563 111.279C114.013 110.781 111.333 107.701 111.325 104.115C111.325 100.545 113.879 97.537 117.395 96.959C118.237 96.827 118.983 97.381 119.119 98.195Z" fill="white"/>
<path opacity="0.9" d="M70.4678 149.104V153H69.1553V143.047H72.8262C73.9154 143.047 74.7676 143.325 75.3828 143.881C76.0026 144.437 76.3125 145.173 76.3125 146.089C76.3125 147.055 76.0094 147.8 75.4033 148.324C74.8018 148.844 73.9382 149.104 72.8125 149.104H70.4678ZM70.4678 148.03H72.8262C73.528 148.03 74.0658 147.866 74.4395 147.538C74.8132 147.205 75 146.727 75 146.103C75 145.51 74.8132 145.036 74.4395 144.681C74.0658 144.325 73.5531 144.141 72.9014 144.127H70.4678V148.03ZM81.7843 146.738C81.5929 146.706 81.3855 146.69 81.1622 146.69C80.3328 146.69 79.7699 147.044 79.4737 147.75V153H78.2091V145.604H79.4395L79.46 146.458C79.8748 145.797 80.4626 145.467 81.2237 145.467C81.4698 145.467 81.6567 145.499 81.7843 145.562V146.738ZM82.9015 149.233C82.9015 148.509 83.0428 147.857 83.3254 147.278C83.6125 146.7 84.0089 146.253 84.5148 145.938C85.0252 145.624 85.6063 145.467 86.258 145.467C87.2651 145.467 88.0786 145.815 88.6984 146.513C89.3227 147.21 89.6349 148.137 89.6349 149.295V149.384C89.6349 150.104 89.4959 150.751 89.2179 151.325C88.9445 151.895 88.5503 152.339 88.0353 152.658C87.5249 152.977 86.937 153.137 86.2716 153.137C85.269 153.137 84.4556 152.788 83.8312 152.091C83.2114 151.394 82.9015 150.471 82.9015 149.322V149.233ZM84.173 149.384C84.173 150.204 84.3621 150.863 84.7404 151.359C85.1232 151.856 85.6336 152.104 86.2716 152.104C86.9142 152.104 87.4246 151.854 87.8029 151.353C88.1811 150.847 88.3703 150.14 88.3703 149.233C88.3703 148.422 88.1766 147.766 87.7892 147.265C87.4064 146.759 86.896 146.506 86.258 146.506C85.6336 146.506 85.13 146.754 84.7472 147.251C84.3644 147.748 84.173 148.459 84.173 149.384ZM92.2629 153V146.581H91.094V145.604H92.2629V144.845C92.2629 144.052 92.4748 143.439 92.8987 143.006C93.3225 142.573 93.9218 142.356 94.6965 142.356C94.9882 142.356 95.2776 142.395 95.5647 142.473L95.4963 143.498C95.2821 143.457 95.0543 143.437 94.8127 143.437C94.4026 143.437 94.0858 143.557 93.8625 143.799C93.6392 144.036 93.5276 144.378 93.5276 144.824V145.604H95.1067V146.581H93.5276V153H92.2629ZM99.8333 153.137C98.8307 153.137 98.015 152.809 97.3861 152.152C96.7571 151.492 96.4427 150.61 96.4427 149.507V149.274C96.4427 148.541 96.5817 147.887 96.8597 147.312C97.1422 146.734 97.5342 146.283 98.0355 145.959C98.5413 145.631 99.0882 145.467 99.6761 145.467C100.638 145.467 101.385 145.784 101.918 146.417C102.451 147.05 102.718 147.957 102.718 149.138V149.664H97.7073C97.7256 150.393 97.9375 150.983 98.3431 151.435C98.7532 151.881 99.2728 152.104 99.9017 152.104C100.348 152.104 100.727 152.013 101.036 151.831C101.346 151.649 101.618 151.407 101.85 151.106L102.622 151.708C102.003 152.66 101.073 153.137 99.8333 153.137ZM99.6761 146.506C99.1657 146.506 98.7373 146.693 98.3909 147.066C98.0446 147.436 97.8304 147.955 97.7484 148.625H101.453V148.529C101.417 147.887 101.244 147.39 100.934 147.039C100.624 146.684 100.205 146.506 99.6761 146.506ZM108.914 151.038C108.914 150.696 108.785 150.432 108.525 150.245C108.27 150.054 107.821 149.89 107.178 149.753C106.54 149.616 106.032 149.452 105.654 149.261C105.28 149.069 105.002 148.841 104.82 148.577C104.642 148.313 104.553 147.998 104.553 147.634C104.553 147.028 104.808 146.515 105.319 146.096C105.834 145.676 106.49 145.467 107.287 145.467C108.126 145.467 108.805 145.683 109.325 146.116C109.849 146.549 110.111 147.103 110.111 147.777H108.839C108.839 147.431 108.691 147.132 108.395 146.882C108.103 146.631 107.734 146.506 107.287 146.506C106.827 146.506 106.467 146.606 106.207 146.807C105.948 147.007 105.818 147.269 105.818 147.593C105.818 147.898 105.939 148.128 106.18 148.283C106.422 148.438 106.857 148.586 107.486 148.728C108.119 148.869 108.632 149.037 109.024 149.233C109.416 149.429 109.705 149.666 109.892 149.944C110.083 150.218 110.179 150.553 110.179 150.949C110.179 151.61 109.915 152.141 109.386 152.542C108.857 152.938 108.172 153.137 107.329 153.137C106.736 153.137 106.212 153.032 105.756 152.822C105.301 152.613 104.943 152.321 104.683 151.947C104.428 151.569 104.3 151.161 104.3 150.724H105.565C105.588 151.147 105.756 151.485 106.071 151.735C106.39 151.981 106.809 152.104 107.329 152.104C107.807 152.104 108.19 152.009 108.477 151.817C108.769 151.621 108.914 151.362 108.914 151.038ZM116.553 151.038C116.553 150.696 116.423 150.432 116.164 150.245C115.908 150.054 115.459 149.89 114.817 149.753C114.179 149.616 113.671 149.452 113.292 149.261C112.919 149.069 112.641 148.841 112.458 148.577C112.281 148.313 112.192 147.998 112.192 147.634C112.192 147.028 112.447 146.515 112.958 146.096C113.472 145.676 114.129 145.467 114.926 145.467C115.765 145.467 116.444 145.683 116.963 146.116C117.487 146.549 117.749 147.103 117.749 147.777H116.478C116.478 147.431 116.33 147.132 116.034 146.882C115.742 146.631 115.373 146.506 114.926 146.506C114.466 146.506 114.106 146.606 113.846 146.807C113.586 147.007 113.457 147.269 113.457 147.593C113.457 147.898 113.577 148.128 113.819 148.283C114.06 148.438 114.496 148.586 115.124 148.728C115.758 148.869 116.271 149.037 116.663 149.233C117.055 149.429 117.344 149.666 117.531 149.944C117.722 150.218 117.818 150.553 117.818 150.949C117.818 151.61 117.554 152.141 117.025 152.542C116.496 152.938 115.81 153.137 114.967 153.137C114.375 153.137 113.851 153.032 113.395 152.822C112.939 152.613 112.582 152.321 112.322 151.947C112.067 151.569 111.939 151.161 111.939 150.724H113.204C113.226 151.147 113.395 151.485 113.709 151.735C114.028 151.981 114.448 152.104 114.967 152.104C115.446 152.104 115.829 152.009 116.116 151.817C116.407 151.621 116.553 151.362 116.553 151.038ZM121.259 153H119.995V145.604H121.259V153ZM119.892 143.642C119.892 143.437 119.954 143.263 120.077 143.122C120.204 142.981 120.391 142.91 120.637 142.91C120.883 142.91 121.07 142.981 121.198 143.122C121.325 143.263 121.389 143.437 121.389 143.642C121.389 143.847 121.325 144.018 121.198 144.154C121.07 144.291 120.883 144.359 120.637 144.359C120.391 144.359 120.204 144.291 120.077 144.154C119.954 144.018 119.892 143.847 119.892 143.642ZM123.375 149.233C123.375 148.509 123.516 147.857 123.798 147.278C124.086 146.7 124.482 146.253 124.988 145.938C125.498 145.624 126.079 145.467 126.731 145.467C127.738 145.467 128.552 145.815 129.172 146.513C129.796 147.21 130.108 148.137 130.108 149.295V149.384C130.108 150.104 129.969 150.751 129.691 151.325C129.418 151.895 129.023 152.339 128.508 152.658C127.998 152.977 127.41 153.137 126.745 153.137C125.742 153.137 124.929 152.788 124.304 152.091C123.685 151.394 123.375 150.471 123.375 149.322V149.233ZM124.646 149.384C124.646 150.204 124.835 150.863 125.214 151.359C125.596 151.856 126.107 152.104 126.745 152.104C127.387 152.104 127.898 151.854 128.276 151.353C128.654 150.847 128.843 150.14 128.843 149.233C128.843 148.422 128.65 147.766 128.262 147.265C127.88 146.759 127.369 146.506 126.731 146.506C126.107 146.506 125.603 146.754 125.22 147.251C124.838 147.748 124.646 148.459 124.646 149.384ZM133.31 145.604L133.351 146.533C133.916 145.822 134.655 145.467 135.566 145.467C137.129 145.467 137.918 146.349 137.931 148.112V153H136.667V148.105C136.662 147.572 136.539 147.178 136.298 146.923C136.061 146.668 135.689 146.54 135.183 146.54C134.773 146.54 134.413 146.649 134.103 146.868C133.793 147.087 133.552 147.374 133.379 147.729V153H132.114V145.604H133.31ZM144.825 153C144.752 152.854 144.693 152.594 144.647 152.221C144.059 152.831 143.358 153.137 142.542 153.137C141.813 153.137 141.213 152.932 140.744 152.521C140.279 152.107 140.047 151.583 140.047 150.949C140.047 150.179 140.338 149.582 140.922 149.158C141.51 148.73 142.334 148.516 143.396 148.516H144.627V147.935C144.627 147.493 144.495 147.142 144.23 146.882C143.966 146.618 143.576 146.485 143.061 146.485C142.61 146.485 142.232 146.599 141.927 146.827C141.621 147.055 141.469 147.331 141.469 147.654H140.197C140.197 147.285 140.327 146.93 140.587 146.588C140.851 146.242 141.207 145.968 141.653 145.768C142.104 145.567 142.599 145.467 143.137 145.467C143.989 145.467 144.656 145.681 145.139 146.109C145.623 146.533 145.873 147.119 145.891 147.866V151.271C145.891 151.95 145.978 152.49 146.151 152.891V153H144.825ZM142.726 152.036C143.123 152.036 143.499 151.934 143.854 151.729C144.21 151.523 144.467 151.257 144.627 150.929V149.411H143.636C142.086 149.411 141.311 149.865 141.311 150.771C141.311 151.168 141.443 151.478 141.708 151.701C141.972 151.924 142.312 152.036 142.726 152.036ZM149.668 153H148.403V142.5H149.668V153ZM162.813 144.127H159.613V153H158.308V144.127H155.115V143.047H162.813V144.127ZM166.897 153.137C165.894 153.137 165.078 152.809 164.449 152.152C163.82 151.492 163.506 150.61 163.506 149.507V149.274C163.506 148.541 163.645 147.887 163.923 147.312C164.206 146.734 164.597 146.283 165.099 145.959C165.605 145.631 166.151 145.467 166.739 145.467C167.701 145.467 168.448 145.784 168.982 146.417C169.515 147.05 169.781 147.957 169.781 149.138V149.664H164.771C164.789 150.393 165.001 150.983 165.406 151.435C165.817 151.881 166.336 152.104 166.965 152.104C167.412 152.104 167.79 152.013 168.1 151.831C168.41 151.649 168.681 151.407 168.913 151.106L169.686 151.708C169.066 152.66 168.136 153.137 166.897 153.137ZM166.739 146.506C166.229 146.506 165.801 146.693 165.454 147.066C165.108 147.436 164.894 147.955 164.812 148.625H168.517V148.529C168.48 147.887 168.307 147.39 167.997 147.039C167.687 146.684 167.268 146.506 166.739 146.506ZM176.238 153C176.165 152.854 176.105 152.594 176.06 152.221C175.472 152.831 174.77 153.137 173.954 153.137C173.225 153.137 172.626 152.932 172.156 152.521C171.692 152.107 171.459 151.583 171.459 150.949C171.459 150.179 171.751 149.582 172.334 149.158C172.922 148.73 173.747 148.516 174.809 148.516H176.039V147.935C176.039 147.493 175.907 147.142 175.643 146.882C175.378 146.618 174.989 146.485 174.474 146.485C174.023 146.485 173.644 146.599 173.339 146.827C173.034 147.055 172.881 147.331 172.881 147.654H171.61C171.61 147.285 171.739 146.93 171.999 146.588C172.264 146.242 172.619 145.968 173.066 145.768C173.517 145.567 174.011 145.467 174.549 145.467C175.401 145.467 176.069 145.681 176.552 146.109C177.035 146.533 177.286 147.119 177.304 147.866V151.271C177.304 151.95 177.39 152.49 177.564 152.891V153H176.238ZM174.139 152.036C174.535 152.036 174.911 151.934 175.267 151.729C175.622 151.523 175.88 151.257 176.039 150.929V149.411H175.048C173.499 149.411 172.724 149.865 172.724 150.771C172.724 151.168 172.856 151.478 173.12 151.701C173.385 151.924 173.724 152.036 174.139 152.036ZM180.896 145.604L180.93 146.424C181.472 145.786 182.204 145.467 183.124 145.467C184.159 145.467 184.863 145.863 185.237 146.656C185.483 146.301 185.802 146.014 186.194 145.795C186.59 145.576 187.057 145.467 187.595 145.467C189.217 145.467 190.042 146.326 190.07 148.044V153H188.805V148.119C188.805 147.59 188.684 147.196 188.443 146.937C188.201 146.672 187.796 146.54 187.226 146.54C186.756 146.54 186.367 146.681 186.057 146.964C185.747 147.242 185.567 147.618 185.517 148.092V153H184.245V148.153C184.245 147.078 183.719 146.54 182.666 146.54C181.837 146.54 181.269 146.893 180.964 147.6V153H179.699V145.604H180.896Z" fill="white"/>
<defs>
<filter id="filter0_d" x="0" y="0" width="281" height="281" filterUnits="userSpaceOnUse" color-interpolation-filters="sRGB">
<feFlood flood-opacity="0" result="BackgroundImageFix"/>
<feColorMatrix in="SourceAlpha" type="matrix" values="0 0 0 0 0 0 0 0 0 0 0 0 0 0 0 0 0 0 127 0"/>
<feOffset dx="10" dy="10"/>
<feGaussianBlur stdDeviation="30"/>
<feColorMatrix type="matrix" values="0 0 0 0 0 0 0 0 0 0 0 0 0 0 0 0 0 0 0.2 0"/>
<feBlend mode="normal" in2="BackgroundImageFix" result="effect1_dropShadow"/>
<feBlend mode="normal" in="SourceGraphic" in2="effect1_dropShadow" result="shape"/>
</filter>
</defs>
</svg>
