<svg width="281" height="281" viewBox="0 0 281 281" fill="none" xmlns="http://www.w3.org/2000/svg">
<path d="M151 83.5004C151 83.9787 150.777 84.5895 150.5 84.8672C150.225 85.1411 150 84.9778 150 84.5008L150.009 84.3388C150.05 83.8926 150.255 83.3808 150.5 83.1339L150.559 83.0812C150.808 82.8832 151 83.0567 151 83.5004Z" fill="#E6E8E7"/>
<g filter="url(#filter0_d)">
<rect x="50" y="50" width="161" height="161" rx="15" fill="#3C419E"/>
</g>
<path opacity="0.9" d="M94.3486 157H87.8271V156.091L91.2725 152.263C91.7829 151.684 92.1338 151.215 92.3252 150.854C92.5212 150.49 92.6191 150.114 92.6191 149.727C92.6191 149.207 92.4619 148.781 92.1475 148.448C91.833 148.116 91.4137 147.949 90.8896 147.949C90.2607 147.949 89.7708 148.129 89.4199 148.489C89.0736 148.845 88.9004 149.341 88.9004 149.979H87.6357C87.6357 149.063 87.9297 148.323 88.5176 147.758C89.11 147.193 89.9007 146.91 90.8896 146.91C91.8148 146.91 92.5462 147.154 93.084 147.642C93.6217 148.125 93.8906 148.77 93.8906 149.576C93.8906 150.556 93.2663 151.723 92.0176 153.076L89.3516 155.968H94.3486V157ZM101.447 153.657H102.828V154.689H101.447V157H100.176V154.689H95.6436V153.944L100.101 147.047H101.447V153.657ZM97.0792 153.657H100.176V148.776L100.025 149.05L97.0792 153.657ZM104.773 157.854H103.686L107.842 147.047H108.922L104.773 157.854ZM117.005 147.758L112.883 157H111.557L115.665 148.086H110.279V147.047H117.005V147.758ZM126.014 152.563C124.888 152.24 124.068 151.843 123.553 151.374C123.043 150.9 122.787 150.317 122.787 149.624C122.787 148.84 123.1 148.193 123.724 147.683C124.353 147.168 125.169 146.91 126.171 146.91C126.855 146.91 127.463 147.042 127.996 147.307C128.534 147.571 128.949 147.936 129.241 148.4C129.537 148.865 129.685 149.373 129.685 149.925H128.366C128.366 149.323 128.174 148.852 127.791 148.51C127.409 148.163 126.869 147.99 126.171 147.99C125.524 147.99 125.018 148.134 124.654 148.421C124.294 148.703 124.114 149.098 124.114 149.604C124.114 150.009 124.285 150.353 124.626 150.636C124.973 150.914 125.558 151.169 126.383 151.401C127.213 151.634 127.86 151.891 128.325 152.174C128.794 152.452 129.14 152.778 129.364 153.151C129.592 153.525 129.705 153.965 129.705 154.471C129.705 155.277 129.391 155.924 128.762 156.412C128.133 156.895 127.292 157.137 126.24 157.137C125.556 157.137 124.918 157.007 124.326 156.747C123.733 156.483 123.275 156.123 122.952 155.667C122.633 155.211 122.473 154.694 122.473 154.115H123.792C123.792 154.717 124.013 155.193 124.455 155.544C124.902 155.89 125.497 156.063 126.24 156.063C126.932 156.063 127.463 155.922 127.832 155.64C128.202 155.357 128.386 154.972 128.386 154.484C128.386 153.997 128.215 153.621 127.873 153.356C127.532 153.088 126.912 152.823 126.014 152.563ZM136.182 156.269C135.69 156.847 134.968 157.137 134.015 157.137C133.227 157.137 132.625 156.909 132.21 156.453C131.8 155.993 131.593 155.314 131.588 154.416V149.604H132.853V154.382C132.853 155.503 133.309 156.063 134.22 156.063C135.186 156.063 135.829 155.703 136.148 154.983V149.604H137.413V157H136.209L136.182 156.269ZM146.008 153.384C146.008 154.509 145.751 155.416 145.236 156.104C144.721 156.793 144.024 157.137 143.144 157.137C142.246 157.137 141.54 156.852 141.025 156.282V159.844H139.76V149.604H140.916L140.977 150.424C141.492 149.786 142.208 149.467 143.124 149.467C144.012 149.467 144.714 149.802 145.229 150.472C145.749 151.142 146.008 152.074 146.008 153.268V153.384ZM144.744 153.24C144.744 152.406 144.566 151.748 144.211 151.265C143.855 150.782 143.367 150.54 142.748 150.54C141.982 150.54 141.408 150.88 141.025 151.559V155.093C141.403 155.767 141.982 156.104 142.761 156.104C143.367 156.104 143.848 155.865 144.204 155.387C144.564 154.904 144.744 154.188 144.744 153.24ZM154.29 153.384C154.29 154.509 154.032 155.416 153.517 156.104C153.002 156.793 152.305 157.137 151.425 157.137C150.528 157.137 149.821 156.852 149.306 156.282V159.844H148.042V149.604H149.197L149.258 150.424C149.773 149.786 150.489 149.467 151.405 149.467C152.294 149.467 152.995 149.802 153.51 150.472C154.03 151.142 154.29 152.074 154.29 153.268V153.384ZM153.025 153.24C153.025 152.406 152.847 151.748 152.492 151.265C152.136 150.782 151.649 150.54 151.029 150.54C150.263 150.54 149.689 150.88 149.306 151.559V155.093C149.685 155.767 150.263 156.104 151.043 156.104C151.649 156.104 152.13 155.865 152.485 155.387C152.845 154.904 153.025 154.188 153.025 153.24ZM155.988 153.233C155.988 152.509 156.129 151.857 156.412 151.278C156.699 150.7 157.095 150.253 157.601 149.938C158.112 149.624 158.693 149.467 159.344 149.467C160.352 149.467 161.165 149.815 161.785 150.513C162.409 151.21 162.721 152.137 162.721 153.295V153.384C162.721 154.104 162.582 154.751 162.304 155.325C162.031 155.895 161.637 156.339 161.122 156.658C160.611 156.977 160.023 157.137 159.358 157.137C158.356 157.137 157.542 156.788 156.918 156.091C156.298 155.394 155.988 154.471 155.988 153.322V153.233ZM157.259 153.384C157.259 154.204 157.449 154.863 157.827 155.359C158.21 155.856 158.72 156.104 159.358 156.104C160.001 156.104 160.511 155.854 160.889 155.353C161.268 154.847 161.457 154.14 161.457 153.233C161.457 152.422 161.263 151.766 160.876 151.265C160.493 150.759 159.982 150.506 159.344 150.506C158.72 150.506 158.217 150.754 157.834 151.251C157.451 151.748 157.259 152.459 157.259 153.384ZM168.303 150.738C168.111 150.706 167.904 150.69 167.68 150.69C166.851 150.69 166.288 151.044 165.992 151.75V157H164.727V149.604H165.958L165.978 150.458C166.393 149.797 166.981 149.467 167.742 149.467C167.988 149.467 168.175 149.499 168.303 149.562V150.738ZM171.949 147.812V149.604H173.33V150.581H171.949V155.168C171.949 155.464 172.011 155.688 172.134 155.838C172.257 155.984 172.466 156.057 172.763 156.057C172.908 156.057 173.109 156.029 173.364 155.975V157C173.031 157.091 172.708 157.137 172.393 157.137C171.828 157.137 171.402 156.966 171.115 156.624C170.828 156.282 170.684 155.797 170.684 155.168V150.581H169.338V149.604H170.684V147.812H171.949Z" fill="white"/>
<path d="M123.075 110.128C123.648 109.497 124.585 108.9 125.962 108.9C127.863 108.9 129.088 110.207 129.518 111.641C129.936 113.038 129.683 114.767 128.495 115.96C128.083 116.356 127.646 116.726 127.187 117.066L127.121 117.117C126.659 117.473 126.246 117.797 125.883 118.156C125.463 118.579 125.118 119.039 124.918 119.625H128.437C128.766 119.625 129.08 119.755 129.313 119.987C129.545 120.219 129.675 120.534 129.675 120.862C129.675 121.191 129.545 121.505 129.313 121.737C129.08 121.97 128.766 122.1 128.437 122.1H123.487C123.159 122.1 122.845 121.97 122.612 121.737C122.38 121.505 122.25 121.191 122.25 120.862C122.25 118.805 123.115 117.425 124.138 116.406C124.626 115.917 125.157 115.507 125.606 115.158L125.611 115.155C126.083 114.79 126.449 114.507 126.741 114.215C127.19 113.762 127.347 113.018 127.147 112.35C126.957 111.721 126.537 111.375 125.962 111.375C125.38 111.375 125.08 111.601 124.906 111.792C124.805 111.904 124.723 112.032 124.662 112.17V112.175C124.561 112.488 124.34 112.747 124.048 112.897C123.755 113.046 123.415 113.073 123.103 112.972C122.791 112.871 122.531 112.65 122.382 112.358C122.232 112.065 122.205 111.725 122.306 111.413L122.364 111.254C122.533 110.841 122.773 110.459 123.073 110.128H123.075Z" fill="white"/>
<path d="M132.563 108.9C132.891 108.9 133.205 109.03 133.438 109.262C133.67 109.494 133.8 109.809 133.8 110.137V114.675H136.275V110.137C136.275 109.809 136.405 109.494 136.637 109.262C136.87 109.03 137.184 108.9 137.513 108.9C137.841 108.9 138.155 109.03 138.388 109.262C138.62 109.494 138.75 109.809 138.75 110.137V120.813C138.75 121.141 138.62 121.456 138.388 121.688C138.155 121.92 137.841 122.05 137.513 122.05C137.184 122.05 136.87 121.92 136.637 121.688C136.405 121.456 136.275 121.141 136.275 120.813V117.15H132.563C132.234 117.15 131.92 117.02 131.687 116.787C131.455 116.555 131.325 116.241 131.325 115.912V110.137C131.325 109.809 131.455 109.494 131.687 109.262C131.92 109.03 132.234 108.9 132.563 108.9Z" fill="white"/>
<path d="M147 115.5C147 106.387 139.613 99 130.5 99C121.387 99 114 106.387 114 115.5C114 124.613 121.387 132 130.5 132C139.613 132 147 124.613 147 115.5ZM116.475 115.5C116.475 111.78 117.953 108.213 120.583 105.583C123.213 102.953 126.78 101.475 130.5 101.475C134.22 101.475 137.787 102.953 140.417 105.583C143.047 108.213 144.525 111.78 144.525 115.5C144.525 119.22 143.047 122.787 140.417 125.417C137.787 128.047 134.22 129.525 130.5 129.525C126.78 129.525 123.213 128.047 120.583 125.417C117.953 122.787 116.475 119.22 116.475 115.5Z" fill="white"/>
<defs>
<filter id="filter0_d" x="0" y="0" width="281" height="281" filterUnits="userSpaceOnUse" color-interpolation-filters="sRGB">
<feFlood flood-opacity="0" result="BackgroundImageFix"/>
<feColorMatrix in="SourceAlpha" type="matrix" values="0 0 0 0 0 0 0 0 0 0 0 0 0 0 0 0 0 0 127 0"/>
<feOffset dx="10" dy="10"/>
<feGaussianBlur stdDeviation="30"/>
<feColorMatrix type="matrix" values="0 0 0 0 0 0 0 0 0 0 0 0 0 0 0 0 0 0 0.2 0"/>
<feBlend mode="normal" in2="BackgroundImageFix" result="effect1_dropShadow"/>
<feBlend mode="normal" in="SourceGraphic" in2="effect1_dropShadow" result="shape"/>
</filter>
</defs>
</svg>
