<svg width="281" height="281" viewBox="0 0 281 281" fill="none" xmlns="http://www.w3.org/2000/svg">
<path d="M151 83.5004C151 83.9787 150.777 84.5895 150.5 84.8672C150.225 85.1411 150 84.9778 150 84.5008L150.009 84.3388C150.05 83.8926 150.255 83.3808 150.5 83.1339L150.559 83.0812C150.808 82.8832 151 83.0567 151 83.5004Z" fill="#E6E8E7"/>
<g filter="url(#filter0_d)">
<rect x="50" y="50" width="161" height="161" rx="15" fill="#3C419E"/>
</g>
<path opacity="0.9" d="M91.2944 147.047V153.814C91.2898 154.753 90.9936 155.521 90.4057 156.118C89.8224 156.715 89.0294 157.05 88.0268 157.123L87.6782 157.137C86.589 157.137 85.7208 156.843 85.0737 156.255C84.4265 155.667 84.0984 154.858 84.0893 153.828V147.047H85.3881V153.787C85.3881 154.507 85.5864 155.068 85.9829 155.469C86.3793 155.865 86.9444 156.063 87.6782 156.063C88.421 156.063 88.9884 155.865 89.3803 155.469C89.7768 155.072 89.975 154.514 89.975 153.794V147.047H91.2944ZM99.8355 153.384C99.8355 154.509 99.578 155.416 99.063 156.104C98.548 156.793 97.8508 157.137 96.9712 157.137C96.0734 157.137 95.367 156.852 94.8521 156.282V159.844H93.5874V149.604H94.7427L94.8042 150.424C95.3192 149.786 96.0347 149.467 96.9507 149.467C97.8394 149.467 98.5412 149.802 99.0562 150.472C99.5757 151.142 99.8355 152.074 99.8355 153.268V153.384ZM98.5708 153.24C98.5708 152.406 98.3931 151.748 98.0376 151.265C97.6821 150.782 97.1945 150.54 96.5747 150.54C95.8091 150.54 95.2349 150.88 94.8521 151.559V155.093C95.2303 155.767 95.8091 156.104 96.5884 156.104C97.1945 156.104 97.6753 155.865 98.0308 155.387C98.3908 154.904 98.5708 154.188 98.5708 153.24ZM112.563 148.127H109.364V157H108.058V148.127H104.866V147.047H112.563V148.127ZM113.243 153.233C113.243 152.509 113.384 151.857 113.667 151.278C113.954 150.7 114.35 150.253 114.856 149.938C115.367 149.624 115.948 149.467 116.599 149.467C117.607 149.467 118.42 149.815 119.04 150.513C119.664 151.21 119.976 152.137 119.976 153.295V153.384C119.976 154.104 119.837 154.751 119.559 155.325C119.286 155.895 118.892 156.339 118.377 156.658C117.866 156.977 117.278 157.137 116.613 157.137C115.61 157.137 114.797 156.788 114.173 156.091C113.553 155.394 113.243 154.471 113.243 153.322V153.233ZM114.514 153.384C114.514 154.204 114.704 154.863 115.082 155.359C115.465 155.856 115.975 156.104 116.613 156.104C117.256 156.104 117.766 155.854 118.144 155.353C118.523 154.847 118.712 154.14 118.712 153.233C118.712 152.422 118.518 151.766 118.131 151.265C117.748 150.759 117.237 150.506 116.599 150.506C115.975 150.506 115.471 150.754 115.089 151.251C114.706 151.748 114.514 152.459 114.514 153.384ZM131.781 149.645C131.781 150.141 131.649 150.583 131.385 150.971C131.125 151.358 130.772 151.661 130.325 151.88C130.845 152.103 131.255 152.429 131.556 152.857C131.861 153.286 132.014 153.771 132.014 154.313C132.014 155.175 131.722 155.861 131.139 156.371C130.56 156.882 129.796 157.137 128.849 157.137C127.892 157.137 127.124 156.882 126.545 156.371C125.971 155.856 125.684 155.17 125.684 154.313C125.684 153.776 125.829 153.29 126.121 152.857C126.417 152.424 126.825 152.096 127.345 151.873C126.903 151.654 126.554 151.351 126.299 150.964C126.044 150.576 125.916 150.137 125.916 149.645C125.916 148.806 126.185 148.141 126.723 147.648C127.26 147.156 127.969 146.91 128.849 146.91C129.724 146.91 130.43 147.156 130.968 147.648C131.51 148.141 131.781 148.806 131.781 149.645ZM130.749 154.286C130.749 153.73 130.571 153.277 130.216 152.926C129.865 152.575 129.405 152.399 128.835 152.399C128.265 152.399 127.807 152.573 127.461 152.919C127.119 153.265 126.948 153.721 126.948 154.286C126.948 154.851 127.115 155.296 127.447 155.619C127.784 155.943 128.252 156.104 128.849 156.104C129.441 156.104 129.906 155.943 130.243 155.619C130.58 155.291 130.749 154.847 130.749 154.286ZM128.849 147.949C128.352 147.949 127.948 148.104 127.639 148.414C127.333 148.719 127.181 149.136 127.181 149.665C127.181 150.171 127.331 150.581 127.632 150.896C127.937 151.205 128.343 151.36 128.849 151.36C129.354 151.36 129.758 151.205 130.059 150.896C130.364 150.581 130.517 150.171 130.517 149.665C130.517 149.159 130.359 148.747 130.045 148.428C129.73 148.109 129.332 147.949 128.849 147.949ZM136.221 153.575L135.428 154.402V157H134.163V146.5H135.428V152.851L136.104 152.037L138.408 149.604H139.946L137.068 152.693L140.281 157H138.798L136.221 153.575ZM148.196 153.288H144.861V152.256H148.196V153.288ZM157.773 157H156.501V148.571L153.951 149.508V148.359L157.575 146.999H157.773V157ZM167.934 149.645C167.934 150.141 167.802 150.583 167.538 150.971C167.278 151.358 166.925 151.661 166.478 151.88C166.997 152.103 167.408 152.429 167.708 152.857C168.014 153.286 168.166 153.771 168.166 154.313C168.166 155.175 167.875 155.861 167.291 156.371C166.713 156.882 165.949 157.137 165.001 157.137C164.044 157.137 163.276 156.882 162.698 156.371C162.123 155.856 161.836 155.17 161.836 154.313C161.836 153.776 161.982 153.29 162.274 152.857C162.57 152.424 162.978 152.096 163.497 151.873C163.055 151.654 162.707 151.351 162.452 150.964C162.196 150.576 162.069 150.137 162.069 149.645C162.069 148.806 162.338 148.141 162.875 147.648C163.413 147.156 164.122 146.91 165.001 146.91C165.876 146.91 166.583 147.156 167.121 147.648C167.663 148.141 167.934 148.806 167.934 149.645ZM166.902 154.286C166.902 153.73 166.724 153.277 166.369 152.926C166.018 152.575 165.557 152.399 164.988 152.399C164.418 152.399 163.96 152.573 163.614 152.919C163.272 153.265 163.101 153.721 163.101 154.286C163.101 154.851 163.267 155.296 163.6 155.619C163.937 155.943 164.404 156.104 165.001 156.104C165.594 156.104 166.059 155.943 166.396 155.619C166.733 155.291 166.902 154.847 166.902 154.286ZM165.001 147.949C164.505 147.949 164.101 148.104 163.791 148.414C163.486 148.719 163.333 149.136 163.333 149.665C163.333 150.171 163.484 150.581 163.785 150.896C164.09 151.205 164.496 151.36 165.001 151.36C165.507 151.36 165.911 151.205 166.211 150.896C166.517 150.581 166.669 150.171 166.669 149.665C166.669 149.159 166.512 148.747 166.198 148.428C165.883 148.109 165.484 147.949 165.001 147.949ZM172.374 153.575L171.581 154.402V157H170.316V146.5H171.581V152.851L172.257 152.037L174.561 149.604H176.099L173.221 152.693L176.434 157H174.951L172.374 153.575ZM119.378 176.694C119.041 177.177 118.569 177.54 117.963 177.781C117.361 178.018 116.659 178.137 115.857 178.137C115.046 178.137 114.326 177.948 113.697 177.569C113.068 177.187 112.581 176.644 112.234 175.942C111.892 175.241 111.717 174.427 111.708 173.502V172.634C111.708 171.134 112.056 169.972 112.754 169.147C113.456 168.323 114.44 167.91 115.707 167.91C116.746 167.91 117.582 168.177 118.216 168.71C118.849 169.239 119.236 169.991 119.378 170.966H118.065C117.819 169.649 117.035 168.99 115.714 168.99C114.834 168.99 114.167 169.3 113.711 169.92C113.26 170.535 113.032 171.428 113.027 172.6V173.413C113.027 174.53 113.282 175.418 113.793 176.079C114.303 176.735 114.994 177.063 115.864 177.063C116.356 177.063 116.787 177.009 117.156 176.899C117.525 176.79 117.831 176.605 118.072 176.346V174.11H115.768V173.044H119.378V176.694ZM125.369 171.738C125.178 171.706 124.97 171.69 124.747 171.69C123.918 171.69 123.355 172.044 123.059 172.75V178H121.794V170.604H123.024L123.045 171.458C123.46 170.797 124.047 170.467 124.809 170.467C125.055 170.467 125.241 170.499 125.369 170.562V171.738ZM126.486 174.233C126.486 173.509 126.628 172.857 126.91 172.278C127.197 171.7 127.594 171.253 128.1 170.938C128.61 170.624 129.191 170.467 129.843 170.467C130.85 170.467 131.663 170.815 132.283 171.513C132.908 172.21 133.22 173.137 133.22 174.295V174.384C133.22 175.104 133.081 175.751 132.803 176.325C132.529 176.895 132.135 177.339 131.62 177.658C131.11 177.977 130.522 178.137 129.856 178.137C128.854 178.137 128.04 177.788 127.416 177.091C126.796 176.394 126.486 175.471 126.486 174.322V174.233ZM127.758 174.384C127.758 175.204 127.947 175.863 128.325 176.359C128.708 176.856 129.218 177.104 129.856 177.104C130.499 177.104 131.009 176.854 131.388 176.353C131.766 175.847 131.955 175.14 131.955 174.233C131.955 173.422 131.761 172.766 131.374 172.265C130.991 171.759 130.481 171.506 129.843 171.506C129.218 171.506 128.715 171.754 128.332 172.251C127.949 172.748 127.758 173.459 127.758 174.384ZM139.532 176.038C139.532 175.696 139.402 175.432 139.143 175.245C138.887 175.054 138.439 174.89 137.796 174.753C137.158 174.616 136.65 174.452 136.272 174.261C135.898 174.069 135.62 173.841 135.438 173.577C135.26 173.313 135.171 172.998 135.171 172.634C135.171 172.028 135.426 171.515 135.937 171.096C136.452 170.676 137.108 170.467 137.905 170.467C138.744 170.467 139.423 170.683 139.942 171.116C140.467 171.549 140.729 172.103 140.729 172.777H139.457C139.457 172.431 139.309 172.132 139.013 171.882C138.721 171.631 138.352 171.506 137.905 171.506C137.445 171.506 137.085 171.606 136.825 171.807C136.566 172.007 136.436 172.269 136.436 172.593C136.436 172.898 136.556 173.128 136.798 173.283C137.039 173.438 137.475 173.586 138.104 173.728C138.737 173.869 139.25 174.037 139.642 174.233C140.034 174.429 140.323 174.666 140.51 174.944C140.701 175.218 140.797 175.553 140.797 175.949C140.797 176.61 140.533 177.141 140.004 177.542C139.475 177.938 138.789 178.137 137.946 178.137C137.354 178.137 136.83 178.032 136.374 177.822C135.918 177.613 135.561 177.321 135.301 176.947C135.046 176.569 134.918 176.161 134.918 175.724H136.183C136.205 176.147 136.374 176.485 136.689 176.735C137.008 176.981 137.427 177.104 137.946 177.104C138.425 177.104 138.808 177.009 139.095 176.817C139.386 176.621 139.532 176.362 139.532 176.038ZM147.171 176.038C147.171 175.696 147.041 175.432 146.781 175.245C146.526 175.054 146.077 174.89 145.435 174.753C144.797 174.616 144.289 174.452 143.91 174.261C143.537 174.069 143.259 173.841 143.076 173.577C142.899 173.313 142.81 172.998 142.81 172.634C142.81 172.028 143.065 171.515 143.575 171.096C144.09 170.676 144.747 170.467 145.544 170.467C146.383 170.467 147.062 170.683 147.581 171.116C148.105 171.549 148.367 172.103 148.367 172.777H147.096C147.096 172.431 146.948 172.132 146.652 171.882C146.36 171.631 145.991 171.506 145.544 171.506C145.084 171.506 144.724 171.606 144.464 171.807C144.204 172.007 144.074 172.269 144.074 172.593C144.074 172.898 144.195 173.128 144.437 173.283C144.678 173.438 145.113 173.586 145.742 173.728C146.376 173.869 146.889 174.037 147.28 174.233C147.672 174.429 147.962 174.666 148.149 174.944C148.34 175.218 148.436 175.553 148.436 175.949C148.436 176.61 148.171 177.141 147.643 177.542C147.114 177.938 146.428 178.137 145.585 178.137C144.993 178.137 144.469 178.032 144.013 177.822C143.557 177.613 143.199 177.321 142.94 176.947C142.684 176.569 142.557 176.161 142.557 175.724H143.821C143.844 176.147 144.013 176.485 144.327 176.735C144.646 176.981 145.066 177.104 145.585 177.104C146.064 177.104 146.446 177.009 146.734 176.817C147.025 176.621 147.171 176.362 147.171 176.038Z" fill="white"/>
<path d="M138.1 102.3C137.662 102.3 137.243 102.126 136.933 101.817C136.624 101.507 136.45 101.088 136.45 100.65C136.45 100.212 136.624 99.7927 136.933 99.4833C137.243 99.1738 137.662 99 138.1 99H144.7C145.138 99 145.557 99.1738 145.867 99.4833C146.176 99.7927 146.35 100.212 146.35 100.65V107.25C146.35 107.688 146.176 108.107 145.867 108.417C145.557 108.726 145.138 108.9 144.7 108.9C144.262 108.9 143.843 108.726 143.533 108.417C143.224 108.107 143.05 107.688 143.05 107.25V104.633L133.492 114.192C133.182 114.501 132.763 114.675 132.325 114.675C131.887 114.675 131.468 114.501 131.158 114.192L126.55 109.583L117.817 118.317C117.505 118.617 117.089 118.783 116.656 118.78C116.223 118.776 115.809 118.602 115.504 118.296C115.198 117.991 115.024 117.577 115.02 117.144C115.017 116.711 115.183 116.295 115.483 115.983L125.383 106.083C125.693 105.774 126.112 105.6 126.55 105.6C126.988 105.6 127.407 105.774 127.717 106.083L132.325 110.692L140.717 102.3H138.1ZM118.3 125.4V130.35C118.3 130.788 118.126 131.207 117.817 131.517C117.507 131.826 117.088 132 116.65 132C116.212 132 115.793 131.826 115.483 131.517C115.174 131.207 115 130.788 115 130.35V125.4C115 124.962 115.174 124.543 115.483 124.233C115.793 123.924 116.212 123.75 116.65 123.75C117.088 123.75 117.507 123.924 117.817 124.233C118.126 124.543 118.3 124.962 118.3 125.4ZM126.55 118.8C126.55 118.362 126.376 117.943 126.067 117.633C125.757 117.324 125.338 117.15 124.9 117.15C124.462 117.15 124.043 117.324 123.733 117.633C123.424 117.943 123.25 118.362 123.25 118.8V130.35C123.25 130.788 123.424 131.207 123.733 131.517C124.043 131.826 124.462 132 124.9 132C125.338 132 125.757 131.826 126.067 131.517C126.376 131.207 126.55 130.788 126.55 130.35V118.8ZM133.15 120.45C133.588 120.45 134.007 120.624 134.317 120.933C134.626 121.243 134.8 121.662 134.8 122.1V130.35C134.8 130.788 134.626 131.207 134.317 131.517C134.007 131.826 133.588 132 133.15 132C132.712 132 132.293 131.826 131.983 131.517C131.674 131.207 131.5 130.788 131.5 130.35V122.1C131.5 121.662 131.674 121.243 131.983 120.933C132.293 120.624 132.712 120.45 133.15 120.45ZM143.05 113.85C143.05 113.412 142.876 112.993 142.567 112.683C142.257 112.374 141.838 112.2 141.4 112.2C140.962 112.2 140.543 112.374 140.233 112.683C139.924 112.993 139.75 113.412 139.75 113.85V130.35C139.75 130.788 139.924 131.207 140.233 131.517C140.543 131.826 140.962 132 141.4 132C141.838 132 142.257 131.826 142.567 131.517C142.876 131.207 143.05 130.788 143.05 130.35V113.85Z" fill="white"/>
<defs>
<filter id="filter0_d" x="0" y="0" width="281" height="281" filterUnits="userSpaceOnUse" color-interpolation-filters="sRGB">
<feFlood flood-opacity="0" result="BackgroundImageFix"/>
<feColorMatrix in="SourceAlpha" type="matrix" values="0 0 0 0 0 0 0 0 0 0 0 0 0 0 0 0 0 0 127 0"/>
<feOffset dx="10" dy="10"/>
<feGaussianBlur stdDeviation="30"/>
<feColorMatrix type="matrix" values="0 0 0 0 0 0 0 0 0 0 0 0 0 0 0 0 0 0 0.2 0"/>
<feBlend mode="normal" in2="BackgroundImageFix" result="effect1_dropShadow"/>
<feBlend mode="normal" in="SourceGraphic" in2="effect1_dropShadow" result="shape"/>
</filter>
</defs>
</svg>
