<svg width="175" height="84" viewBox="0 0 175 84" fill="none" xmlns="http://www.w3.org/2000/svg">
<path d="M7.60687 82.782C7.58993 82.744 7.56875 82.6964 7.54333 82.6393C7.53695 82.5737 7.53376 82.5409 7.53376 82.5409C7.57355 81.8619 7.63134 81.1977 7.70711 80.5482C7.80192 79.8903 7.90097 79.2419 8.00425 78.603C8.11809 77.9366 8.2129 77.2787 8.28867 76.6293C8.37501 75.9523 8.43279 75.2881 8.46203 74.6366C8.30965 74.4992 8.05154 74.4316 7.68771 74.4339C7.32388 74.4363 6.8892 74.4587 6.38367 74.5013C5.89717 74.5355 5.37364 74.5633 4.8131 74.5847C4.24408 74.5872 3.70043 74.5441 3.18213 74.4556C2.65535 74.348 2.17825 74.1727 1.75082 73.9297C1.31491 73.6677 0.986822 73.2892 0.766544 72.7944C0.537793 72.2805 0.509991 71.7569 0.683138 71.2238C0.847812 70.6716 1.12251 70.1617 1.50722 69.6939C1.88346 69.2072 2.31791 68.7744 2.81056 68.3955C3.3032 68.0165 3.74937 67.7381 4.14906 67.5602C4.9865 67.1874 5.78281 67.004 6.53798 67.0099C7.31218 67.0073 8.14354 67.0819 9.03205 67.2337C9.1842 66.9608 9.2898 66.6857 9.34887 66.4086C9.42697 66.123 9.47757 65.8268 9.50066 65.5201C9.49845 65.3614 9.51626 65.0684 9.55409 64.6411C9.60248 64.1863 9.63288 63.7167 9.64529 63.2323C9.67673 62.7394 9.71137 62.2793 9.7492 61.852C9.79759 61.3972 9.81644 61.0809 9.80576 60.9032C9.90719 60.7212 10.0013 60.5996 10.0879 60.5382C10.1662 60.4577 10.2909 60.3794 10.4622 60.3032C10.4813 60.2947 10.5193 60.2777 10.5764 60.2523C10.6525 60.2184 10.7001 60.1973 10.7192 60.1888C11.2653 60.9034 11.7724 61.6583 12.2403 62.4534C12.7083 63.2485 13.1477 64.0563 13.5585 64.8768C13.9884 65.6888 14.4087 66.5051 14.8196 67.3256C15.2304 68.1461 15.6698 68.9539 16.1378 69.7489C16.1949 69.7235 16.3038 69.6864 16.4645 69.6377C16.6168 69.5699 16.731 69.5191 16.8071 69.4852C17.0736 69.3666 17.3273 69.2194 17.5684 69.0437C17.8094 68.868 18.0504 68.6923 18.2915 68.5166C18.5241 68.3218 18.7609 68.1366 19.0019 67.9609C19.262 67.7767 19.5348 67.6211 19.8203 67.494L19.9059 67.4559C19.9334 67.4664 19.9884 67.4876 20.0709 67.5192C20.1534 67.5509 20.218 67.5678 20.2645 67.5699C20.2435 67.8301 20.1294 68.0861 19.9223 68.338C19.7257 68.5623 19.4826 68.7845 19.1929 69.0047C18.9222 69.2164 18.6326 69.4365 18.3239 69.6652C18.0067 69.8748 17.7361 70.0865 17.512 70.3002C17.2794 70.495 17.0934 70.6918 16.9539 70.8907C16.8334 71.0812 16.8198 71.2811 16.913 71.4904C17.0824 71.8711 17.2709 72.2433 17.4784 72.607C17.7049 72.9622 17.9357 73.327 18.1707 73.7013C18.4163 74.048 18.6566 74.4086 18.8916 74.7828C19.1182 75.1381 19.3204 75.5155 19.4983 75.9152C19.5407 76.0104 19.5905 76.1479 19.6477 76.3276C19.7239 76.4989 19.7812 76.6787 19.8193 76.8669C19.8766 77.0467 19.8872 77.2244 19.8514 77.4C19.8345 77.5671 19.7405 77.6888 19.5692 77.765C19.3789 77.8497 19.144 77.7832 18.8647 77.5655C18.5853 77.3478 18.3006 77.0413 18.0106 76.6459C17.7206 76.2505 17.4231 75.8128 17.1183 75.3328C16.8239 74.8253 16.5423 74.3463 16.2734 73.8959C16.0151 73.418 15.7769 73.0109 15.5588 72.6747C15.3323 72.3195 15.165 72.0975 15.0571 72.0087C14.8964 72.0575 14.6024 72.1655 14.1752 72.3329C13.767 72.4917 13.3303 72.6633 12.8651 72.8476C12.4104 73.0044 11.9789 73.1623 11.5708 73.3212C11.1541 73.461 10.8697 73.5648 10.7174 73.6326L10.4319 73.7597C10.0513 73.9291 9.77013 74.2709 9.58852 74.785C9.41746 75.2717 9.31203 75.8545 9.27223 76.5335C9.243 77.1851 9.23494 77.8842 9.24806 78.6309C9.25271 79.3585 9.25417 80.0534 9.25244 80.7155C9.24224 81.3585 9.18439 81.9202 9.0789 82.4004C8.97342 82.8807 8.76841 83.1886 8.46388 83.3241C8.25452 83.4173 8.07789 83.4047 7.93398 83.2863C7.80063 83.1405 7.6916 82.9724 7.60687 82.782ZM9.91402 72.5194C10.1086 72.5467 10.3233 72.5424 10.5581 72.5063C10.8035 72.4427 11.0403 72.3601 11.2687 72.2584C11.4971 72.1567 11.7065 72.0635 11.8968 71.9788C12.1062 71.8856 12.287 71.8051 12.4392 71.7373C12.5154 71.7035 12.6105 71.6611 12.7247 71.6103C12.8305 71.5404 12.9404 71.48 13.0546 71.4292C13.1688 71.3784 13.264 71.336 13.3401 71.3021C13.4268 71.2407 13.4797 71.2058 13.4987 71.1973L13.654 70.8546C13.6751 70.7996 13.5322 70.6579 13.2254 70.4296C12.9185 70.2014 12.5599 69.9847 12.1494 69.7798C11.7494 69.5474 11.3665 69.353 11.0004 69.1966C10.6259 69.0213 10.3911 68.9548 10.2959 68.9972C10.2769 69.0056 10.2621 69.0236 10.2515 69.0511C10.241 69.0786 10.2166 69.1009 10.1786 69.1178C10.0795 69.6636 10.0079 70.22 9.96378 70.7869C9.91969 71.3538 9.9031 71.9313 9.91402 72.5194ZM2.01 72.2066C2.23028 72.7015 2.59644 73.063 3.10847 73.2912C3.61204 73.5003 4.16632 73.6184 4.77131 73.6456C5.3763 73.6727 5.98019 73.6205 6.58298 73.489C7.18576 73.3575 7.69652 73.1986 8.11524 73.0122C8.3817 72.8936 8.59837 72.6375 8.76525 72.244C8.92366 71.8314 9.03657 71.3935 9.104 70.9302C9.19045 70.4584 9.22509 69.9983 9.2079 69.5499C9.20976 69.093 9.16408 68.7598 9.07089 68.5505C8.96922 68.3221 8.72377 68.1805 8.33452 68.1257C7.9368 68.0519 7.49469 68.0321 7.00819 68.0662C6.54072 68.0919 6.0902 68.1556 5.65662 68.2574C5.21457 68.3401 4.89838 68.4239 4.70805 68.5086C4.42256 68.6357 4.09163 68.84 3.71527 69.1215C3.34947 69.3756 3.00485 69.6772 2.68141 70.0264C2.377 70.3672 2.15087 70.7301 2.00303 71.1151C1.8467 71.4812 1.84903 71.845 2.01 72.2066ZM10.5551 67.2741C10.6652 67.5215 10.896 67.7837 11.2473 68.0606C11.5986 68.3375 11.9837 68.5879 12.4026 68.8119C12.8216 69.0359 13.2289 69.208 13.6245 69.3284C14.0392 69.4403 14.3607 69.4454 14.5891 69.3437C14.5468 69.2485 14.4737 69.11 14.3699 68.9282C14.2852 68.7378 14.1825 68.5327 14.0618 68.3128C13.9601 68.0844 13.8574 67.8793 13.7537 67.6974C13.669 67.5071 13.6054 67.3643 13.5631 67.2692C13.4064 67.0197 13.2021 66.6887 12.9501 66.2764C12.7172 65.8556 12.479 65.4485 12.2355 65.0552C12.011 64.6534 11.7982 64.3035 11.5971 64.0053C11.415 63.6987 11.3102 63.5401 11.2827 63.5296L10.8097 63.1586C10.7992 63.1861 10.7685 63.2454 10.7178 63.3364C10.6861 63.4189 10.665 63.4739 10.6544 63.5014C10.6482 63.641 10.6377 63.8737 10.6231 64.1995C10.6 64.5062 10.5664 64.8404 10.5222 65.2022C10.497 65.5554 10.4771 65.895 10.4625 66.2207C10.4479 66.5465 10.4332 66.7697 10.4184 66.8902C10.4354 66.9283 10.4555 66.9992 10.4788 67.1028C10.5212 67.198 10.5466 67.2551 10.5551 67.2741ZM25.9759 73.1002C25.9462 72.931 25.8931 72.6582 25.8167 72.2817C25.7319 71.8862 25.6301 71.4526 25.5114 70.981C25.4117 70.5009 25.2898 69.9964 25.1456 69.4677C25.0205 68.9305 24.8986 68.426 24.7799 67.9544C24.6802 67.4743 24.5784 67.0407 24.4745 66.6537C24.3706 66.2666 24.2901 65.9832 24.2329 65.8034C24.218 65.7188 24.1672 65.6046 24.0804 65.4608C23.9936 65.3171 23.8983 65.1542 23.7945 64.9724C23.6908 64.7905 23.5955 64.6277 23.5087 64.4839C23.4219 64.3401 23.3615 64.2302 23.3276 64.154C23.2705 64.1794 23.1669 64.2028 23.0167 64.224C22.8665 64.2453 22.7111 64.2802 22.5503 64.329C22.4002 64.3502 22.2637 64.3767 22.1411 64.4086C22.0099 64.4213 21.9158 64.4404 21.8587 64.4658C21.4782 64.8405 21.233 65.2118 21.1232 65.58C21.024 65.9206 20.9343 66.257 20.8541 66.5891C20.793 66.9128 20.681 67.2249 20.5183 67.5253C20.3471 67.8068 20.0236 68.0534 19.5478 68.2652C19.3765 68.3414 19.2232 68.3299 19.0877 68.2306C18.9523 68.1312 18.8464 67.9959 18.7702 67.8246L18.7194 67.7104C18.9263 67.0482 19.1438 66.4611 19.372 65.949C19.5811 65.4455 19.8442 64.9863 20.1612 64.5715C20.4698 64.1377 20.8461 63.7536 21.2902 63.4191C21.7342 63.0846 22.2797 62.7733 22.9269 62.4853C23.2123 62.3582 23.4471 62.3221 23.6312 62.377C23.8258 62.4044 23.9993 62.4868 24.1517 62.6242C24.2956 62.7426 24.4142 62.9064 24.5074 63.1158C24.6196 63.3167 24.7308 63.5408 24.8409 63.7883C25.0697 64.3021 25.2413 64.8415 25.3559 65.4062C25.481 65.9434 25.5913 66.4986 25.6868 67.0718C25.7929 67.6175 25.9032 68.1727 26.0178 68.7374C26.1238 69.2831 26.2955 69.8224 26.5327 70.3553L26.5835 70.4695C26.5729 70.2918 26.5864 69.9893 26.6243 69.562C26.6536 69.1157 26.684 68.646 26.7155 68.1532C26.7469 67.6603 26.7816 67.2002 26.8194 66.7729C26.8678 66.3181 26.9004 66.0071 26.9172 65.84C26.9278 65.8125 26.9605 65.7067 27.0154 65.5226C27.0618 65.3195 27.1188 65.0889 27.1863 64.8308C27.2729 64.5642 27.3542 64.3114 27.4302 64.0723C27.5168 63.8058 27.5917 63.5899 27.6551 63.4249C27.7015 63.2218 27.7627 63.0007 27.8388 62.7617C27.9338 62.5141 28.0331 62.2761 28.1366 62.0476C28.2591 61.8106 28.3944 61.6022 28.5424 61.4223C28.7009 61.2149 28.8848 61.0646 29.0942 60.9714C29.2655 60.8951 29.4189 60.9067 29.5543 61.006C29.7088 61.0969 29.8474 61.229 29.9702 61.4024C30.093 61.5758 30.201 61.7672 30.2942 61.9765C30.3789 62.1668 30.4509 62.3286 30.5102 62.4619C30.7644 63.0328 30.9519 63.6335 31.0729 64.2638C31.1938 64.8941 31.3052 65.5286 31.4071 66.1674C31.5006 66.7871 31.5982 67.4163 31.7001 68.0551C31.8211 68.6854 32.0086 69.286 32.2628 69.857C32.3729 70.1044 32.5042 70.2968 32.6566 70.4343C32.809 70.5717 33.0184 70.5811 33.2848 70.4624C33.6274 70.3099 33.8991 70.075 34.0999 69.7576C34.3006 69.4402 34.4781 69.1217 34.6324 68.8022C34.7972 68.4552 34.9609 68.1315 35.1236 67.831C35.3054 67.5221 35.558 67.2956 35.8816 67.1516L36.123 67.694C36.1315 67.713 36.1093 67.7913 36.0565 67.9288C36.0037 68.0664 35.9404 68.2314 35.8664 68.4239C35.7925 68.6165 35.7091 68.8132 35.6161 69.0142C35.5422 69.2068 35.4788 69.3718 35.426 69.5093C35.3331 69.7103 35.2253 69.9293 35.1028 70.1663C34.9802 70.4033 34.8439 70.635 34.6939 70.8614C34.5544 71.0603 34.3916 71.2582 34.2056 71.4551C34.0111 71.6329 33.8091 71.7683 33.5998 71.8615C33.3143 71.9886 33.0425 72.0184 32.7844 71.9509C32.5368 71.8558 32.3146 71.7153 32.1178 71.5292C31.9125 71.3242 31.7315 71.0969 31.5748 70.8474C31.4182 70.5979 31.2932 70.3684 31.2 70.1591C30.9459 69.5881 30.7435 69.0054 30.593 68.4111C30.453 67.7893 30.3215 67.1865 30.1985 66.6027C30.067 66 29.926 65.4014 29.7754 64.8071C29.6249 64.2128 29.4226 63.6301 29.1684 63.0591L28.9971 63.1354C28.9781 63.1439 28.9369 63.2306 28.8735 63.3957C28.8101 63.5607 28.7267 63.7575 28.6232 63.986C28.5387 64.206 28.4584 64.4356 28.3824 64.6746C28.3064 64.9137 28.2367 65.1158 28.1734 65.2808C28.129 65.4374 28.0879 65.6267 28.05 65.8488C28.0035 66.0519 27.9656 66.2741 27.9361 66.5152C27.9066 66.7564 27.8772 66.9975 27.8477 67.2387C27.8288 67.4524 27.8151 67.6523 27.8068 67.8384C27.809 67.9971 27.8028 68.2393 27.7882 68.565C27.7736 68.8908 27.7568 69.2631 27.7381 69.6819C27.7383 70.0923 27.728 70.5302 27.7071 70.9956C27.7052 71.4525 27.6949 71.8903 27.6761 72.3092C27.6763 72.7196 27.6692 73.0876 27.6545 73.4134C27.6399 73.7391 27.6337 73.9814 27.6359 74.14C27.6508 74.2246 27.6212 74.3632 27.5473 74.5557C27.4649 74.7292 27.4089 74.834 27.3793 74.8699C27.3497 74.9059 27.3349 74.9239 27.3349 74.9239L27.2493 74.962L27.1922 74.9874C27.1732 74.9959 27.1499 74.9949 27.1224 74.9843C27.0759 74.9822 27.0018 74.9696 26.9003 74.9464C26.8177 74.9147 26.7723 74.8893 26.7638 74.8703L25.9759 73.1002ZM37.4814 68.2865C37.1198 68.4475 36.7644 68.4689 36.4153 68.3506C36.0662 68.2324 35.734 68.0496 35.4187 67.8023C35.1224 67.5465 34.8462 67.259 34.5901 66.9397C34.3529 66.612 34.1751 66.3149 34.0565 66.0484C33.7938 65.4584 33.6274 64.8028 33.5572 64.0815C33.4975 63.3327 33.5214 62.5923 33.6289 61.8604C33.7554 61.1199 33.9549 60.4154 34.2273 59.7468C34.5104 59.0507 34.8591 58.4508 35.2734 57.9472C35.4509 57.7313 35.6254 57.5852 35.7967 57.509C35.9785 57.4052 36.1361 57.3237 36.2693 57.2644C36.394 57.1861 36.4638 57.0866 36.4785 56.966C36.5038 56.8179 36.4487 56.5916 36.3131 56.2871L34.1909 51.5194C34.1231 51.3671 34.1409 51.1767 34.2445 50.9482C34.3395 50.7007 34.4632 50.543 34.6154 50.4752C34.7106 50.4329 34.8079 50.4466 34.9074 50.5163C35.0174 50.5585 35.1168 50.6283 35.2057 50.7255C35.2946 50.8228 35.3783 50.9338 35.4566 51.0586C35.5349 51.1833 35.5868 51.2742 35.6122 51.3313C36.5696 53.4821 37.4857 55.6169 38.3605 57.736C39.2269 59.836 40.1515 61.9899 41.1343 64.1977C41.2865 64.1299 41.4261 64.0336 41.5529 63.9087C41.6798 63.7838 41.8119 63.6452 41.9493 63.4928C42.0867 63.3404 42.2146 63.1923 42.333 63.0484C42.4704 62.896 42.6068 62.7669 42.7421 62.661C42.7505 62.6801 42.7675 62.7181 42.7929 62.7752C42.8374 62.8238 42.8681 62.8672 42.885 62.9053C43.0036 63.1717 43.0059 63.433 42.8918 63.689C42.7883 63.9175 42.6425 64.1534 42.4543 64.3968C42.2853 64.6317 42.1162 64.8666 41.9471 65.1015C41.797 65.3279 41.7305 65.5627 41.7476 65.806C41.7455 65.8525 41.7858 65.9942 41.8684 66.2311C41.951 66.468 42.0273 66.7419 42.0973 67.0528C42.1673 67.3637 42.196 67.6587 42.1835 67.938C42.1625 68.1982 42.0664 68.3664 41.8951 68.4426C41.6286 68.5613 41.4139 68.5656 41.251 68.4557C41.1071 68.3373 40.998 68.1692 40.9239 67.9514C40.8497 67.7336 40.7893 67.521 40.7426 67.3137C40.715 67.098 40.6843 66.952 40.6504 66.8759L37.4814 68.2865ZM35.0557 65.6036C35.3353 66.2317 35.7681 66.6662 36.3542 66.907C36.9318 67.1287 37.5346 67.0998 38.1627 66.8202C38.296 66.7609 38.4482 66.6932 38.6195 66.6169C38.8098 66.5322 38.9959 66.438 39.1778 66.3342C39.3512 66.2114 39.4971 66.0781 39.6154 65.9341C39.7338 65.7902 39.7972 65.6252 39.8055 65.4391C39.5387 64.9421 39.3131 64.461 39.1288 63.9958C38.9551 63.503 38.7856 63.0197 38.6203 62.546C38.4466 62.0532 38.2771 61.57 38.1118 61.0963C37.9381 60.6035 37.7368 60.1002 37.5081 59.5863C37.4064 59.3579 37.2784 59.1983 37.1239 59.1074C36.9884 59.008 36.797 59.0134 36.5496 59.1236C36.0357 59.3523 35.6266 59.7397 35.3223 60.2856C35.0286 60.804 34.8248 61.3964 34.711 62.0628C34.6077 62.7017 34.588 63.349 34.6518 64.0047C34.7262 64.6329 34.8608 65.1659 35.0557 65.6036ZM67.7453 41.3719C67.5699 41.5412 67.4737 41.7094 67.4569 41.8765C67.4506 42.0162 67.4518 42.1981 67.4604 42.4223C67.4562 42.5154 67.4606 42.7301 67.4735 43.0664C67.4779 43.3837 67.4887 43.7665 67.5058 44.215C67.523 44.6634 67.5297 45.1394 67.5257 45.6428C67.5408 46.1378 67.5569 46.6095 67.5741 47.0579C67.5913 47.5063 67.6063 47.8987 67.6192 48.2351C67.6321 48.5714 67.6407 48.7956 67.645 48.9077C67.6473 49.2715 67.6328 49.6999 67.6013 50.1928C67.5889 50.6772 67.5204 51.1638 67.3959 51.6525C67.2904 52.1327 67.1215 52.5728 66.889 52.9727C66.6756 53.3642 66.369 53.6488 65.9694 53.8268C65.3413 54.1063 64.731 54.0929 64.1385 53.7866C63.5376 53.4612 62.963 52.9644 62.4148 52.2963C61.8771 51.6007 61.3584 50.794 60.8586 49.8762C60.3504 48.9394 59.8644 48.027 59.4006 47.1388C58.9559 46.2422 58.5271 45.4069 58.1141 44.6329C57.7012 43.8589 57.3074 43.2817 56.9328 42.9012C56.8947 42.9181 56.8662 42.9308 56.8471 42.9393C56.8281 42.9477 56.8091 42.9562 56.79 42.9647C56.771 42.9732 56.7615 42.9774 56.7615 42.9774C56.7615 42.9774 56.752 42.9816 56.733 42.9901L56.6759 43.0155C56.5364 43.2144 56.4318 43.4662 56.3622 43.7709C56.3116 44.067 56.279 44.378 56.2643 44.7038C56.2413 45.0105 56.233 45.2993 56.2395 45.57C56.265 45.8323 56.2884 46.0385 56.3096 46.1887L57.7063 58.0865C57.7126 58.152 57.718 58.2409 57.7223 58.353C57.7266 58.4651 57.7118 58.5857 57.6781 58.7147C57.6549 58.8163 57.6084 58.9168 57.5386 59.0162C57.4879 59.1072 57.4065 59.1549 57.2944 59.1592C57.2373 59.1846 57.1442 59.1804 57.0152 59.1466C56.8967 59.0854 56.7782 59.0241 56.6597 58.9628C56.5327 58.8825 56.4195 58.8075 56.3201 58.7377C56.2121 58.649 56.1359 58.5803 56.0915 58.5316C54.9503 56.7364 53.9159 54.848 52.9882 52.8665C52.0606 50.885 51.1964 48.9437 50.3957 47.0425C50.3598 47.0129 50.274 46.9484 50.1386 46.8491C50.0222 46.7413 49.9555 46.6683 49.9386 46.6303C49.8793 46.497 49.858 46.3468 49.8749 46.1797C49.9022 45.9851 49.9434 45.7958 49.9983 45.6117C50.0722 45.4192 50.1588 45.2552 50.2582 45.1197C50.3681 44.9568 50.4801 44.8499 50.5943 44.7991C50.7847 44.7144 50.9433 44.7121 51.0703 44.7925C51.1888 44.8537 51.2904 44.9795 51.3751 45.1699C51.8326 46.1976 52.2383 47.2371 52.5921 48.2882C52.946 49.3393 53.3559 50.3882 53.8219 51.435C53.8812 51.5683 53.9659 51.7586 54.0761 52.006C54.1862 52.2534 54.2963 52.5009 54.4065 52.7483C54.5272 52.9682 54.6299 53.1733 54.7146 53.3637C54.7993 53.554 54.8459 53.6587 54.8544 53.6777L55.5688 54.5911C55.5709 54.5446 55.5878 54.4801 55.6195 54.3975C55.6702 54.3065 55.7009 54.2473 55.7114 54.2198C55.7156 54.1267 55.7187 53.9543 55.7206 53.7026C55.7226 53.4509 55.7203 53.1896 55.7138 52.9189C55.7179 52.6206 55.7209 52.3456 55.7229 52.0939C55.7164 51.8232 55.7015 51.636 55.6781 51.5323C55.6738 51.4202 55.6642 51.2193 55.6492 50.9295C55.6258 50.6207 55.6002 50.2558 55.5724 49.8348C55.5362 49.3949 55.5053 48.9412 55.4796 48.4737C55.473 47.9978 55.4558 47.5493 55.4281 47.1284C55.4003 46.7075 55.3748 46.3426 55.3513 46.0338C55.3469 45.7165 55.3425 45.5018 55.3382 45.3897C55.3466 45.2035 55.3422 44.8862 55.325 44.4378C55.3184 43.9619 55.3445 43.4827 55.4035 43.0004C55.473 42.4906 55.5732 42.0241 55.7041 41.601C55.854 41.1693 56.0813 40.8858 56.3858 40.7502C56.6713 40.6231 56.9749 40.716 57.2966 41.0289C57.6183 41.3418 57.957 41.7953 58.3127 42.3895C58.679 42.9562 59.0591 43.6308 59.453 44.4132C59.8384 45.1766 60.227 45.9728 60.6189 46.8018C61.0297 47.6223 61.4416 48.4195 61.8545 49.1935C62.278 49.9399 62.6962 50.5975 63.109 51.1663C63.5133 51.716 63.9144 52.1304 64.3123 52.4094C64.7291 52.6799 65.1374 52.7262 65.5371 52.5483C65.6513 52.4975 65.7496 52.3853 65.832 52.2118C65.9249 52.0108 65.9999 51.795 66.0569 51.5644C66.1139 51.3338 66.1518 51.1117 66.1707 50.898C66.2087 50.6759 66.2255 50.5088 66.2212 50.3966C66.2443 50.0899 66.2609 49.615 66.2711 48.972C66.2814 48.3289 66.2905 47.6065 66.2985 46.8048C66.3255 45.9946 66.3451 45.1422 66.3573 44.2474C66.3694 43.3526 66.3795 42.5044 66.3875 41.7026C66.387 40.8819 66.3919 40.15 66.4021 39.507C66.4123 38.8639 66.4152 38.3837 66.4108 38.0664C66.4043 37.7957 66.3882 37.4266 66.3626 36.9591C66.3559 36.4832 66.3272 36.0855 66.2762 35.7661C66.5215 35.7025 66.7796 35.6675 67.0503 35.661C67.3211 35.6545 67.5115 35.7749 67.6217 36.0223C67.6386 36.0604 67.6545 36.1217 67.6694 36.2063C67.6948 36.2634 67.7117 36.3015 67.7202 36.3205C68.1485 37.9998 68.6264 39.6114 69.154 41.1553C69.6922 42.6717 70.3086 44.2102 71.0033 45.7709C71.0627 45.9041 71.1686 46.142 71.3211 46.4846C71.4651 46.8082 71.6261 47.1698 71.804 47.5695C71.9925 47.9417 72.1629 48.2991 72.3154 48.6416C72.4595 48.9652 72.5654 49.2031 72.6331 49.3554C73.0757 50.0934 73.6694 50.6842 74.4142 51.128C75.159 51.5718 75.8965 51.9733 76.6265 52.3325L76.9187 52.9891C76.7474 53.0654 76.5 53.0729 76.1763 53.0117C75.8441 52.9316 75.4908 52.8038 75.1163 52.6284C74.7418 52.4531 74.3503 52.2397 73.9419 51.9882C73.5526 51.7282 73.1865 51.4693 72.8436 51.2114C72.5198 50.9451 72.2373 50.6946 71.996 50.4599C71.7547 50.2253 71.596 50.0223 71.5197 49.851L67.7453 41.3719ZM83.2986 45.805C83.1656 46.2747 82.9935 46.7846 82.7823 47.3347C82.5901 47.8763 82.3471 48.4063 82.0534 48.9248C81.7787 49.4347 81.4543 49.9098 81.0801 50.35C80.7165 50.7627 80.2873 51.0792 79.7925 51.2994C78.7837 51.7485 78.0633 51.4876 77.6312 50.517C77.4533 50.1173 77.3821 49.5219 77.4176 48.7307C77.4637 47.9121 77.5922 47.0225 77.8032 46.062C78.0141 45.1016 78.2949 44.1442 78.6455 43.19C78.9876 42.2168 79.3848 41.3673 79.8371 40.6414C80.2808 39.8966 80.7438 39.3485 81.2259 38.997C81.727 38.6372 82.2463 38.5998 82.7837 38.8851C83.0125 39.399 83.2032 39.9298 83.3558 40.4776C83.5084 41.0254 83.661 41.5731 83.8136 42.1209C83.9578 42.6497 84.1019 43.1784 84.2461 43.7071C84.3902 44.2359 84.5767 44.7572 84.8054 45.2711C84.8563 45.3853 84.9463 45.5619 85.0754 45.8008C85.2152 46.0123 85.3686 46.229 85.5359 46.451C85.7137 46.6455 85.902 46.8125 86.101 46.952C86.2914 47.0725 86.4818 47.0903 86.6721 47.0056C87.1289 46.8023 87.4746 46.58 87.7093 46.3387C87.963 46.0889 88.1606 45.8413 88.3022 45.5959C88.4544 45.3229 88.56 45.0479 88.619 44.7707C88.6971 44.4851 88.7752 44.1995 88.8533 43.9139C88.9505 43.6198 89.0709 43.3268 89.2145 43.0348C89.3582 42.7428 89.5854 42.4592 89.8962 42.184C89.8962 42.184 89.9089 42.2126 89.9344 42.2697C89.9598 42.3268 89.981 42.3744 89.9979 42.4124C90.2097 42.8882 90.2788 43.4276 90.2051 44.0305C90.1229 44.6144 89.9434 45.1846 89.6667 45.741C89.3899 46.2975 89.0263 46.8128 88.5761 47.2869C88.1363 47.7335 87.6595 48.0712 87.1456 48.2999C86.7079 48.4948 86.3007 48.5278 85.9241 48.399C85.5475 48.2702 85.1973 48.0726 84.8735 47.8062C84.5688 47.5314 84.2894 47.2111 84.0353 46.8453C83.7728 46.4605 83.5272 46.1137 83.2986 45.805ZM82.1477 41.8363C82.0584 41.1235 81.9344 40.6656 81.7756 40.4626C81.6359 40.2512 81.4646 40.2248 81.2616 40.3836C81.0501 40.5233 80.8271 40.8164 80.5926 41.2629C80.3496 41.6903 80.1077 42.1971 79.8669 42.7832C79.6176 43.3502 79.3895 43.9648 79.1826 44.6271C78.9757 45.2893 78.7888 45.9197 78.6221 46.5185C78.4468 47.0982 78.3213 47.6101 78.2454 48.0544C78.1695 48.4987 78.1369 48.8096 78.1475 48.9873C78.2282 49.4759 78.3574 49.8174 78.5352 50.0119C78.7321 50.198 78.9373 50.3004 79.151 50.3194C79.3752 50.3108 79.5793 50.2313 79.7632 50.081C79.9662 49.9223 80.1184 49.7519 80.2198 49.5699C80.4163 49.1404 80.656 48.5776 80.9391 47.8815C81.2137 47.1664 81.4565 46.4312 81.6676 45.6759C81.8977 44.9121 82.0655 44.1875 82.1708 43.5021C82.2677 42.7976 82.26 42.2424 82.1477 41.8363ZM92.2958 43.5787C92.2661 43.4095 92.213 43.1367 92.1367 42.7602C92.0518 42.3647 91.95 41.9311 91.8313 41.4595C91.7316 40.9794 91.6097 40.4749 91.4656 39.9462C91.3404 39.409 91.2185 38.9045 91.0998 38.4329C91.0001 37.9528 90.8983 37.5192 90.7944 37.1322C90.6906 36.7451 90.61 36.4617 90.5528 36.2819C90.5379 36.1973 90.4871 36.0831 90.4003 35.9394C90.3135 35.7956 90.2182 35.6327 90.1144 35.4509C90.0107 35.269 89.9154 35.1062 89.8286 34.9624C89.7418 34.8186 89.6814 34.7087 89.6475 34.6325C89.5904 34.6579 89.4868 34.6813 89.3366 34.7025C89.1865 34.7238 89.031 34.7587 88.8703 34.8075C88.7201 34.8287 88.5837 34.8553 88.461 34.8871C88.3299 34.8998 88.2357 34.9189 88.1786 34.9443C87.7981 35.319 87.5529 35.6903 87.4432 36.0585C87.3439 36.3991 87.2542 36.7355 87.174 37.0676C87.1129 37.3913 87.001 37.7034 86.8383 38.0038C86.6671 38.2853 86.3436 38.5319 85.8678 38.7437C85.6965 38.8199 85.5431 38.8084 85.4077 38.7091C85.2722 38.6097 85.1664 38.4744 85.0901 38.3031L85.0393 38.1889C85.2462 37.5267 85.4637 36.9396 85.6919 36.4275C85.901 35.924 86.1641 35.4648 86.4812 35.05C86.7898 34.6162 87.1661 34.2321 87.6101 33.8976C88.0541 33.5631 88.5997 33.2518 89.2468 32.9638C89.5323 32.8367 89.7671 32.8006 89.9511 32.8555C90.1457 32.8829 90.3192 32.9653 90.4716 33.1027C90.6155 33.2211 90.7341 33.3849 90.8273 33.5943C90.9395 33.7952 91.0507 34.0193 91.1608 34.2668C91.3896 34.7807 91.5612 35.32 91.6758 35.8847C91.8009 36.4219 91.9112 36.9771 92.0067 37.5503C92.1128 38.096 92.2231 38.6512 92.3377 39.2159C92.4438 39.7616 92.6154 40.3009 92.8526 40.8338L92.9035 40.948C92.8928 40.7703 92.9064 40.4678 92.9442 40.0405C92.9736 39.5942 93.004 39.1246 93.0354 38.6317C93.0668 38.1388 93.1015 37.6787 93.1393 37.2514C93.1877 36.7966 93.2203 36.4856 93.2371 36.3185C93.2477 36.291 93.2804 36.1852 93.3353 36.0011C93.3817 35.798 93.4387 35.5674 93.5063 35.3093C93.5928 35.0427 93.6741 34.7899 93.7501 34.5508C93.8367 34.2843 93.9117 34.0685 93.975 33.9034C94.0215 33.7003 94.0827 33.4792 94.1587 33.2402C94.2537 32.9926 94.353 32.7546 94.4565 32.5261C94.5791 32.2891 94.7143 32.0807 94.8623 31.9008C95.0208 31.6934 95.2048 31.5431 95.4141 31.4499C95.5854 31.3736 95.7388 31.3852 95.8742 31.4845C96.0287 31.5754 96.1673 31.7075 96.2901 31.8809C96.4129 32.0543 96.5209 32.2457 96.6141 32.455C96.6988 32.6454 96.7708 32.8071 96.8301 32.9404C97.0843 33.5113 97.2719 34.112 97.3928 34.7423C97.5137 35.3726 97.6252 36.0071 97.7271 36.6459C97.8205 37.2656 97.9182 37.8948 98.0201 38.5336C98.141 39.1639 98.3286 39.7645 98.5827 40.3355C98.6929 40.5829 98.8241 40.7754 98.9765 40.9128C99.1289 41.0502 99.3383 41.0596 99.6048 40.941C99.9474 40.7885 100.219 40.5535 100.42 40.2361C100.621 39.9187 100.798 39.6002 100.952 39.2807C101.117 38.9337 101.281 38.61 101.444 38.3095C101.625 38.0006 101.878 37.7741 102.201 37.6301L102.443 38.1725C102.451 38.1915 102.429 38.2698 102.376 38.4073C102.324 38.5449 102.26 38.7099 102.186 38.9024C102.112 39.095 102.029 39.2917 101.936 39.4927C101.862 39.6853 101.799 39.8503 101.746 39.9878C101.653 40.1888 101.545 40.4078 101.423 40.6448C101.3 40.8818 101.164 41.1135 101.014 41.3399C100.874 41.5389 100.712 41.7367 100.525 41.9336C100.331 42.1114 100.129 42.2469 99.9197 42.34C99.6342 42.4671 99.3624 42.4969 99.1043 42.4294C98.8567 42.3343 98.6346 42.1938 98.4377 42.0077C98.2324 41.8027 98.0514 41.5754 97.8948 41.3259C97.7381 41.0764 97.6131 40.8469 97.52 40.6376C97.2658 40.0666 97.0634 39.4839 96.9129 38.8896C96.7729 38.2678 96.6414 37.665 96.5184 37.0813C96.3869 36.4785 96.2459 35.8799 96.0954 35.2856C95.9448 34.6913 95.7425 34.1086 95.4883 33.5377L95.317 33.6139C95.298 33.6224 95.2568 33.7091 95.1934 33.8742C95.1301 34.0392 95.0466 34.236 94.9431 34.4645C94.8586 34.6845 94.7784 34.9141 94.7024 35.1531C94.6264 35.3922 94.5567 35.5943 94.4933 35.7593C94.449 35.9159 94.4078 36.1052 94.3699 36.3273C94.3235 36.5304 94.2855 36.7526 94.256 36.9937C94.2266 37.2349 94.1971 37.476 94.1676 37.7172C94.1487 37.9309 94.1351 38.1308 94.1267 38.3169C94.1289 38.4756 94.1227 38.7178 94.1081 39.0435C94.0935 39.3693 94.0768 39.7416 94.058 40.1604C94.0582 40.5708 94.0479 41.0087 94.027 41.4741C94.0252 41.931 94.0148 42.3688 93.996 42.7877C93.9963 43.1981 93.9891 43.5661 93.9745 43.8919C93.9599 44.2177 93.9536 44.4599 93.9559 44.6185C93.9707 44.7031 93.9412 44.8417 93.8673 45.0342C93.7849 45.2077 93.7289 45.3125 93.6993 45.3484C93.6697 45.3844 93.6549 45.4024 93.6549 45.4024L93.5692 45.4405L93.5121 45.4659C93.4931 45.4744 93.4698 45.4734 93.4423 45.4628C93.3958 45.4607 93.3217 45.4481 93.2202 45.4249C93.1377 45.3932 93.0922 45.3678 93.0837 45.3488L92.2958 43.5787ZM106.549 55.1581C106.113 54.4857 105.679 53.7668 105.247 53.0013C104.815 52.2358 104.337 51.3423 103.814 50.321C103.738 50.1497 103.621 49.8599 103.462 49.4518C103.292 49.0711 103.116 48.6249 102.934 48.1131C102.76 47.6203 102.593 47.0905 102.432 46.5237C102.279 45.9759 102.154 45.4387 102.057 44.9121C101.948 44.4129 101.89 43.9487 101.881 43.5193C101.881 43.1089 101.961 42.7767 102.122 42.5228L102.223 42.7512C102.478 43.3222 102.69 43.9006 102.859 44.4864C103.01 45.0808 103.17 45.6708 103.339 46.2567C103.498 46.87 103.667 47.4791 103.845 48.084C104.004 48.6973 104.21 49.2895 104.465 49.8605C104.566 50.0889 104.729 50.404 104.954 50.8058C105.168 51.235 105.417 51.6939 105.703 52.1824C105.989 52.6709 106.308 53.1561 106.659 53.6382C107.019 54.1393 107.392 54.5664 107.777 54.9194C108.162 55.2725 108.547 55.5229 108.932 55.6708C109.326 55.8377 109.703 55.8406 110.065 55.6796C110.56 55.4594 110.983 55.0773 111.334 54.5335C111.703 53.9812 111.998 53.3369 112.218 52.6006C112.465 51.8749 112.64 51.09 112.743 50.246C112.855 49.4209 112.933 48.5991 112.98 47.7805C113.026 46.9618 113.027 46.1971 112.985 45.4864C112.95 44.7947 112.893 44.2046 112.812 43.716C112.647 43.0371 112.464 42.3201 112.265 41.565C112.074 40.829 111.861 40.0687 111.626 39.2841C111.418 38.51 111.182 37.7486 110.917 36.9999C110.671 36.2428 110.388 35.5026 110.066 34.7794C110.057 34.7603 110.032 34.7032 109.989 34.6081C109.947 34.5129 109.895 34.422 109.834 34.3353C109.783 34.2211 109.736 34.1164 109.694 34.0212C109.652 33.9261 109.622 33.8595 109.605 33.8214C109.466 34.2255 109.324 34.6761 109.181 35.1733C109.048 35.643 108.878 36.1063 108.671 36.5634C108.464 37.0204 108.207 37.4426 107.9 37.8298C107.613 38.2086 107.241 38.4997 106.784 38.703C106.422 38.864 106.057 38.8896 105.689 38.7798C105.34 38.6616 105.008 38.4788 104.693 38.2315C104.388 37.9567 104.103 37.6501 103.839 37.3118C103.593 36.965 103.402 36.6394 103.267 36.3349C103.172 36.1721 103.017 35.876 102.803 35.4467C102.581 34.9984 102.34 34.5353 102.082 34.0574C101.834 33.552 101.594 33.0888 101.361 32.668C101.139 32.2197 100.985 31.9004 100.9 31.7101L100.529 31.5675C100.43 31.7029 100.309 31.8934 100.168 32.1388C100.026 32.3843 99.8612 32.6287 99.6731 32.8721C99.504 33.107 99.3307 33.3324 99.1531 33.5482C98.9671 33.7451 98.7884 33.8816 98.6171 33.9578C98.3887 34.0595 98.174 34.0639 97.973 33.9709C97.7445 33.8674 97.5879 33.7205 97.5031 33.5301C97.4608 33.435 97.4966 33.2594 97.6107 33.0034C97.7058 32.7558 97.8579 32.4829 98.0672 32.1845C98.2489 31.8755 98.4687 31.5497 98.7266 31.2068C99.0035 30.8555 99.2698 30.5317 99.5256 30.2354C99.7814 29.9392 100.021 29.6841 100.245 29.4703C100.461 29.2375 100.626 29.0957 100.74 29.0449C100.816 29.011 100.944 28.9654 101.124 28.9082C101.304 28.851 101.428 28.8985 101.495 29.0508L104.494 35.7884C104.545 35.9026 104.641 36.0654 104.78 36.2769C104.912 36.4693 105.066 36.6628 105.244 36.8573C105.422 37.0518 105.615 37.205 105.825 37.317C106.026 37.41 106.212 37.4183 106.383 37.3421C106.478 37.2997 106.589 37.2161 106.716 37.0912C106.843 36.9663 106.956 36.8362 107.056 36.7007C107.174 36.5568 107.273 36.4214 107.354 36.2944C107.425 36.1484 107.482 36.0204 107.525 35.9104C107.918 35.0514 108.224 34.1511 108.443 33.2097C108.682 32.2598 108.748 31.3068 108.642 30.3507C108.635 30.2852 108.609 30.1487 108.562 29.9415C108.526 29.7067 108.476 29.4666 108.412 29.2213C108.359 28.9485 108.315 28.6946 108.279 28.4599C108.234 28.2061 108.186 28.0221 108.136 27.9079C108.095 27.7662 108.037 27.6097 107.961 27.4384C107.904 27.2586 107.86 27.0841 107.83 26.9149C107.792 26.7267 107.795 26.5543 107.84 26.3977C107.884 26.2411 108.011 26.1163 108.22 26.0231C108.506 25.896 108.696 25.9139 108.791 26.0767C108.906 26.231 109.014 26.4224 109.115 26.6508C109.226 26.8982 109.317 27.1541 109.389 27.4185C109.461 27.6829 109.523 27.9515 109.576 28.2243C109.64 28.4697 109.717 28.7203 109.808 28.9762C109.891 29.213 110.006 29.4467 110.155 29.6772C111.538 33.3486 112.514 36.7452 113.083 39.867C113.671 42.9804 113.926 45.7059 113.849 48.0433C113.8 50.3913 113.481 52.2889 112.894 53.7361C112.326 55.1749 111.573 56.0458 110.637 56.3488C110.313 56.4928 109.956 56.5607 109.564 56.5525C109.2 56.5548 108.83 56.4916 108.454 56.3628C108.077 56.2339 107.726 56.0596 107.4 55.8398C107.063 55.6475 106.78 55.4203 106.549 55.1581ZM136.777 10.6431C136.602 10.8124 136.506 10.9806 136.489 11.1478C136.483 11.2874 136.484 11.4693 136.492 11.6935C136.488 11.7866 136.493 12.0013 136.506 12.3376C136.51 12.6549 136.521 13.0378 136.538 13.4862C136.555 13.9346 136.562 14.4106 136.558 14.914C136.573 15.409 136.589 15.8807 136.606 16.3291C136.623 16.7776 136.638 17.1699 136.651 17.5063C136.664 17.8426 136.673 18.0668 136.677 18.1789C136.679 18.5427 136.665 18.9711 136.633 19.464C136.621 19.9484 136.553 20.435 136.428 20.9237C136.323 21.4039 136.154 21.844 135.921 22.2439C135.708 22.6354 135.401 22.9201 135.001 23.098C134.373 23.3776 133.763 23.3642 133.171 23.0578C132.57 22.7324 131.995 22.2356 131.447 21.5675C130.909 20.8719 130.39 20.0652 129.891 19.1474C129.383 18.2106 128.897 17.2982 128.433 16.41C127.988 15.5134 127.559 14.6781 127.146 13.9041C126.733 13.1302 126.34 12.5529 125.965 12.1724C125.927 12.1893 125.898 12.202 125.879 12.2105C125.86 12.219 125.841 12.2274 125.822 12.2359C125.803 12.2444 125.794 12.2486 125.794 12.2486C125.794 12.2486 125.784 12.2528 125.765 12.2613L125.708 12.2867C125.568 12.4857 125.464 12.7374 125.394 13.0421C125.344 13.3383 125.311 13.6492 125.296 13.975C125.273 14.2817 125.265 14.5705 125.272 14.8412C125.297 15.1035 125.32 15.3097 125.342 15.4599L126.738 27.3577C126.745 27.4233 126.75 27.5121 126.754 27.6242C126.759 27.7363 126.744 27.8569 126.71 27.9859C126.687 28.0875 126.64 28.188 126.571 28.2875C126.52 28.3784 126.439 28.4261 126.327 28.4304C126.269 28.4558 126.176 28.4516 126.047 28.4179C125.929 28.3566 125.81 28.2953 125.692 28.234C125.565 28.1537 125.452 28.0787 125.352 28.0089C125.244 27.9202 125.168 27.8515 125.124 27.8028C123.982 26.0076 122.948 24.1192 122.02 22.1377C121.093 20.1562 120.229 18.2149 119.428 16.3137C119.392 16.2841 119.306 16.2196 119.171 16.1203C119.054 16.0125 118.988 15.9395 118.971 15.9015C118.911 15.7682 118.89 15.6181 118.907 15.4509C118.934 15.2563 118.975 15.067 119.03 14.8829C119.104 14.6904 119.191 14.5264 119.29 14.3909C119.4 14.228 119.512 14.1211 119.626 14.0703C119.817 13.9856 119.975 13.9834 120.102 14.0637C120.221 14.1249 120.322 14.2507 120.407 14.4411C120.865 15.4688 121.27 16.5083 121.624 17.5594C121.978 18.6105 122.388 19.6594 122.854 20.7062C122.913 20.8395 122.998 21.0298 123.108 21.2772C123.218 21.5247 123.328 21.7721 123.439 22.0195C123.559 22.2394 123.662 22.4446 123.747 22.6349C123.831 22.8252 123.878 22.9299 123.887 22.9489L124.601 23.8623C124.603 23.8158 124.62 23.7513 124.652 23.6687C124.702 23.5778 124.733 23.5185 124.744 23.491C124.748 23.3979 124.751 23.2255 124.753 22.9738C124.755 22.7221 124.752 22.4608 124.746 22.1901C124.75 21.8918 124.753 21.6168 124.755 21.3651C124.748 21.0944 124.734 20.9072 124.71 20.8035C124.706 20.6914 124.696 20.4905 124.681 20.2007C124.658 19.8919 124.632 19.527 124.605 19.1061C124.568 18.6661 124.537 18.2124 124.512 17.7449C124.505 17.269 124.488 16.8205 124.46 16.3996C124.432 15.9787 124.407 15.6138 124.383 15.305C124.379 14.9877 124.375 14.773 124.37 14.6609C124.379 14.4747 124.374 14.1574 124.357 13.709C124.35 13.2331 124.377 12.7539 124.436 12.2716C124.505 11.7618 124.605 11.2953 124.736 10.8722C124.886 10.4406 125.113 10.157 125.418 10.0214C125.703 9.89433 126.007 9.98723 126.329 10.3001C126.65 10.613 126.989 11.0665 127.345 11.6607C127.711 12.2274 128.091 12.902 128.485 13.6844C128.871 14.4478 129.259 15.244 129.651 16.073C130.062 16.8935 130.474 17.6907 130.887 18.4647C131.31 19.2111 131.728 19.8687 132.141 20.4375C132.545 20.9873 132.947 21.4016 133.344 21.6806C133.761 21.9511 134.17 21.9974 134.569 21.8195C134.683 21.7687 134.782 21.6565 134.864 21.483C134.957 21.282 135.032 21.0662 135.089 20.8356C135.146 20.605 135.184 20.3829 135.203 20.1692C135.241 19.9471 135.258 19.78 135.253 19.6679C135.276 19.3611 135.293 18.8862 135.303 18.2432C135.313 17.6001 135.323 16.8777 135.331 16.076C135.358 15.2658 135.377 14.4134 135.389 13.5186C135.402 12.6238 135.412 11.7756 135.42 10.9739C135.419 10.1531 135.424 9.42122 135.434 8.77817C135.444 8.13511 135.447 7.65493 135.443 7.33764C135.436 7.06688 135.42 6.69777 135.395 6.2303C135.388 5.75436 135.359 5.3567 135.308 5.03732C135.554 4.97372 135.812 4.93867 136.082 4.93217C136.353 4.92566 136.544 5.04613 136.654 5.29355C136.671 5.33162 136.687 5.39295 136.701 5.47756C136.727 5.53466 136.744 5.57272 136.752 5.59175C137.181 7.27106 137.659 8.88264 138.186 10.4265C138.724 11.9429 139.341 13.4814 140.035 15.0421C140.095 15.1753 140.201 15.4132 140.353 15.7558C140.497 16.0794 140.658 16.441 140.836 16.8407C141.025 17.2129 141.195 17.5703 141.348 17.9129C141.492 18.2364 141.597 18.4743 141.665 18.6266C142.108 19.3646 142.701 19.9555 143.446 20.3992C144.191 20.843 144.929 21.2445 145.659 21.6037L145.951 22.2603C145.78 22.3366 145.532 22.3441 145.208 22.283C144.876 22.2028 144.523 22.075 144.148 21.8996C143.774 21.7243 143.382 21.5109 142.974 21.2594C142.585 20.9994 142.219 20.7405 141.876 20.4826C141.552 20.2163 141.269 19.9658 141.028 19.7311C140.787 19.4965 140.628 19.2935 140.552 19.1222L136.777 10.6431ZM146.711 20.5877C146.686 20.5306 146.644 20.4355 146.584 20.3022C146.517 20.15 146.439 20.0019 146.352 19.8582C146.276 19.6869 146.208 19.5346 146.149 19.4014C146.081 19.2491 146.03 19.1349 145.997 19.0588C145.759 18.5259 145.543 17.9379 145.348 17.295C145.153 16.6521 145.005 16.0112 144.903 15.3724C144.793 14.7146 144.743 14.0642 144.753 13.4212C144.773 12.7506 144.885 12.1307 145.088 11.5616C145.301 10.965 145.61 10.4286 146.014 9.95238C146.417 9.47621 146.952 9.08985 147.618 8.79333C148.056 8.59846 148.449 8.58343 148.796 8.74822C149.134 8.89398 149.426 9.14025 149.672 9.48701C149.936 9.82531 150.162 10.2038 150.348 10.6225C150.554 11.0328 150.728 11.3997 150.872 11.7233C151.203 12.4655 151.474 13.2798 151.686 14.166C151.89 15.0331 151.968 15.876 151.922 16.6947C151.876 17.5133 151.646 18.2771 151.232 18.9859C150.837 19.6863 150.192 20.2356 149.297 20.6338C149.031 20.7524 148.798 20.8446 148.599 20.9103C148.401 20.976 148.208 21.0046 148.022 20.9963C147.827 20.9689 147.629 20.932 147.425 20.8856C147.214 20.8201 146.976 20.7208 146.711 20.5877ZM147.482 19.6291C147.729 19.7241 147.967 19.7208 148.196 19.6191C148.424 19.5175 148.643 19.42 148.852 19.3268C149.576 19.0049 150.085 18.5614 150.381 17.9965C150.668 17.4125 150.813 16.7894 150.815 16.1274C150.835 15.4568 150.749 14.7768 150.556 14.0873C150.374 13.3703 150.156 12.7263 149.902 12.1553C149.783 11.8889 149.656 11.6034 149.52 11.2989C149.395 10.9668 149.236 10.6845 149.041 10.452C148.857 10.1919 148.641 10.0143 148.393 9.91928C148.137 9.8052 147.838 9.82441 147.495 9.97691C147.631 10.2814 147.694 10.5268 147.686 10.7129C147.678 10.8991 147.62 11.0504 147.512 11.1668C147.423 11.2747 147.297 11.3763 147.134 11.4716C146.982 11.5394 146.824 11.6442 146.659 11.786C146.513 11.9193 146.38 12.0812 146.259 12.2717C146.139 12.4621 146.075 12.7297 146.069 13.0745C146.146 14.0666 146.22 15.0258 146.29 15.9523C146.371 16.8512 146.606 17.7385 146.996 18.614C147.021 18.6711 147.055 18.7472 147.097 18.8424C147.131 18.9185 147.174 19.0137 147.225 19.1279C147.294 19.2336 147.351 19.334 147.393 19.4292C147.427 19.5053 147.456 19.572 147.482 19.6291ZM155.447 16.699C155.299 15.8529 155.127 15.1085 154.932 14.4655C154.748 13.7951 154.534 13.1606 154.29 12.5621C154.066 11.9551 153.8 11.3323 153.493 10.6937C153.205 10.0466 152.878 9.31382 152.514 8.49541C152.21 8.63096 151.99 8.75166 151.854 8.85751C151.738 8.95488 151.664 9.04482 151.632 9.12734C151.592 9.19082 151.575 9.25534 151.582 9.32092C151.588 9.38649 151.575 9.46053 151.544 9.54304C151.523 9.59805 151.454 9.67425 151.338 9.77162C151.221 9.86899 151.02 9.98122 150.735 10.1083C150.564 10.1845 150.41 10.173 150.275 10.0737C150.139 9.97432 150.034 9.839 149.957 9.66771C149.89 9.51545 149.922 9.30707 150.055 9.04258C150.169 8.78656 150.322 8.5136 150.512 8.22369C150.721 7.92531 150.943 7.65548 151.178 7.4142C151.431 7.16445 151.663 6.99298 151.872 6.89978C151.948 6.86589 152.07 6.85736 152.237 6.87419C152.415 6.86351 152.596 6.88561 152.78 6.9405C152.955 6.97636 153.107 7.03445 153.234 7.11475C153.38 7.18659 153.478 7.27961 153.529 7.3938L155.295 11.3622C155.358 10.9919 155.489 10.4662 155.688 9.78496C155.886 9.10372 156.136 8.41081 156.439 7.70624C156.732 6.98264 157.065 6.32141 157.437 5.72257C157.809 5.12372 158.204 4.7311 158.623 4.54471C159.194 4.29055 159.678 4.30296 160.076 4.58195C160.466 4.84191 160.783 5.24786 161.029 5.79981C160.8 5.90148 160.603 5.9439 160.435 5.92707C160.268 5.91025 160.107 5.87967 159.95 5.83534C159.812 5.78254 159.674 5.753 159.534 5.74674C159.386 5.72144 159.217 5.75115 159.027 5.83587C158.468 6.22118 158.033 6.77987 157.72 7.51195C157.408 8.24403 157.171 9.04481 157.011 9.91429C156.87 10.7753 156.784 11.6574 156.752 12.5607C156.74 13.4555 156.736 14.2667 156.741 14.9944C156.746 15.722 156.747 16.3143 156.745 16.7712C156.762 17.2196 156.735 17.4143 156.663 17.3551C156.473 17.4398 156.254 17.4346 156.006 17.3396C155.769 17.217 155.596 17.0321 155.486 16.7846L155.447 16.699ZM164.34 9.62766C164.241 9.76309 164.145 9.82872 164.052 9.82455C163.959 9.82037 163.876 9.78869 163.804 9.7295C163.751 9.66184 163.694 9.58467 163.633 9.49797C163.582 9.38378 163.548 9.30765 163.531 9.26958C163.362 8.88892 163.308 8.63935 163.369 8.52086C163.422 8.38333 163.52 8.27116 163.664 8.18435C163.799 8.07851 163.94 7.95891 164.085 7.82556C164.231 7.69221 164.313 7.43939 164.329 7.06709C164.346 6.4896 164.326 5.90579 164.268 5.31565C164.221 4.69801 164.229 4.10149 164.292 3.52609C164.356 2.95069 164.523 2.43128 164.796 1.96787C165.088 1.49599 165.595 1.09908 166.318 0.777133C166.433 0.7263 166.56 0.680747 166.702 0.640474C166.863 0.591729 167.013 0.570489 167.153 0.576754C167.303 0.555514 167.441 0.585048 167.568 0.665357C167.706 0.71816 167.813 0.830209 167.889 1.0015C168.067 1.40119 168.123 1.80942 168.058 2.22617C168.003 2.61542 167.883 3.01105 167.697 3.41306C167.522 3.78757 167.313 4.16528 167.072 4.54617C166.832 4.92706 166.615 5.28573 166.423 5.62218C166.23 5.95862 166.08 6.28764 165.973 6.60923C165.884 6.92234 165.899 7.21213 166.018 7.47859L167.238 10.2193C167.331 10.4287 167.483 10.5661 167.695 10.6315C167.917 10.6695 168.15 10.6799 168.393 10.6629C168.636 10.6458 168.88 10.6055 169.126 10.5419C169.371 10.4783 169.551 10.4211 169.665 10.3702C170.122 10.1669 170.545 9.88742 170.934 9.53182C171.314 9.15719 171.659 8.75297 171.967 8.31916C172.295 7.87687 172.586 7.42826 172.839 6.97332C173.084 6.49935 173.319 6.05288 173.543 5.63392C173.615 5.48793 173.667 5.3504 173.701 5.22135C173.746 5.06479 173.785 4.92198 173.818 4.79293C173.871 4.6554 173.932 4.53691 174.002 4.43745C174.082 4.31049 174.2 4.18985 174.354 4.07553C174.363 4.09456 174.38 4.13263 174.405 4.18973C174.43 4.24683 174.452 4.29441 174.469 4.33247C174.536 4.48474 174.577 4.62644 174.589 4.75758C174.621 4.88025 174.605 5.0241 174.542 5.18913C174.335 5.85134 174.087 6.49771 173.797 7.12824C173.508 7.75877 173.169 8.35442 172.78 8.9152C172.391 9.47598 171.944 9.98286 171.439 10.4358C170.933 10.8888 170.348 11.2635 169.682 11.5601C169.015 11.8566 168.459 11.9902 168.013 11.9608C167.566 11.9315 167.158 11.7826 166.788 11.5141C166.436 11.2372 166.113 10.8683 165.816 10.4073C165.52 9.94638 165.197 9.45159 164.848 8.92297L164.34 9.62766ZM166.053 3.56314C166.036 3.52508 166.003 3.55154 165.952 3.64253C165.912 3.70601 165.861 3.797 165.8 3.91549C165.758 4.02551 165.734 4.12706 165.73 4.22013C165.717 4.29418 165.73 4.32272 165.768 4.30578C165.872 4.28245 165.961 4.17452 166.035 3.98198C166.109 3.78945 166.115 3.64983 166.053 3.56314Z" fill="#666666"/>
</svg>
