<svg width="24" height="24" viewBox="0 0 24 24" fill="none" xmlns="http://www.w3.org/2000/svg">
<path d="M7.9 12.18C8.78 12.54 9.46 13.12 9.94 13.92C10.46 14.68 10.72 15.6 10.72 16.68C10.72 18.12 10.26 19.3 9.34 20.22C8.42 21.14 7.28 21.6 5.92 21.6C4.48 21.6 3.3 21.14 2.38 20.22C1.46 19.3 1 18.12 1 16.68C1 15.96 1.08 15.26 1.24 14.58C1.44 13.9 1.8 12.88 2.32 11.52L5.5 3H10.3L7.9 12.18ZM20.62 12.18C21.5 12.54 22.18 13.12 22.66 13.92C23.18 14.68 23.44 15.6 23.44 16.68C23.44 18.12 22.98 19.3 22.06 20.22C21.14 21.14 20 21.6 18.64 21.6C17.2 21.6 16.02 21.14 15.1 20.22C14.18 19.3 13.72 18.12 13.72 16.68C13.72 15.96 13.8 15.26 13.96 14.58C14.16 13.9 14.52 12.88 15.04 11.52L18.22 3H23.02L20.62 12.18Z" fill="#FF0066"/>
</svg>
