<svg width="32" height="41" viewBox="0 0 32 41" fill="none" xmlns="http://www.w3.org/2000/svg">
<path d="M11.6613 25.8228V18.9837C11.6613 18.6313 11.5213 18.2932 11.2721 18.044C11.0228 17.7948 10.6848 17.6548 10.3324 17.6548C9.9799 17.6548 9.64188 17.7948 9.39265 18.044C9.14343 18.2932 9.00341 18.6313 9.00341 18.9837V25.8228C7.93273 26.142 7.01271 26.836 6.41161 27.7778C5.8105 28.7195 5.56847 29.8462 5.72977 30.9518C5.89106 32.0573 6.44492 33.0679 7.29004 33.7987C8.13517 34.5294 9.2151 34.9316 10.3324 34.9316C11.4496 34.9316 12.5296 34.5294 13.3747 33.7987C14.2198 33.0679 14.7737 32.0573 14.935 30.9518C15.0963 29.8462 14.8542 28.7195 14.2531 27.7778C13.652 26.836 12.732 26.142 11.6613 25.8228ZM10.3324 32.2732C9.9381 32.2732 9.55269 32.1563 9.22488 31.9373C8.89706 31.7182 8.64156 31.4069 8.49068 31.0426C8.3398 30.6784 8.30032 30.2776 8.37724 29.8909C8.45416 29.5042 8.64401 29.149 8.9228 28.8702C9.20158 28.5914 9.55678 28.4016 9.94346 28.3247C10.3302 28.2478 10.731 28.2872 11.0952 28.4381C11.4595 28.589 11.7708 28.8445 11.9898 29.1723C12.2089 29.5001 12.3258 29.8855 12.3258 30.2798C12.3252 30.8083 12.115 31.315 11.7413 31.6887C11.3676 32.0624 10.8609 32.2727 10.3324 32.2732ZM31.0816 11.9602L27.7655 13.0377L29.8149 15.8584C29.9175 15.9995 29.9913 16.1596 30.032 16.3293C30.0728 16.499 30.0797 16.675 30.0524 16.8474C30.0251 17.0198 29.9641 17.1851 29.873 17.3339C29.7818 17.4827 29.6622 17.6121 29.521 17.7147C29.3798 17.8172 29.2198 17.891 29.0501 17.9318C28.8804 17.9725 28.7043 17.9794 28.532 17.9521C28.3596 17.9248 28.1943 17.8639 28.0455 17.7727C27.8967 17.6815 27.7673 17.5619 27.6647 17.4207L25.6153 14.5998L23.5659 17.4205C23.3575 17.7024 23.0462 17.8906 22.6997 17.944C22.3533 17.9974 21.9997 17.9117 21.7161 17.7057C21.4325 17.4996 21.2418 17.1899 21.1855 16.8439C21.1293 16.4979 21.212 16.1437 21.4156 15.8584L23.465 13.0377L20.149 11.9601C19.983 11.9061 19.8293 11.82 19.6966 11.7067C19.5639 11.5933 19.4548 11.4549 19.3756 11.2994C19.2963 11.1439 19.2485 10.9743 19.2348 10.8004C19.2211 10.6264 19.2419 10.4514 19.2958 10.2854C19.3497 10.1194 19.4358 9.9657 19.5492 9.833C19.6625 9.70029 19.8009 9.59121 19.9564 9.51199C20.1119 9.43276 20.2815 9.38494 20.4555 9.37125C20.6295 9.35757 20.8045 9.37829 20.9704 9.43222L24.2863 10.5098V7.02317C24.2863 6.67071 24.4264 6.33269 24.6756 6.08346C24.9248 5.83423 25.2628 5.69422 25.6153 5.69422C25.9677 5.69422 26.3058 5.83423 26.555 6.08346C26.8042 6.33269 26.9442 6.67071 26.9442 7.02317V10.5098L30.2601 9.43239C30.4261 9.37845 30.6011 9.35774 30.7751 9.37142C30.9491 9.38511 31.1187 9.43293 31.2742 9.51215C31.4297 9.59138 31.568 9.70046 31.6814 9.83316C31.7947 9.96587 31.8808 10.1196 31.9348 10.2856C31.9887 10.4516 32.0094 10.6265 31.9958 10.8005C31.9821 10.9745 31.9342 11.1441 31.855 11.2996C31.7758 11.4551 31.6667 11.5935 31.534 11.7068C31.4013 11.8202 31.2476 11.9063 31.0816 11.9602ZM16.9771 22.85V7.02317C16.9771 5.26087 16.277 3.57075 15.0309 2.32462C13.7848 1.07849 12.0947 0.378418 10.3324 0.378418C8.57007 0.378418 6.87995 1.07849 5.63381 2.32462C4.38768 3.57075 3.68761 5.26087 3.68761 7.02317V22.85C2.18304 24.1957 1.12254 25.9665 0.646437 27.9282C0.170333 29.8898 0.30107 31.9498 1.02135 33.8355C1.74163 35.7212 3.01749 37.3438 4.68012 38.4885C6.34275 39.6332 8.31377 40.2462 10.3324 40.2462C12.351 40.2462 14.322 39.6332 15.9846 38.4885C17.6472 37.3438 18.9231 35.7212 19.6434 33.8355C20.3637 31.9498 20.4944 29.8898 20.0183 27.9282C19.5422 25.9665 18.4817 24.1957 16.9771 22.85ZM10.3324 37.589C8.81633 37.589 7.3378 37.1177 6.10153 36.2402C4.86526 35.3627 3.93243 34.1225 3.43222 32.6913C2.93201 31.2602 2.88918 29.7089 3.30965 28.2524C3.73012 26.7958 4.59309 25.506 5.77905 24.5617C5.95398 24.4391 6.09679 24.2761 6.19539 24.0866C6.294 23.8972 6.34549 23.6867 6.34551 23.4731V7.02317C6.34551 5.96579 6.76555 4.95172 7.51323 4.20404C8.26091 3.45636 9.27498 3.03632 10.3324 3.03632C11.3897 3.03632 12.4038 3.45636 13.1515 4.20404C13.8992 4.95172 14.3192 5.96579 14.3192 7.02317V23.4731C14.3192 23.6839 14.3695 23.8916 14.4657 24.0792C14.562 24.2667 14.7015 24.4286 14.8727 24.5515C16.0619 25.4941 16.9282 26.7834 17.3515 28.2406C17.7748 29.6978 17.7341 31.2506 17.235 32.6836C16.736 34.1166 15.8033 35.3587 14.5664 36.2377C13.3296 37.1167 11.8498 37.589 10.3324 37.589Z" fill="#A7D6FF"/>
</svg>
