<svg width="12" height="12" viewBox="0 0 12 12" fill="none" xmlns="http://www.w3.org/2000/svg">
<path d="M6 0C2.69169 0 0 2.69169 0 6C0 9.30831 2.69169 12 6 12C9.30831 12 12 9.30831 12 6C12 2.69169 9.30831 0 6 0ZM6 0.923077C8.80892 0.923077 11.0769 3.19108 11.0769 6C11.0769 8.80892 8.80892 11.0769 6 11.0769C3.19108 11.0769 0.923077 8.80892 0.923077 6C0.923077 3.19108 3.19108 0.923077 6 0.923077ZM5.95662 3.23077C4.42246 3.23077 3.18738 4.46585 3.18738 6C3.18738 7.53415 4.42246 8.76923 5.95662 8.76923C7.06385 8.76923 8.01046 8.10554 8.45169 7.16815L7.61538 6.77908C7.31769 7.41138 6.696 7.84615 5.95662 7.84615C4.90569 7.84615 4.11046 7.05092 4.11046 6C4.11046 4.94908 4.90569 4.15385 5.95662 4.15385C6.696 4.15385 7.31815 4.58815 7.61538 5.22138L8.45215 4.83185C8.01 3.89446 7.06431 3.23077 5.95662 3.23077Z" fill="white"/>
</svg>
