<svg width="40" height="40" viewBox="0 0 40 40" fill="none" xmlns="http://www.w3.org/2000/svg">
<path d="M6.66667 16C5.26667 16 3.968 16.432 2.896 17.168C3.56919 13.1179 5.65773 9.43815 8.78983 6.78368C11.9219 4.12922 15.8944 2.67232 20 2.67232C24.1056 2.67232 28.0781 4.12922 31.2102 6.78368C34.3423 9.43815 36.4308 13.1179 37.104 17.168C35.9947 16.4051 34.6796 15.9978 33.3333 16C32.2725 16 31.2551 16.4214 30.5049 17.1716C29.7548 17.9217 29.3333 18.9391 29.3333 20V30.6667C29.333 31.4684 29.5736 32.2517 30.0239 32.9151C30.4742 33.5784 31.1134 34.0911 31.8587 34.3867C31.6276 35.233 31.1248 35.9799 30.4275 36.5124C29.7303 37.0448 28.8773 37.3333 28 37.3333H21.3333V40H28C29.5564 40.0002 31.0638 39.4558 32.2609 38.4613C33.4581 37.4668 34.2695 36.0847 34.5547 34.5547C36.0847 34.2695 37.4668 33.4581 38.4613 32.2609C39.4558 31.0638 40.0002 29.5564 40 28V20C40 14.6957 37.8929 9.60859 34.1421 5.85786C30.3914 2.10714 25.3043 0 20 0C14.6957 0 9.60859 2.10714 5.85786 5.85786C2.10714 9.60859 0 14.6957 0 20L0 28C0 29.7681 0.702379 31.4638 1.95262 32.714C3.20286 33.9643 4.89856 34.6667 6.66667 34.6667C7.72753 34.6667 8.74495 34.2452 9.49509 33.4951C10.2452 32.7449 10.6667 31.7275 10.6667 30.6667V20C10.6667 18.9391 10.2452 17.9217 9.49509 17.1716C8.74495 16.4214 7.72753 16 6.66667 16Z" fill="#4662B7"/>
</svg>
